SplineFontDB: 3.2
FontName: Ammerbach
FullName: Ammerbach
FamilyName: Ammerbach
Weight: Regular
Copyright: Copyright (c) 2017, John McKean
Version: 001.1
ItalicAngle: 0
UnderlinePosition: -150
UnderlineWidth: 50
Ascent: 800
Descent: 200
InvalidEm: 0
sfntRevision: 0x00011999
LayerCount: 2
Layer: 0 0 "Back" 1
Layer: 1 0 "Fore" 0
XUID: [1021 283 -1673485777 2820224]
StyleMap: 0x0000
FSType: 0
OS2Version: 4
OS2_WeightWidthSlopeOnly: 0
OS2_UseTypoMetrics: 1
CreationTime: 1487778354
ModificationTime: 1639151385
PfmFamily: 17
TTFWeight: 400
TTFWidth: 5
LineGap: 90
VLineGap: 0
Panose: 2 0 5 3 0 0 0 0 0 0
OS2TypoAscent: 800
OS2TypoAOffset: 0
OS2TypoDescent: -200
OS2TypoDOffset: 0
OS2TypoLinegap: 90
OS2WinAscent: 801
OS2WinAOffset: 0
OS2WinDescent: 220
OS2WinDOffset: 0
HheadAscent: 801
HheadAOffset: 0
HheadDescent: -220
HheadDOffset: 0
OS2SubXSize: 650
OS2SubYSize: 699
OS2SubXOff: 0
OS2SubYOff: 140
OS2SupXSize: 650
OS2SupYSize: 699
OS2SupXOff: 0
OS2SupYOff: 479
OS2StrikeYSize: 49
OS2StrikeYPos: 258
OS2CapHeight: 724
OS2XHeight: 456
OS2Vendor: 'PfEd'
OS2CodePages: 00000001.00000000
OS2UnicodeRanges: 00000041.10000000.00000000.00000000
Lookup: 4 0 1 "'liga' Standard Ligatures in Latin lookup 0" { "'liga' Standard Ligatures in Latin lookup 0 subtable"  } ['liga' ('DFLT' <'dflt' > 'latn' <'dflt' > ) ]
Lookup: 260 0 0 "'mark' Mark Positioning in Latin lookup 0" { "'mark' Mark Positioning in Latin lookup 0 subtable"  } ['mark' ('DFLT' <'dflt' > 'latn' <'dflt' > ) ]
Lookup: 262 0 0 "'mkmk' Mark to Mark in Latin lookup 1" { "'mkmk' Mark to Mark in Latin lookup 1 subtable"  } ['mkmk' ('DFLT' <'dflt' > 'latn' <'dflt' > ) ]
MarkAttachClasses: 1
DEI: 91125
MacFeat: 0 0 0
MacName: 0 0 24 "All Typographic Features"
MacName: 0 1 24 "Fonctions typographiques"
MacName: 0 2 32 "Alle typografischen Mglichkeiten"
MacName: 0 3 21 "Funzioni Tipografiche"
MacName: 0 4 28 "Alle typografische kenmerken"
MacSetting: 0
MacName: 0 0 17 "All Type Features"

StartChar: .notdef
Encoding: 65536 -1 0
Width: 500
Flags: MW
HStem: 0 50<100 400 100 450> 483 50<100 400 100 100>
VStem: 50 50<50 50 50 483> 400 50<50 483 483 483>
LayerCount: 2
Fore
SplineSet
50 0 m 1
 50 533 l 1
 450 533 l 1
 450 0 l 1
 50 0 l 1
100 50 m 1
 400 50 l 1
 400 483 l 1
 100 483 l 1
 100 50 l 1
EndSplineSet
Validated: 1
EndChar

StartChar: exclam
Encoding: 33 33 2
Width: 800
GlyphClass: 2
Flags: MW
HStem: 688 112<431.88 1144 431.88 431.88>
VStem: 367 64.88 377 46<-200 -200>
AnchorPoint: "Anchor-0" 694 432 basechar 0
LayerCount: 2
Fore
SplineSet
1144 800 m 1xc0
 1144 688 l 1
 431.879882812 688 l 1xc0
 423 -200 l 1
 377 -200 l 1xa0
 367 800 l 1
 1144 800 l 1xc0
EndSplineSet
Validated: 1048577
EndChar

StartChar: numbersign
Encoding: 35 35 3
Width: 800
GlyphClass: 2
Flags: MW
HStem: 268 112<428.8 1144 428.8 1144 427.68 1144> 478 112<430.9 1144 430.9 1144 429.78 1144> 688 112<431.881 1144 367 1144 431.881 431.881>
VStem: 367 61.8 377 46<-200 -200>
CounterMasks: 1 e0
LayerCount: 2
Fore
SplineSet
1144 800 m 1xf0
 1144.00097656 688 l 1
 431.880859375 688 l 1
 430.900390625 590 l 1
 1144 590 l 1
 1144 478 l 1
 429.780273438 478 l 1
 428.799804688 380 l 1xf0
 1144 380 l 1
 1144 268 l 1
 427.6796875 268 l 1
 423 -200 l 1
 377 -200 l 1xe8
 367 800 l 1
 1144 800 l 1xf0
EndSplineSet
Validated: 1
EndChar

StartChar: dollar
Encoding: 36 36 4
Width: 800
GlyphClass: 2
Flags: MW
HStem: 58 112<426.7 1144 426.7 1144 425.58 1144> 268 112<428.801 1144 428.801 1144 427.681 1144> 478 112<430.901 1144 430.901 1144 429.781 1144> 688 112<431.882 1144 367 1144 431.882 431.882>
VStem: 367 61.8 377 46<-200 -200>
LayerCount: 2
Fore
SplineSet
1144 800 m 1xf8
 1144.00195312 688 l 1
 431.881835938 688 l 1
 430.901367188 590 l 1
 1144.00097656 590 l 1
 1144.00097656 478 l 1
 429.78125 478 l 1
 428.80078125 380 l 1xf8
 1144.00097656 380 l 1
 1144.00097656 268 l 1
 427.680664062 268 l 1
 426.700195312 170 l 1
 1144 170 l 1
 1144 58 l 1
 425.580078125 58 l 1
 423 -200 l 1
 377 -200 l 1xf4
 367 800 l 1
 1144 800 l 1xf8
EndSplineSet
Validated: 1
EndChar

StartChar: comma
Encoding: 44 44 5
Width: 800
GlyphClass: 2
Flags: MW
HStem: -119.857 114.295
VStem: 347.349 105.303
LayerCount: 2
Fore
SplineSet
348.7890625 -76.123046875 m 0
 347.348632812 -74.6826171875 347.348632812 -73.2421875 347.348632812 -71.8017578125 c 0
 347.348632812 -55.962890625 384.7890625 -5.5625 396.30859375 -5.5625 c 2
 396.30859375 -5.5625 397.322265625 -5.20703125 397.749023438 -5.5625 c 0
 415.028320312 -19.962890625 433.749023438 -34.36328125 451.028320312 -48.7626953125 c 0
 452.143554688 -49.73828125 452.651367188 -51.25390625 452.651367188 -53.189453125 c 0
 452.651367188 -70.23828125 413.220703125 -119.857421875 402.2578125 -119.857421875 c 0
 401.611328125 -119.857421875 401.0625 -119.684570312 400.627929688 -119.322265625 c 0
 383.348632812 -104.922851562 366.068359375 -90.5224609375 348.7890625 -76.123046875 c 0
EndSplineSet
Validated: 1
EndChar

StartChar: hyphen
Encoding: 45 45 6
Width: 0
GlyphClass: 4
Flags: MW
HStem: 410 33<-391.759 -367.657 -368.657 -367.657 -367.657 -348.657 -348.657 348.723 348.723 367.723 367.723 368.723>
AnchorPoint: "Anchor-4" 0 476 basemark 0
AnchorPoint: "Anchor-4" 0 410 mark 0
AnchorPoint: "Anchor-2" 0 400 mark 0
LayerCount: 2
Fore
SplineSet
-388.657226562 410 m 2
 -394.861328125 410 -377.657226562 435 -375.657226562 437 c 0
 -374.657226562 438 -370.657226562 443 -368.657226562 443 c 2
 -367.657226562 443 l 1
 -348.657226562 443 l 1
 388.72265625 443 l 2
 394.72265625 443 377.72265625 419 375.72265625 417 c 0
 374.72265625 416 370.72265625 410 368.72265625 410 c 2
 367.72265625 410 l 1
 348.72265625 410 l 1
 -388.657226562 410 l 2
EndSplineSet
Validated: 1048577
EndChar

StartChar: period
Encoding: 46 46 7
Width: 0
GlyphClass: 4
Flags: MW
HStem: -119.857 114.295
VStem: 63.9121 105.303
AnchorPoint: "Anchor-3" 327 -63 basemark 0
AnchorPoint: "Anchor-3" 115 -63 mark 0
AnchorPoint: "Anchor-0" 115 -63 mark 0
LayerCount: 2
Fore
SplineSet
65.3525390625 -76.123046875 m 0
 63.912109375 -74.6826171875 63.912109375 -73.2421875 63.912109375 -71.8017578125 c 0
 63.912109375 -55.962890625 101.352539062 -5.5625 112.872070312 -5.5625 c 2
 112.872070312 -5.5625 113.885742188 -5.20703125 114.3125 -5.5625 c 0
 131.591796875 -19.962890625 150.3125 -34.36328125 167.591796875 -48.7626953125 c 0
 168.70703125 -49.73828125 169.21484375 -51.25390625 169.21484375 -53.189453125 c 0
 169.21484375 -70.23828125 129.784179688 -119.857421875 118.821289062 -119.857421875 c 0
 118.174804688 -119.857421875 117.625976562 -119.684570312 117.19140625 -119.322265625 c 0
 99.912109375 -104.922851562 82.6318359375 -90.5224609375 65.3525390625 -76.123046875 c 0
EndSplineSet
Validated: 1048577
EndChar

StartChar: zero
Encoding: 48 48 8
Width: 800
GlyphClass: 2
Flags: HMW
VStem: 166 84<295.667 412.667> 553 81<284 363.333>
LayerCount: 2
Fore
SplineSet
399 691 m 1
 407.666992188 681.666992188 418.333007812 670.333007812 431 657 c 0
 443.666992188 643.666992188 462.333007812 627 487 607 c 0
 501 595.666992188 514.833007812 584.333007812 528.5 573 c 0
 542.166992188 561.666992188 555.333007812 549.333007812 568 536 c 0
 582 520.666992188 594.666992188 502.5 606 481.5 c 0
 617.333007812 460.5 625.333007812 436 630 408 c 0
 631.333007812 400 632.333007812 392 633 384 c 0
 633.666992188 376 634 367.666992188 634 359 c 0
 634 345.666992188 633 332.833007812 631 320.5 c 0
 629 308.166992188 626.666992188 296.666992188 624 286 c 0
 621.333007812 275.333007812 618.666992188 266.166992188 616 258.5 c 0
 613.333007812 250.833007812 611 245 609 241 c 0
 606.333007812 235 603.333007812 229.166992188 600 223.5 c 0
 596.666992188 217.833007812 593 211.333007812 589 204 c 0
 583.666992188 196 578.333007812 188.5 573 181.5 c 0
 567.666992188 174.5 561.666992188 167.333007812 555 160 c 0
 548.333007812 152.666992188 540.5 144.666992188 531.5 136 c 0
 522.5 127.333007812 511.666992188 117 499 105 c 0
 487.666992188 94.3330078125 476.166992188 83.5 464.5 72.5 c 0
 452.833007812 61.5 441.333007812 50.3330078125 430 39 c 0
 422.666992188 32.3330078125 415.833007812 25.6669921875 409.5 19 c 0
 403.166992188 12.3330078125 396.666992188 5.3330078125 390 -2 c 1
 374 16.6669921875 355.333007812 35.6669921875 334 55 c 0
 323.333007812 64.3330078125 312.833007812 73.5 302.5 82.5 c 0
 292.166992188 91.5 282 100.666992188 272 110 c 0
 234 146 206.833007812 179.833007812 190.5 211.5 c 0
 174.166992188 243.166992188 166 277.333007812 166 314 c 0
 166 319.333007812 166.333007812 326.833007812 167 336.5 c 0
 167.666992188 346.166992188 169.333007812 357.333007812 172 370 c 0
 174.666992188 382.666992188 178.666992188 396.5 184 411.5 c 0
 189.333007812 426.5 196.666992188 442 206 458 c 0
 221.333007812 484.666992188 238 507.166992188 256 525.5 c 0
 274 543.833007812 293 564.333007812 313 587 c 0
 328.333007812 604.333007812 343.166992188 621.833007812 357.5 639.5 c 0
 371.833007812 657.166992188 385.666992188 674.333007812 399 691 c 1
330 574 m 0
 328.666992188 572.666992188 326 569.5 322 564.5 c 2
 308 547 l 2
 302.666992188 540.333007812 297.333007812 533.166992188 292 525.5 c 0
 286.666992188 517.833007812 282 510.666992188 278 504 c 0
 275.333007812 500 270 488.333007812 262 469 c 0
 254 449.666992188 250 426.333007812 250 399 c 0
 250 375 253.5 352.833007812 260.5 332.5 c 0
 267.5 312.166992188 275.5 294.166992188 284.5 278.5 c 0
 293.5 262.833007812 302.333007812 250 311 240 c 0
 319.666992188 230 325.666992188 223 329 219 c 0
 335.666992188 211.666992188 342.333007812 204.666992188 349 198 c 0
 355.666992188 191.333007812 362.666992188 185 370 179 c 0
 381.333007812 169 394.666992188 158.5 410 147.5 c 0
 425.333007812 136.5 445 123.666992188 469 109 c 1
 475 115.666992188 480.833007812 122.333007812 486.5 129 c 0
 492.166992188 135.666992188 497.666992188 142.666992188 503 150 c 0
 507 155.333007812 511.833007812 162.666992188 517.5 172 c 0
 523.166992188 181.333007812 528.666992188 192.333007812 534 205 c 0
 539.333007812 217.666992188 543.833007812 231.333007812 547.5 246 c 0
 551.166992188 260.666992188 553 276 553 292 c 0
 553 296.666992188 552.5 303.5 551.5 312.5 c 0
 550.5 321.5 548.333007812 332 545 344 c 0
 536.333007812 376.666992188 523.833007812 402.666992188 507.5 422 c 0
 491.166992188 441.333007812 475.666992188 457.666992188 461 471 c 0
 451.666992188 479.666992188 442.666992188 487.833007812 434 495.5 c 0
 425.333007812 503.166992188 416 511 406 519 c 0
 396 527 385 535.333007812 373 544 c 0
 361 552.666992188 346.666992188 562.666992188 330 574 c 0
EndSplineSet
Validated: 524289
EndChar

StartChar: one
Encoding: 49 49 9
Width: 800
GlyphClass: 2
Flags: HMW
HStem: 642 18<308 312>
VStem: 367 108<211 516 234 516 234 534>
LayerCount: 2
Fore
SplineSet
556 721 m 1
 563 699 l 1
 553.666992188 693.666992188 544.833007812 688.333007812 536.5 683 c 0
 528.166992188 677.666992188 519.666992188 670 511 660 c 0
 495 641.333007812 485.333007812 619.833007812 482 595.5 c 0
 478.666992188 571.166992188 476.333007812 544.666992188 475 516 c 2
 475 234 l 2
 474.333007812 208 476.166992188 189 480.5 177 c 0
 484.833007812 165 492 154.666992188 502 146 c 0
 510 140 518.5 134.5 527.5 129.5 c 0
 536.5 124.5 545.333007812 120 554 116 c 1
 550.666992188 116 548.166992188 116.166992188 546.5 116.5 c 0
 544.833007812 116.833007812 541.333007812 116.333007812 536 115 c 0
 532.666992188 115 527 114.166992188 519 112.5 c 0
 511 110.833007812 501.833007812 108.666992188 491.5 106 c 0
 481.166992188 103.333007812 470 100.166992188 458 96.5 c 0
 446 92.8330078125 434 88.6669921875 422 84 c 0
 412.666992188 80.6669921875 403.833007812 76.8330078125 395.5 72.5 c 0
 387.166992188 68.1669921875 378.333007812 63.6669921875 369 59 c 0
 349.666992188 49 330.666992188 38 312 26 c 0
 291.333007812 14 270.666992188 0.3330078125 250 -15 c 1
 237 5 l 1
 256.333007812 19.6669921875 275 34.1669921875 293 48.5 c 0
 311 62.8330078125 326 80.6669921875 338 102 c 0
 342.666992188 110 346.666992188 118 350 126 c 0
 353.333007812 134 356.666992188 144.666992188 360 158 c 0
 360.666992188 162.666992188 361.5 166.666992188 362.5 170 c 0
 363.5 173.333007812 364.166992188 177 364.5 181 c 0
 364.833007812 185 365.333007812 189.666992188 366 195 c 0
 366.666992188 200.333007812 367 207 367 215 c 2
 367 534 l 2
 367 540.666992188 366.833007812 548.333007812 366.5 557 c 0
 366.166992188 565.666992188 365.333007812 574.333007812 364 583 c 0
 362.666992188 591.666992188 360.666992188 599.833007812 358 607.5 c 0
 355.333007812 615.166992188 351.666992188 621.333007812 347 626 c 0
 339.666992188 633.333007812 332.166992188 637.666992188 324.5 639 c 0
 316.833007812 640.333007812 311.333007812 641.333007812 308 642 c 2
 309 660 l 1
 315 660 321 659.833007812 327 659.5 c 0
 333 659.166992188 339 659.333007812 345 660 c 0
 358.333007812 660.666992188 371.666992188 662.333007812 385 665 c 0
 398.333007812 667.666992188 413.166992188 671.5 429.5 676.5 c 0
 445.833007812 681.5 464.166992188 687.666992188 484.5 695 c 0
 504.833007812 702.333007812 528.666992188 711 556 721 c 1
EndSplineSet
Validated: 524321
EndChar

StartChar: two
Encoding: 50 50 10
Width: 800
GlyphClass: 2
Flags: HMW
HStem: 57 111<319.333 361>
VStem: 493 111<410.667 469>
LayerCount: 2
Fore
SplineSet
633 225 m 1
 652 211 l 1
 646 203 640.166992188 194.833007812 634.5 186.5 c 0
 628.833007812 178.166992188 623.333007812 169.666992188 618 161 c 0
 610 149.666992188 602.5 138.166992188 595.5 126.5 c 0
 588.5 114.833007812 581.333007812 103.333007812 574 92 c 0
 568.666992188 82.6669921875 563.666992188 73.8330078125 559 65.5 c 0
 554.333007812 57.1669921875 549.666992188 48.6669921875 545 40 c 0
 541.666992188 32.6669921875 538.5 25.1669921875 535.5 17.5 c 0
 532.5 9.8330078125 529.333007812 2 526 -6 c 1
 516.666992188 -0.6669921875 507.666992188 4.3330078125 499 9 c 0
 490.333007812 13.6669921875 481.333007812 18.3330078125 472 23 c 0
 441.333007812 37.6669921875 413.5 47 388.5 51 c 0
 363.5 55 345.666992188 57 335 57 c 0
 303.666992188 57 275 51.3330078125 249 40 c 0
 223 28.6669921875 194.666992188 14.3330078125 164 -3 c 1
 148 8 l 1
 152.666992188 16 157.5 24.1669921875 162.5 32.5 c 0
 167.5 40.8330078125 172.666992188 49 178 57 c 0
 179.333007812 59 182.5 63.8330078125 187.5 71.5 c 0
 192.5 79.1669921875 198.833007812 88.1669921875 206.5 98.5 c 0
 214.166992188 108.833007812 222.333007812 119.833007812 231 131.5 c 0
 239.666992188 143.166992188 248.333007812 154 257 164 c 0
 271 180.666992188 285.333007812 196.166992188 300 210.5 c 0
 314.666992188 224.833007812 328.5 237.833007812 341.5 249.5 c 0
 354.5 261.166992188 366.333007812 271 377 279 c 0
 387.666992188 287 396 293.333007812 402 298 c 0
 407.333007812 302.666992188 412.833007812 307 418.5 311 c 0
 424.166992188 315 429.666992188 319.333007812 435 324 c 0
 455 340 469.666992188 355.333007812 479 370 c 0
 488.333007812 384.666992188 493 401.333007812 493 420 c 0
 493 424.666992188 492.333007812 431.166992188 491 439.5 c 0
 489.666992188 447.833007812 485.666992188 457.666992188 479 469 c 0
 463.666992188 495 441.5 514 412.5 526 c 0
 383.5 538 354 544 324 544 c 0
 311.333007812 544 294.666992188 541.833007812 274 537.5 c 0
 253.333007812 533.166992188 231 523.333007812 207 508 c 0
 201 504 195 499.833007812 189 495.5 c 0
 183 491.166992188 177 486.666992188 171 482 c 1
 154 499 l 1
 170.666992188 516.333007812 187.166992188 533.666992188 203.5 551 c 0
 219.833007812 568.333007812 235.666992188 586 251 604 c 0
 266.333007812 621.333007812 281 639 295 657 c 0
 309 675 323.333007812 693 338 711 c 1
 339.333007812 703 341 696 343 690 c 0
 345 684 349.666992188 677.666992188 357 671 c 0
 368.333007812 660.333007812 380.666992188 653.333007812 394 650 c 0
 407.333007812 646.666992188 420.666992188 642.666992188 434 638 c 0
 438 636.666992188 444 634.333007812 452 631 c 0
 460 627.666992188 468.833007812 623.666992188 478.5 619 c 0
 488.166992188 614.333007812 498.5 608.666992188 509.5 602 c 0
 520.5 595.333007812 531 587.666992188 541 579 c 0
 547 573.666992188 553.666992188 567.333007812 561 560 c 0
 568.333007812 552.666992188 575.166992188 544 581.5 534 c 0
 587.833007812 524 593.166992188 513 597.5 501 c 0
 601.833007812 489 604 476 604 462 c 0
 604 440 599.166992188 421.833007812 589.5 407.5 c 0
 579.833007812 393.166992188 570.666992188 381.666992188 562 373 c 0
 542.666992188 353.666992188 521.833007812 336.666992188 499.5 322 c 0
 477.166992188 307.333007812 454.666992188 292.666992188 432 278 c 0
 406 260.666992188 384 245.5 366 232.5 c 0
 348 219.5 334.333007812 209 325 201 c 0
 319 195.666992188 313.333007812 190.333007812 308 185 c 0
 302.666992188 179.666992188 295.333007812 171.333007812 286 160 c 1
 297.333007812 162 308.833007812 163.833007812 320.5 165.5 c 0
 332.166992188 167.166992188 344 168 356 168 c 0
 366 168 380.333007812 167 399 165 c 0
 417.666992188 163 439.666992188 159 465 153 c 0
 476.333007812 150.333007812 486.833007812 147.666992188 496.5 145 c 0
 506.166992188 142.333007812 516.666992188 141 528 141 c 0
 540.666992188 141 551.666992188 143 561 147 c 0
 570.333007812 151 578.166992188 155.833007812 584.5 161.5 c 0
 590.833007812 167.166992188 596.166992188 173.166992188 600.5 179.5 c 0
 604.833007812 185.833007812 609 191.666992188 613 197 c 0
 616.333007812 201.666992188 619.666992188 206.166992188 623 210.5 c 0
 626.333007812 214.833007812 629.666992188 219.666992188 633 225 c 1
EndSplineSet
Validated: 524289
EndChar

StartChar: three
Encoding: 51 51 11
Width: 800
GlyphClass: 2
Flags: HMW
HStem: -20 55
VStem: 453.5 84<482.667 553.333> 483.5 102<179.667 261.333>
LayerCount: 2
Fore
SplineSet
271.5 298 m 2xc0
 262.5 318 l 1
 271.833007812 323.333007812 280.833007812 328.166992188 289.5 332.5 c 0
 298.166992188 336.833007812 307.166992188 341.666992188 316.5 347 c 0
 324.5 351 332.5 355.166992188 340.5 359.5 c 0
 348.5 363.833007812 356.5 368.333007812 364.5 373 c 0
 380.5 382.333007812 394.333007812 391.666992188 406 401 c 0
 417.666992188 410.333007812 426.5 418.333007812 432.5 425 c 0
 442.5 437.666992188 448.5 449.333007812 450.5 460 c 0
 452.5 470.666992188 453.5 479.333007812 453.5 486 c 0
 453.5 499.333007812 449.166992188 514.166992188 440.5 530.5 c 0
 431.833007812 546.833007812 420.166992188 560 405.5 570 c 0
 398.166992188 575.333007812 390 579.833007812 381 583.5 c 0
 372 587.166992188 361.833007812 589 350.5 589 c 0
 340.5 589 329.5 587.333007812 317.5 584 c 0
 311.5 582 305.666992188 580 300 578 c 0
 294.333007812 576 288.166992188 573 281.5 569 c 0
 274.833007812 565 267.333007812 560.166992188 259 554.5 c 0
 250.666992188 548.833007812 240.833007812 541.666992188 229.5 533 c 1
 214.5 552 l 1
 232.5 566.666992188 247.666992188 579.5 260 590.5 c 0
 272.333007812 601.5 283.833007812 612.5 294.5 623.5 c 0
 305.166992188 634.5 315.666992188 646.5 326 659.5 c 0
 336.333007812 672.5 348.5 688.333007812 362.5 707 c 1
 383.166992188 701.666992188 401.333007812 696.166992188 417 690.5 c 0
 432.666992188 684.833007812 449.166992188 676.333007812 466.5 665 c 0
 486.5 651.666992188 501.166992188 638.166992188 510.5 624.5 c 0
 519.833007812 610.833007812 526.166992188 599.333007812 529.5 590 c 0
 534.833007812 576.666992188 537.5 561.666992188 537.5 545 c 0
 537.5 536.333007812 536.666992188 528.5 535 521.5 c 0
 533.333007812 514.5 530 506.666992188 525 498 c 0
 520 489.333007812 513 479.666992188 504 469 c 0
 495 458.333007812 483.166992188 445 468.5 429 c 1
 483.166992188 421.666992188 497.833007812 412.833007812 512.5 402.5 c 0
 527.166992188 392.166992188 540.5 378.333007812 552.5 361 c 0
 559.833007812 351 567.166992188 336.333007812 574.5 317 c 0
 581.833007812 297.666992188 585.5 274.666992188 585.5 248 c 0xa0
 585.5 236.666992188 583.666992188 220.5 580 199.5 c 0
 576.333007812 178.5 565.5 154.333007812 547.5 127 c 0
 546.166992188 123.666992188 542.333007812 117.833007812 536 109.5 c 0
 529.666992188 101.166992188 522.166992188 92.6669921875 513.5 84 c 0
 504.166992188 74.6669921875 494.666992188 66.3330078125 485 59 c 0
 475.333007812 51.6669921875 469.166992188 47 466.5 45 c 0
 459.166992188 39.6669921875 447 31.1669921875 430 19.5 c 0
 413 7.8330078125 390.166992188 -2.3330078125 361.5 -11 c 0
 358.166992188 -12.3330078125 350.833007812 -14.1669921875 339.5 -16.5 c 0
 328.166992188 -18.8330078125 316.5 -20 304.5 -20 c 0
 287.166992188 -20 273 -14.1669921875 262 -2.5 c 0
 251 9.1669921875 245.5 23.3330078125 245.5 40 c 0
 245.5 43.3330078125 246 48 247 54 c 0
 248 60 251.833007812 66.6669921875 258.5 74 c 0
 261.833007812 78 266.333007812 82.1669921875 272 86.5 c 0
 277.666992188 90.8330078125 285.166992188 93 294.5 93 c 0
 307.166992188 93 316.5 89.5 322.5 82.5 c 0
 328.5 75.5 332.166992188 69.6669921875 333.5 65 c 0
 334.833007812 61.6669921875 336 58.3330078125 337 55 c 0
 338 51.6669921875 339.833007812 48.5 342.5 45.5 c 0
 345.166992188 42.5 348.666992188 40 353 38 c 0
 357.333007812 36 363.166992188 35 370.5 35 c 0
 372.5 35 374.833007812 35.1669921875 377.5 35.5 c 0
 380.166992188 35.8330078125 383.833007812 37 388.5 39 c 0
 395.166992188 41.6669921875 404 47.3330078125 415 56 c 0
 426 64.6669921875 438.166992188 77.6669921875 451.5 95 c 0
 460.833007812 106.333007812 468.5 119.166992188 474.5 133.5 c 0
 480.5 147.833007812 483.5 167.333007812 483.5 192 c 0
 483.5 199.333007812 482.5 209.833007812 480.5 223.5 c 0
 478.5 237.166992188 471.166992188 253 458.5 271 c 2
 444.5 288.5 l 2
 437.833007812 296.833007812 428.166992188 304.666992188 415.5 312 c 0
 406.166992188 317.333007812 397.666992188 320.833007812 390 322.5 c 0
 382.333007812 324.166992188 374.833007812 325 367.5 325 c 0
 357.5 325 347.5 323.833007812 337.5 321.5 c 0
 327.5 319.166992188 318.166992188 316.5 309.5 313.5 c 0
 300.833007812 310.5 293.166992188 307.5 286.5 304.5 c 0
 279.833007812 301.5 274.833007812 299.333007812 271.5 298 c 2xc0
EndSplineSet
Validated: 524289
EndChar

StartChar: four
Encoding: 52 52 12
Width: 800
GlyphClass: 2
Flags: HMW
HStem: 692 8
VStem: 449 105<147 281 150 281 234 363 234 367 234 656>
LayerCount: 2
Fore
SplineSet
452 700 m 1
 649 700 l 1
 643.666992188 698.666992188 636.166992188 696 626.5 692 c 0
 616.833007812 688 606 679.333007812 594 666 c 0
 585.333007812 656.666992188 578.5 647.333007812 573.5 638 c 0
 568.5 628.666992188 564.5 617.666992188 561.5 605 c 0
 558.5 592.333007812 556.333007812 577.333007812 555 560 c 0
 553.666992188 542.666992188 553 521.666992188 553 497 c 2
 554 367 l 1
 562.666992188 369.666992188 571 372.166992188 579 374.5 c 0
 587 376.833007812 594.5 380 601.5 384 c 0
 608.5 388 615.5 393.166992188 622.5 399.5 c 0
 629.5 405.833007812 636.666992188 413.666992188 644 423 c 1
 642.666992188 408.333007812 641.333007812 393.833007812 640 379.5 c 0
 638.666992188 365.166992188 637.666992188 351.333007812 637 338 c 0
 636.333007812 327.333007812 636.166992188 317.5 636.5 308.5 c 0
 636.833007812 299.5 637 290.333007812 637 281 c 1
 554 281 l 1
 554 234 l 2
 554 220.666992188 554.5 208.833007812 555.5 198.5 c 0
 556.5 188.166992188 558.5 178.5 561.5 169.5 c 0
 564.5 160.5 568.666992188 151.333007812 574 142 c 0
 581.333007812 130.666992188 589 122.5 597 117.5 c 0
 605 112.5 615.666992188 108 629 104 c 1
 616.333007812 102 600.5 99.1669921875 581.5 95.5 c 0
 562.5 91.8330078125 538 83.6669921875 508 71 c 0
 492.666992188 63.6669921875 477.333007812 56 462 48 c 0
 452.666992188 42.6669921875 443.166992188 37 433.5 31 c 0
 423.833007812 25 414.333007812 19.3330078125 405 14 c 0
 393.666992188 7.3330078125 382.666992188 1.6669921875 372 -3 c 0
 361.333007812 -7.6669921875 350.333007812 -12.6669921875 339 -18 c 1
 329 2 l 1
 358.333007812 16 379.5 28.5 392.5 39.5 c 0
 405.5 50.5 416.666992188 63.6669921875 426 79 c 0
 428.666992188 83 432.333007812 89.3330078125 437 98 c 0
 441.666992188 106.666992188 445 117.666992188 447 131 c 0
 448.333007812 137.666992188 449 144 449 150 c 2
 449 169 l 1
 448 281 l 1
 151 281 l 1
 201 351.666992188 251 421.5 301 490.5 c 0
 351 559.5 401.333007812 629.333007812 452 700 c 1
449 656 m 1
 237 363 l 1
 449 363 l 1
 449 656 l 1
EndSplineSet
Validated: 524289
EndChar

StartChar: five
Encoding: 53 53 13
Width: 800
GlyphClass: 2
Flags: HMW
HStem: -3 21<266 272> 578 108<345 519 519 519>
VStem: 440 89<199.333 264.667>
LayerCount: 2
Fore
SplineSet
538 719 m 1
 560 713 l 1
 556 701 551.833007812 689 547.5 677 c 0
 543.166992188 665 539.333007812 653 536 641 c 0
 532.666992188 630.333007812 529.833007812 619.833007812 527.5 609.5 c 0
 525.166992188 599.166992188 522.333007812 588.666992188 519 578 c 1
 345 578 l 2
 335 578 325.666992188 577.166992188 317 575.5 c 0
 308.333007812 573.833007812 300.666992188 568.666992188 294 560 c 0
 292 558 290 555 288 551 c 0
 286 547 285 541.333007812 285 534 c 0
 285 532 285.333007812 529 286 525 c 0
 286.666992188 521 288.333007812 517 291 513 c 0
 295.666992188 505.666992188 303.666992188 499.833007812 315 495.5 c 0
 326.333007812 491.166992188 340.666992188 485 358 477 c 0
 379.333007812 466.333007812 398.333007812 455.5 415 444.5 c 0
 431.666992188 433.5 441.666992188 426.666992188 445 424 c 0
 452.333007812 418.666992188 458.666992188 413.333007812 464 408 c 2
 476 396 l 2
 485.333007812 384.666992188 494 373 502 361 c 0
 510 349 516.666992188 333.333007812 522 314 c 0
 525.333007812 302.666992188 527.333007812 292.166992188 528 282.5 c 0
 528.666992188 272.833007812 529 266.333007812 529 263 c 0
 529 255.666992188 527.833007812 243.666992188 525.5 227 c 0
 523.166992188 210.333007812 517.666992188 192 509 172 c 0
 507.666992188 168.666992188 505 163.333007812 501 156 c 0
 497 148.666992188 492 140.166992188 486 130.5 c 0
 480 120.833007812 472.5 110.833007812 463.5 100.5 c 0
 454.5 90.1669921875 444.333007812 80 433 70 c 0
 417 56.6669921875 400.166992188 45.5 382.5 36.5 c 0
 364.833007812 27.5 348.5 20.1669921875 333.5 14.5 c 0
 318.5 8.8330078125 305.5 4.6669921875 294.5 2 c 0
 283.5 -0.6669921875 276 -2.3330078125 272 -3 c 1
 266 18 l 1
 274.666992188 20.6669921875 283.333007812 23.5 292 26.5 c 0
 300.666992188 29.5 313.666992188 35.6669921875 331 45 c 0
 335 47.6669921875 339 50 343 52 c 0
 347 54 350.666992188 56.3330078125 354 59 c 0
 359.333007812 62.3330078125 368 69.1669921875 380 79.5 c 0
 392 89.8330078125 403 103 413 119 c 0
 418.333007812 127 424.166992188 138.833007812 430.5 154.5 c 0
 436.833007812 170.166992188 440 188.666992188 440 210 c 0
 440 233.333007812 436 252.666992188 428 268 c 0
 420 283.333007812 412.333007812 295.666992188 405 305 c 0
 402.333007812 307.666992188 398.5 311.666992188 393.5 317 c 0
 388.5 322.333007812 382.333007812 328 375 334 c 0
 354.333007812 349.333007812 330.833007812 362.166992188 304.5 372.5 c 0
 278.166992188 382.833007812 256.666992188 391 240 397 c 1
 240.666992188 418.333007812 242.666992188 440.666992188 246 464 c 0
 249.333007812 489.333007812 254 513.5 260 536.5 c 0
 266 559.5 272.166992188 580.5 278.5 599.5 c 0
 284.833007812 618.5 291 635.333007812 297 650 c 0
 303 664.666992188 308 676.666992188 312 686 c 1
 526 686 l 1
 538 719 l 1
EndSplineSet
Validated: 524289
EndChar

StartChar: six
Encoding: 54 54 14
Width: 800
GlyphClass: 2
Flags: HMW
VStem: 196.5 83<161.333 262.667> 519.5 84<214.667 290.333>
LayerCount: 2
Fore
SplineSet
506.5 717 m 1
 568.5 665 l 1
 561.166992188 658.333007812 553.666992188 651.833007812 546 645.5 c 0
 538.333007812 639.166992188 530.833007812 632.333007812 523.5 625 c 0
 516.833007812 619.666992188 510.5 614.333007812 504.5 609 c 0
 498.5 603.666992188 492.166992188 598 485.5 592 c 0
 476.833007812 584 463 570.5 444 551.5 c 0
 425 532.5 405.166992188 510 384.5 484 c 0
 377.166992188 474.666992188 370 465.666992188 363 457 c 0
 356 448.333007812 349.833007812 439.333007812 344.5 430 c 0
 339.166992188 421.333007812 331.166992188 407.833007812 320.5 389.5 c 0
 309.833007812 371.166992188 300.833007812 350.333007812 293.5 327 c 2
 285.5 299 l 2
 281.5 285 279.5 270.333007812 279.5 255 c 0
 279.5 233.666992188 282.833007812 215.666992188 289.5 201 c 0
 296.166992188 186.333007812 302.833007812 174.333007812 309.5 165 c 0
 320.166992188 152.333007812 331.166992188 141.666992188 342.5 133 c 0
 353.833007812 124.333007812 366.5 117.833007812 380.5 113.5 c 0
 394.5 109.166992188 406.833007812 107 417.5 107 c 0
 421.5 107 429.333007812 108 441 110 c 0
 452.666992188 112 465.166992188 118.666992188 478.5 130 c 0
 480.5 131.333007812 483.833007812 134.5 488.5 139.5 c 0
 493.166992188 144.5 497.5 150.333007812 501.5 157 c 0
 504.833007812 162.333007812 508.666992188 170.833007812 513 182.5 c 0
 517.333007812 194.166992188 519.5 207.333007812 519.5 222 c 0
 519.5 223.333007812 519.333007812 226.333007812 519 231 c 0
 518.666992188 235.666992188 517.833007812 241.333007812 516.5 248 c 0
 515.166992188 254.666992188 513.5 261.666992188 511.5 269 c 0
 509.5 276.333007812 506.5 283.333007812 502.5 290 c 0
 500.5 293.333007812 498.166992188 296.833007812 495.5 300.5 c 0
 492.833007812 304.166992188 488.5 309.333007812 482.5 316 c 0
 472.5 326.666992188 462.666992188 335.166992188 453 341.5 c 0
 443.333007812 347.833007812 434.166992188 352.833007812 425.5 356.5 c 0
 416.833007812 360.166992188 409 362.833007812 402 364.5 c 0
 395 366.166992188 389.166992188 367.666992188 384.5 369 c 2
 328.5 329 l 1
 315.5 346 l 1
 345.5 370 l 2
 355.5 378 365.5 386.333007812 375.5 395 c 0
 390.166992188 407 404.666992188 419.333007812 419 432 c 0
 433.333007812 444.666992188 447.5 457.666992188 461.5 471 c 1
 468.166992188 468.333007812 474.833007812 465 481.5 461 c 0
 498.833007812 451.666992188 513.666992188 442.166992188 526 432.5 c 0
 538.333007812 422.833007812 547.5 414.666992188 553.5 408 c 0
 564.833007812 396 573.833007812 384 580.5 372 c 0
 587.166992188 360 592.166992188 348.5 595.5 337.5 c 0
 598.833007812 326.5 601 316.666992188 602 308 c 0
 603 299.333007812 603.5 292.666992188 603.5 288 c 0
 603.5 261.333007812 598.333007812 239 588 221 c 0
 577.666992188 203 567.833007812 188.333007812 558.5 177 c 0
 549.166992188 165.666992188 540.833007812 156.333007812 533.5 149 c 0
 527.5 143.666992188 520.333007812 136.833007812 512 128.5 c 2
 488.5 105 l 2
 478.5 95.6669921875 468.666992188 86.8330078125 459 78.5 c 0
 449.333007812 70.1669921875 439.5 61.6669921875 429.5 53 c 0
 418.166992188 43.6669921875 407.333007812 34.1669921875 397 24.5 c 0
 386.666992188 14.8330078125 375.833007812 5.3330078125 364.5 -4 c 0
 361.166992188 -2.6669921875 357.833007812 -1.6669921875 354.5 -1 c 2
 344.5 1 l 2
 343.833007812 1 340.333007812 2 334 4 c 0
 327.666992188 6 320 8.6669921875 311 12 c 0
 302 15.3330078125 292.166992188 20 281.5 26 c 0
 270.833007812 32 260.833007812 39 251.5 47 c 0
 248.833007812 49 244.666992188 53 239 59 c 0
 233.333007812 65 227.833007812 72 222.5 80 c 0
 214.5 93.3330078125 208.166992188 106.666992188 203.5 120 c 0
 198.833007812 133.333007812 196.5 150.666992188 196.5 172 c 0
 196.5 198.666992188 201.333007812 223 211 245 c 0
 220.666992188 267 232.5 291 246.5 317 c 0
 255.166992188 332.333007812 264 348 273 364 c 0
 282 380 291.5 395.666992188 301.5 411 c 0
 318.833007812 437.666992188 337 464.333007812 356 491 c 0
 375 517.666992188 393.833007812 544.333007812 412.5 571 c 0
 419.833007812 580.333007812 426.666992188 590 433 600 c 0
 439.333007812 610 445.833007812 619.666992188 452.5 629 c 0
 461.833007812 643.666992188 470.833007812 658.333007812 479.5 673 c 0
 488.166992188 687.666992188 497.166992188 702.333007812 506.5 717 c 1
EndSplineSet
Validated: 524289
EndChar

StartChar: seven
Encoding: 55 55 15
Width: 800
GlyphClass: 2
Flags: HMW
HStem: 539 111.5
LayerCount: 2
Fore
SplineSet
637 644 m 1
 637 640 l 1
 621.666992188 615.333007812 607.666992188 592 595 570 c 0
 582.333007812 548 570 525.666992188 558 503 c 0
 536.666992188 465 519.166992188 430.833007812 505.5 400.5 c 0
 491.833007812 370.166992188 480.666992188 342.666992188 472 318 c 0
 463.333007812 293.333007812 456.333007812 271 451 251 c 0
 445.666992188 231 441 212 437 194 c 0
 433 176.666992188 429.333007812 159.833007812 426 143.5 c 0
 422.666992188 127.166992188 419.666992188 110.333007812 417 93 c 0
 415.666992188 83.6669921875 414.333007812 74.5 413 65.5 c 0
 411.666992188 56.5 410.666992188 47.3330078125 410 38 c 0
 409.333007812 31.3330078125 408.833007812 25 408.5 19 c 0
 408.166992188 13 408 7 408 1 c 1
 296 1 l 1
 302 29 309 57.3330078125 317 86 c 0
 327 116.666992188 338 147.666992188 350 179 c 0
 360 205 369.666992188 228.833007812 379 250.5 c 0
 388.333007812 272.166992188 398.333007812 293.5 409 314.5 c 0
 419.666992188 335.5 431.333007812 357 444 379 c 0
 456.666992188 401 471.333007812 424.666992188 488 450 c 0
 497.333007812 464 506.833007812 477.833007812 516.5 491.5 c 0
 526.166992188 505.166992188 535.666992188 519 545 533 c 1
 514.333007812 534.333007812 483.666992188 535.166992188 453 535.5 c 0
 422.333007812 535.833007812 391.666992188 536.333007812 361 537 c 0
 349.666992188 537.666992188 338.5 538.166992188 327.5 538.5 c 0
 316.5 538.833007812 305.333007812 539 294 539 c 2
 275 539 l 2
 265.666992188 539 257.333007812 537.333007812 250 534 c 0
 238.666992188 529.333007812 227.833007812 520.166992188 217.5 506.5 c 0
 207.166992188 492.833007812 196 476.333007812 184 457 c 1
 163 466 l 1
 169 481.333007812 175 496.5 181 511.5 c 0
 187 526.5 193.333007812 541.666992188 200 557 c 0
 206 571 211.833007812 585.166992188 217.5 599.5 c 0
 223.166992188 613.833007812 228.333007812 628.333007812 233 643 c 0
 236.333007812 652.333007812 239 661.5 241 670.5 c 0
 243 679.5 245 688.666992188 247 698 c 1
 252.333007812 690 258.166992188 682.666992188 264.5 676 c 0
 270.833007812 669.333007812 278.666992188 664 288 660 c 0
 301.333007812 654 324.333007812 650.833007812 357 650.5 c 0
 389.666992188 650.166992188 428 649.666992188 472 649 c 0
 500 648.333007812 527.5 647.666992188 554.5 647 c 0
 581.5 646.333007812 609 645.333007812 637 644 c 1
EndSplineSet
Validated: 524289
EndChar

StartChar: eight
Encoding: 56 56 16
Width: 800
GlyphClass: 2
Flags: HMW
VStem: 171.5 76<194.333 251.667> 201.5 55<474 534.333> 510.5 86<474.667 533> 553.5 75<194.333 266>
LayerCount: 2
Fore
SplineSet
391.5 698 m 1x20
 394.833007812 694 399.333007812 689 405 683 c 0
 410.666992188 677 419.5 670.333007812 431.5 663 c 0
 448.833007812 652.333007812 467 643.666992188 486 637 c 0
 505 630.333007812 523.166992188 621.666992188 540.5 611 c 0
 546.5 607 552 602.833007812 557 598.5 c 0
 562 594.166992188 565.166992188 591.333007812 566.5 590 c 0
 573.166992188 584 579.833007812 575.666992188 586.5 565 c 0
 593.166992188 554.333007812 596.5 541 596.5 525 c 0
 596.5 507.666992188 593.166992188 494 586.5 484 c 0
 579.833007812 474 572.833007812 465.333007812 565.5 458 c 0
 552.166992188 444.666992188 538.333007812 434 524 426 c 0
 509.666992188 418 495.833007812 410.333007812 482.5 403 c 1
 509.833007812 391.666992188 531.5 381.666992188 547.5 373 c 0
 563.5 364.333007812 576.166992188 356.333007812 585.5 349 c 0
 597.5 339 607.666992188 326.333007812 616 311 c 0
 624.333007812 295.666992188 628.5 277 628.5 255 c 0x10
 628.5 231.666992188 625.166992188 212.833007812 618.5 198.5 c 0
 611.833007812 184.166992188 604.5 172 596.5 162 c 0xa0
 590.5 154 584.666992188 147.333007812 579 142 c 0
 573.333007812 136.666992188 569.166992188 133 566.5 131 c 0
 559.833007812 125 552.333007812 119.5 544 114.5 c 0
 535.666992188 109.5 527.833007812 104.666992188 520.5 100 c 0
 509.166992188 93.3330078125 498.166992188 86.6669921875 487.5 80 c 0
 476.833007812 73.3330078125 465.833007812 66.3330078125 454.5 59 c 0
 440.5 49 428.5 38.6669921875 418.5 28 c 0
 408.5 17.3330078125 397.833007812 5.3330078125 386.5 -8 c 1
 383.166992188 -4.6669921875 379.666992188 -1.3330078125 376 2 c 0
 372.333007812 5.3330078125 368.833007812 8.6669921875 365.5 12 c 0
 352.166992188 23.3330078125 336.833007812 33.3330078125 319.5 42 c 0
 302.166992188 50.6669921875 285.5 59.6669921875 269.5 69 c 0
 262.166992188 73 254.833007812 77.1669921875 247.5 81.5 c 0
 240.166992188 85.8330078125 233.5 90.3330078125 227.5 95 c 0
 222.166992188 99 216.333007812 104.166992188 210 110.5 c 0
 203.666992188 116.833007812 197.666992188 124.5 192 133.5 c 0
 186.333007812 142.5 181.5 152.666992188 177.5 164 c 0
 173.5 175.333007812 171.5 187.666992188 171.5 201 c 0
 171.5 211.666992188 172.666992188 221 175 229 c 0
 177.333007812 237 179.166992188 242.666992188 180.5 246 c 0
 189.166992188 267.333007812 202.833007812 285.666992188 221.5 301 c 0
 240.166992188 316.333007812 259.833007812 331.333007812 280.5 346 c 1
 275.166992188 349.333007812 270.166992188 352.833007812 265.5 356.5 c 0
 260.833007812 360.166992188 256.166992188 364 251.5 368 c 0
 247.5 371.333007812 242.666992188 376.166992188 237 382.5 c 0
 231.333007812 388.833007812 225.833007812 396.666992188 220.5 406 c 0
 215.166992188 415.333007812 210.666992188 426.333007812 207 439 c 0
 203.333007812 451.666992188 201.5 466 201.5 482 c 0x60
 201.5 485.333007812 201.666992188 490.333007812 202 497 c 0
 202.333007812 503.666992188 204.166992188 511.666992188 207.5 521 c 0
 212.166992188 535.666992188 220.333007812 550.666992188 232 566 c 0
 243.666992188 581.333007812 261.833007812 598 286.5 616 c 0
 291.833007812 620 298.833007812 624.833007812 307.5 630.5 c 0
 316.166992188 636.166992188 325 642 334 648 c 0
 343 654 351.666992188 660.166992188 360 666.5 c 0
 368.333007812 672.833007812 374.833007812 678.333007812 379.5 683 c 0
 384.166992188 687.666992188 388.166992188 692.666992188 391.5 698 c 1x20
305.5 603 m 0
 303.5 601.666992188 299.666992188 599 294 595 c 0
 288.333007812 591 282.833007812 586 277.5 580 c 0
 272.166992188 574 267.333007812 566.666992188 263 558 c 0
 258.666992188 549.333007812 256.5 539.666992188 256.5 529 c 0
 256.5 520.333007812 258.333007812 512.5 262 505.5 c 0
 265.666992188 498.5 268.166992188 494 269.5 492 c 0
 276.833007812 482.666992188 285.666992188 474.666992188 296 468 c 0
 306.333007812 461.333007812 317.5 455.666992188 329.5 451 c 0
 341.5 446.333007812 353.833007812 442.166992188 366.5 438.5 c 0
 379.166992188 434.833007812 391.5 431.333007812 403.5 428 c 0
 414.166992188 424.666992188 423.833007812 421.833007812 432.5 419.5 c 0
 441.166992188 417.166992188 449.5 414.333007812 457.5 411 c 1
 479.5 423.666992188 493.833007812 436 500.5 448 c 0
 507.166992188 460 510.5 470.333007812 510.5 479 c 0
 510.5 482.333007812 509.666992188 487.333007812 508 494 c 0
 506.333007812 500.666992188 501.166992188 508.333007812 492.5 517 c 0
 484.5 525 474.666992188 532.166992188 463 538.5 c 0
 451.333007812 544.833007812 439 550.666992188 426 556 c 0
 413 561.333007812 400.166992188 566.166992188 387.5 570.5 c 0
 374.833007812 574.833007812 363.5 578.666992188 353.5 582 c 0
 336.166992188 588.666992188 320.166992188 595.666992188 305.5 603 c 0
302.5 335 m 1
 290.5 325 l 2
 286.5 321.666992188 282.833007812 318.333007812 279.5 315 c 0
 271.5 307 264.166992188 296.666992188 257.5 284 c 0
 250.833007812 271.333007812 247.5 258.333007812 247.5 245 c 0x90
 247.5 235 249.666992188 226 254 218 c 0
 258.333007812 210 263.333007812 203 269 197 c 0
 274.666992188 191 280 186.333007812 285 183 c 2
 295.5 176 l 2
 306.166992188 169.333007812 316.833007812 163.666992188 327.5 159 c 0
 338.166992188 154.333007812 349.166992188 150 360.5 146 c 0
 371.833007812 142 383.833007812 137.833007812 396.5 133.5 c 0
 409.166992188 129.166992188 423.166992188 124 438.5 118 c 0
 451.166992188 113.333007812 464.5 107.666992188 478.5 101 c 1
 489.833007812 108.333007812 501.166992188 116.5 512.5 125.5 c 0
 523.833007812 134.5 533.166992188 144.666992188 540.5 156 c 0
 543.166992188 159.333007812 546 164.666992188 549 172 c 0
 552 179.333007812 553.5 188.666992188 553.5 200 c 0
 553.5 207.333007812 552.666992188 213.5 551 218.5 c 0
 549.333007812 223.5 547.833007812 227.333007812 546.5 230 c 0
 541.166992188 238 533.5 245.333007812 523.5 252 c 0
 513.5 258.666992188 502.833007812 264.5 491.5 269.5 c 0
 480.166992188 274.5 469.5 278.833007812 459.5 282.5 c 0
 449.5 286.166992188 442.166992188 288.666992188 437.5 290 c 0
 428.166992188 293.333007812 419 296.333007812 410 299 c 0
 401 301.666992188 391.833007812 304.666992188 382.5 308 c 2
 360.5 314 l 2
 353.166992188 316 345.833007812 318.333007812 338.5 321 c 0
 332.5 323 326.5 325.166992188 320.5 327.5 c 0
 314.5 329.833007812 308.5 332.333007812 302.5 335 c 1
EndSplineSet
Validated: 1
EndChar

StartChar: nine
Encoding: 57 57 17
Width: 800
GlyphClass: 2
Flags: HMW
VStem: 192 89<400.667 496.667> 533 75
LayerCount: 2
Fore
SplineSet
308 -7 m 1
 259 29 l 1
 265.666992188 36.3330078125 276.666992188 47.6669921875 292 63 c 0
 307.333007812 78.3330078125 324.833007812 96.8330078125 344.5 118.5 c 0
 364.166992188 140.166992188 384.666992188 164 406 190 c 0
 427.333007812 216 447.666992188 243 467 271 c 0
 469 273.666992188 473.5 280.333007812 480.5 291 c 0
 487.5 301.666992188 495 314.5 503 329.5 c 0
 511 344.5 518 361.166992188 524 379.5 c 0
 530 397.833007812 533 416 533 434 c 0
 533 445.333007812 530.166992188 460.833007812 524.5 480.5 c 0
 518.833007812 500.166992188 505.333007812 520 484 540 c 0
 472 551.333007812 457.166992188 561.5 439.5 570.5 c 0
 421.833007812 579.5 402.333007812 584 381 584 c 0
 371 584 362.666992188 583.166992188 356 581.5 c 0
 349.333007812 579.833007812 343.666992188 578 339 576 c 0
 326.333007812 570.666992188 313.5 560.666992188 300.5 546 c 0
 287.5 531.333007812 281 510.333007812 281 483 c 0
 281 479.666992188 281.5 472.666992188 282.5 462 c 0
 283.5 451.333007812 288.666992188 437.333007812 298 420 c 0
 306 405.333007812 314.833007812 393.333007812 324.5 384 c 0
 334.166992188 374.666992188 344.333007812 366.833007812 355 360.5 c 0
 365.666992188 354.166992188 376.333007812 349.166992188 387 345.5 c 0
 397.666992188 341.833007812 408 338.333007812 418 335 c 1
 471 376 l 1
 485 358 l 1
 463.666992188 340.666992188 442.666992188 322.666992188 422 304 c 0
 409.333007812 292.666992188 396.833007812 281.166992188 384.5 269.5 c 0
 372.166992188 257.833007812 359.666992188 245.666992188 347 233 c 1
 339.666992188 236.333007812 328.166992188 242 312.5 250 c 0
 296.833007812 258 280.333007812 268.666992188 263 282 c 0
 259.666992188 284 255.333007812 287.333007812 250 292 c 0
 244.666992188 296.666992188 239.666992188 301.333007812 235 306 c 0
 224.333007812 317.333007812 216.333007812 327.666992188 211 337 c 0
 207.666992188 343 203.666992188 352.333007812 199 365 c 0
 194.333007812 377.666992188 192 392.333007812 192 409 c 0
 192 415.666992188 192.666992188 423.5 194 432.5 c 0
 195.333007812 441.5 198.333007812 451.333007812 203 462 c 0
 207.666992188 472.666992188 214.166992188 484.333007812 222.5 497 c 0
 230.833007812 509.666992188 242.333007812 523.666992188 257 539 c 0
 264.333007812 546.333007812 271.833007812 553.666992188 279.5 561 c 0
 287.166992188 568.333007812 294.666992188 575.333007812 302 582 c 0
 309.333007812 588.666992188 317.333007812 595.333007812 326 602 c 0
 334.666992188 608.666992188 343 615.333007812 351 622 c 0
 358.333007812 627.333007812 365.333007812 632.833007812 372 638.5 c 0
 378.666992188 644.166992188 385.666992188 650 393 656 c 0
 397.666992188 660 402.166992188 663.833007812 406.5 667.5 c 0
 410.833007812 671.166992188 415.333007812 674.666992188 420 678 c 0
 424 681.333007812 428 685 432 689 c 0
 436 693 440.333007812 697 445 701 c 1
 462.333007812 691.666992188 479.333007812 681.833007812 496 671.5 c 0
 512.666992188 661.166992188 529.333007812 649.333007812 546 636 c 0
 563.333007812 622.666992188 578 607.333007812 590 590 c 0
 602 572.666992188 608 550.666992188 608 524 c 0
 608 514.666992188 607.166992188 503 605.5 489 c 0
 603.833007812 475 600.333007812 461.333007812 595 448 c 0
 591 436.666992188 584.833007812 422.666992188 576.5 406 c 0
 568.166992188 389.333007812 559 372.333007812 549 355 c 0
 539 337.666992188 528.833007812 320.666992188 518.5 304 c 0
 508.166992188 287.333007812 499.333007812 273.333007812 492 262 c 2
 452 204 l 2
 438.666992188 184.666992188 425 165 411 145 c 0
 401 129.666992188 390.833007812 114.666992188 380.5 100 c 0
 370.166992188 85.3330078125 360.333007812 70.6669921875 351 56 c 0
 343.666992188 46.6669921875 336.666992188 36.6669921875 330 26 c 0
 323.333007812 15.3330078125 316 4.3330078125 308 -7 c 1
EndSplineSet
Validated: 524289
EndChar

StartChar: colon
Encoding: 58 58 18
Width: 800
GlyphClass: 2
Flags: MW
HStem: -119.857 114.295
VStem: 23.3486 105.303 347.349 105.303 671.349 105.303
CounterMasks: 1 70
LayerCount: 2
Fore
SplineSet
672.7890625 -76.123046875 m 0
 671.348632812 -74.6826171875 671.348632812 -73.2421875 671.348632812 -71.8017578125 c 0
 671.348632812 -55.962890625 708.7890625 -5.5625 720.30859375 -5.5625 c 2
 720.30859375 -5.5625 721.322265625 -5.20703125 721.749023438 -5.5625 c 0
 739.028320312 -19.962890625 757.749023438 -34.36328125 775.028320312 -48.7626953125 c 0
 776.143554688 -49.73828125 776.651367188 -51.25390625 776.651367188 -53.189453125 c 0
 776.651367188 -70.23828125 737.220703125 -119.857421875 726.2578125 -119.857421875 c 0
 725.611328125 -119.857421875 725.0625 -119.684570312 724.627929688 -119.322265625 c 0
 707.348632812 -104.922851562 690.068359375 -90.5224609375 672.7890625 -76.123046875 c 0
348.7890625 -76.123046875 m 0
 347.348632812 -74.6826171875 347.348632812 -73.2421875 347.348632812 -71.8017578125 c 0
 347.348632812 -55.962890625 384.7890625 -5.5625 396.30859375 -5.5625 c 2
 396.30859375 -5.5625 397.322265625 -5.20703125 397.749023438 -5.5625 c 0
 415.028320312 -19.962890625 433.749023438 -34.36328125 451.028320312 -48.7626953125 c 0
 452.143554688 -49.73828125 452.651367188 -51.25390625 452.651367188 -53.189453125 c 0
 452.651367188 -70.23828125 413.220703125 -119.857421875 402.2578125 -119.857421875 c 0
 401.611328125 -119.857421875 401.0625 -119.684570312 400.627929688 -119.322265625 c 0
 383.348632812 -104.922851562 366.068359375 -90.5224609375 348.7890625 -76.123046875 c 0
24.7890625 -76.123046875 m 0
 23.3486328125 -74.6826171875 23.3486328125 -73.2421875 23.3486328125 -71.8017578125 c 0
 23.3486328125 -55.962890625 60.7890625 -5.5625 72.30859375 -5.5625 c 2
 72.30859375 -5.5625 73.322265625 -5.20703125 73.7490234375 -5.5625 c 0
 91.0283203125 -19.962890625 109.749023438 -34.36328125 127.028320312 -48.7626953125 c 0
 128.143554688 -49.73828125 128.651367188 -51.25390625 128.651367188 -53.189453125 c 0
 128.651367188 -70.23828125 89.220703125 -119.857421875 78.2578125 -119.857421875 c 0
 77.611328125 -119.857421875 77.0625 -119.684570312 76.6279296875 -119.322265625 c 0
 59.3486328125 -104.922851562 42.068359375 -90.5224609375 24.7890625 -76.123046875 c 0
EndSplineSet
Validated: 1
EndChar

StartChar: semicolon
Encoding: 59 59 19
Width: 800
GlyphClass: 2
Flags: MW
HStem: -119.857 114.295
VStem: 185.349 105.303 509.349 105.303
LayerCount: 2
Fore
SplineSet
510.7890625 -76.123046875 m 0
 509.348632812 -74.6826171875 509.348632812 -73.2421875 509.348632812 -71.8017578125 c 0
 509.348632812 -55.962890625 546.7890625 -5.5625 558.30859375 -5.5625 c 2
 558.30859375 -5.5625 559.322265625 -5.20703125 559.749023438 -5.5625 c 0
 577.028320312 -19.962890625 595.749023438 -34.36328125 613.028320312 -48.7626953125 c 0
 614.143554688 -49.73828125 614.651367188 -51.25390625 614.651367188 -53.189453125 c 0
 614.651367188 -70.23828125 575.220703125 -119.857421875 564.2578125 -119.857421875 c 0
 563.611328125 -119.857421875 563.0625 -119.684570312 562.627929688 -119.322265625 c 0
 545.348632812 -104.922851562 528.068359375 -90.5224609375 510.7890625 -76.123046875 c 0
186.7890625 -76.123046875 m 0
 185.348632812 -74.6826171875 185.348632812 -73.2421875 185.348632812 -71.8017578125 c 0
 185.348632812 -55.962890625 222.7890625 -5.5625 234.30859375 -5.5625 c 2
 234.30859375 -5.5625 235.322265625 -5.20703125 235.749023438 -5.5625 c 0
 253.028320312 -19.962890625 271.749023438 -34.36328125 289.028320312 -48.7626953125 c 0
 290.143554688 -49.73828125 290.651367188 -51.25390625 290.651367188 -53.189453125 c 0
 290.651367188 -70.23828125 251.220703125 -119.857421875 240.2578125 -119.857421875 c 0
 239.611328125 -119.857421875 239.0625 -119.684570312 238.627929688 -119.322265625 c 0
 221.348632812 -104.922851562 204.068359375 -90.5224609375 186.7890625 -76.123046875 c 0
EndSplineSet
Validated: 1
EndChar

StartChar: equal
Encoding: 61 61 20
Width: 0
GlyphClass: 4
Flags: MW
HStem: 410 33<-391.759 -367.657 -368.657 -367.657 -367.657 -348.657 -348.657 348.723 348.723 367.723 367.723 368.723> 476 33<-391.759 -367.657 -368.657 -367.657 -367.657 -348.657 -348.657 348.723 348.723 367.723 367.723 368.723>
AnchorPoint: "Anchor-4" 0 542 basemark 0
AnchorPoint: "Anchor-4" 0 410 mark 0
AnchorPoint: "Anchor-2" 0 400 mark 0
LayerCount: 2
Fore
SplineSet
-388.657226562 476 m 2
 -394.861328125 476 -377.657226562 501 -375.657226562 503 c 0
 -374.657226562 504 -370.657226562 509 -368.657226562 509 c 2
 -367.657226562 509 l 1
 -348.657226562 509 l 1
 388.72265625 509 l 2
 394.72265625 509 377.72265625 485 375.72265625 483 c 0
 374.72265625 482 370.72265625 476 368.72265625 476 c 2
 367.72265625 476 l 1
 348.72265625 476 l 1
 -388.657226562 476 l 2
-388.657226562 410 m 2
 -394.861328125 410 -377.657226562 435 -375.657226562 437 c 0
 -374.657226562 438 -370.657226562 443 -368.657226562 443 c 2
 -367.657226562 443 l 1
 -348.657226562 443 l 1
 388.72265625 443 l 2
 394.72265625 443 377.72265625 419 375.72265625 417 c 0
 374.72265625 416 370.72265625 410 368.72265625 410 c 2
 367.72265625 410 l 1
 348.72265625 410 l 1
 -388.657226562 410 l 2
EndSplineSet
Validated: 1048577
EndChar

StartChar: at
Encoding: 64 64 21
Width: 800
GlyphClass: 2
Flags: MW
HStem: 478 112<430.9 1144 430.9 1144 429.78 1144> 688 112<431.881 1144 367 1144 431.881 431.881>
VStem: 367 62.78 377 46<-200 -200>
LayerCount: 2
Fore
SplineSet
1144 800 m 1xe0
 1144.00097656 688 l 1
 431.880859375 688 l 1
 430.900390625 590 l 1
 1144 590 l 1
 1144 478 l 1
 429.780273438 478 l 1xe0
 423 -200 l 1
 377 -200 l 1xd0
 367 800 l 1
 1144 800 l 1xe0
EndSplineSet
Validated: 1
EndChar

StartChar: A
Encoding: 65 65 22
Width: 800
GlyphClass: 2
Flags: MW
HStem: -5 21G<538.5 538.5> 692 20G
VStem: -17.5 59<517.333 588.333> 283.5 115<363.333 519> 465.5 122<191.333 211 211 540 540 542>
AnchorPoint: "Anchor-2" 400 550 basechar 0
AnchorPoint: "Anchor-1" 400 0 basechar 0
LayerCount: 2
Fore
SplineSet
400.5 82 m 1
 465.5 124 l 1
 465.5 540 l 2
 465.5 565.333007812 472.833007812 585.333007812 487.5 600 c 0
 491.5 604 501.833007812 611.666992188 518.5 623 c 0
 555.166992188 647.666992188 606.166992188 677.333007812 671.5 712 c 1
 662.166992188 704.666992188 645.833007812 687 622.5 659 c 0
 599.166992188 626.333007812 587.5 587.333007812 587.5 542 c 2
 587.5 211 l 2
 587.5 171.666992188 594.166992188 142 607.5 122 c 0
 614.833007812 111.333007812 622.833007812 103.666992188 631.5 99 c 0
 636.833007812 96.3330078125 643.5 95 651.5 95 c 0
 663.5 95 685.166992188 101.333007812 716.5 114 c 1
 725.5 98 l 1
 538.5 -5 l 1
 503.833007812 31.6669921875 480.833007812 67.3330078125 469.5 102 c 1
 433.5 78 380.166992188 41.3330078125 309.5 -8 c 1
 294.833007812 4 265.833007812 23.6669921875 222.5 51 c 0
 213.833007812 55.6669921875 199.5 62.3330078125 179.5 71 c 0
 146.166992188 85 108.166992188 92.6669921875 65.5 94 c 1
 86.1669921875 103.333007812 105.333007812 113.666992188 123 125 c 0
 140.666992188 136.333007812 169.166992188 159.333007812 208.5 194 c 0
 218.5 204.666992188 228.833007812 217.666992188 239.5 233 c 0
 252.166992188 251 260.833007812 266.333007812 265.5 279 c 0
 277.5 310.333007812 283.5 344.666992188 283.5 382 c 0
 283.5 434.666992188 273.833007812 479.333007812 254.5 516 c 0
 244.5 534.666992188 230.5 552.666992188 212.5 570 c 0
 182.5 598.666992188 147.166992188 613 106.5 613 c 0
 97.1669921875 613 88.1669921875 612.333007812 79.5 611 c 0
 54.1669921875 607 41.5 596.666992188 41.5 580 c 0
 41.5 576.666992188 42.1669921875 572 43.5 566 c 0
 47.5 548.666992188 59.8330078125 527 80.5 501 c 1
 4.5 472 l 1
 -10.1669921875 489.333007812 -17.5 507.666992188 -17.5 527 c 0
 -17.5 555.666992188 1.1669921875 585.333007812 38.5 616 c 0
 81.8330078125 651.333007812 131.5 680.666992188 187.5 704 c 2
 199.5 709 l 1
 235.5 704.333007812 269.166992188 691 300.5 669 c 0
 365.833007812 622.333007812 398.5 559 398.5 479 c 0
 398.5 408.333007812 368.166992188 336.333007812 307.5 263 c 0
 292.833007812 245 264.833007812 217 223.5 179 c 1
 273.5 159 332.5 126.666992188 400.5 82 c 1
EndSplineSet
Validated: 1048577
EndChar

StartChar: B
Encoding: 66 66 23
Width: 800
GlyphClass: 2
Flags: MW
HStem: -5 40<455 604.667> 126 20<43 48> 170 21<29 35> 696 20G
VStem: 334 120<407.667 492.667> 733 92<166 269.667>
AnchorPoint: "Anchor-2" 400 550 basechar 0
AnchorPoint: "Anchor-1" 400 0 basechar 0
LayerCount: 2
Fore
SplineSet
783 581 m 1
 750 554 l 2
 744.666992188 549.333007812 732.166992188 540 712.5 526 c 0
 692.833007812 512 677 501.333007812 665 494 c 0
 653 486.666992188 643.666992188 481 637 477 c 1
 734.333007812 447.666992188 795 392 819 310 c 0
 823 296 825 279.333007812 825 260 c 0
 825 192.666992188 798 133.333007812 744 82 c 0
 682.666992188 24 602.333007812 -5 503 -5 c 0
 407 -5 305.333007812 23.6669921875 198 81 c 0
 172.666992188 94.3330078125 141.666992188 109.666992188 105 127 c 0
 100.333007812 128.333007812 92.6669921875 129.666992188 82 131 c 2
 48 126 l 1
 43 146 l 1
 77 152 114.666992188 159.333007812 156 168 c 0
 190 175.333007812 222 183.333007812 252 192 c 1
 277.333007812 180.666992188 306.666992188 162.666992188 340 138 c 0
 380 108 417.333007812 85 452 69 c 0
 501.333007812 46.3330078125 547.666992188 35 591 35 c 0
 618.333007812 35 642.666992188 41 664 53 c 0
 682 63 697.333007812 78.3330078125 710 99 c 0
 725.333007812 123.666992188 733 151 733 181 c 0
 733 194.333007812 731.333007812 207 728 219 c 0
 712.666992188 273.666992188 674 318.333007812 612 353 c 0
 572.666992188 375 533.333007812 386 494 386 c 0
 476.666992188 386 454 381 426 371 c 1
 394 314.333007812 345.333007812 269.666992188 280 237 c 0
 240.666992188 217 159 194.666992188 35 170 c 1
 29 191 l 1
 75.6669921875 199 120.333007812 210 163 224 c 0
 178.333007812 229.333007812 192.666992188 235.333007812 206 242 c 0
 235.333007812 256.666992188 259.333007812 274.333007812 278 295 c 0
 315.333007812 336.333007812 334 382.333007812 334 433 c 0
 334 485.666992188 317.333007812 528 284 560 c 0
 246.666992188 596 196.666992188 614 134 614 c 0
 114.666992188 614 87.3330078125 610 52 602 c 1
 96 628 161.666992188 666 249 716 c 1
 259.666992188 714 275 710 295 704 c 0
 340.333007812 685.333007812 378 657.333007812 408 620 c 0
 416.666992188 609.333007812 427 592.666992188 439 570 c 1
 512.333007812 627.333007812 573.666992188 677.666992188 623 721 c 1
 661 675 695.666992188 640.333007812 727 617 c 0
 733.666992188 611.666992188 743.666992188 604.666992188 757 596 c 0
 759.666992188 594 768.333007812 589 783 581 c 1
525 609 m 1
 445 548 l 1
 451 521.333007812 454 500.333007812 454 485 c 0
 454 468.333007812 449 440 439 400 c 1
 452.333007812 405.333007812 473 414 501 426 c 0
 556.333007812 451.333007812 610.333007812 482.666992188 663 520 c 1
 638.333007812 539.333007812 615.666992188 557.666992188 595 575 c 0
 566.333007812 599 543 610.333007812 525 609 c 1
EndSplineSet
Validated: 1048609
EndChar

StartChar: C
Encoding: 67 67 24
Width: 800
GlyphClass: 2
Flags: MW
HStem: -6 125<330 432.667> 580 116<408.667 420.667> 696 20G
VStem: 22 78<283.333 439.667> 211 119<332 341 341 592>
AnchorPoint: "Anchor-2" 400 550 basechar 0
AnchorPoint: "Anchor-1" 400 0 basechar 0
LayerCount: 2
Fore
SplineSet
552 674 m 2xd8
 537 638 l 2
 535.666992188 633.333007812 532.666992188 626 528 616 c 0
 524.666992188 610 520.333007812 603.333007812 515 596 c 1
 474.333007812 585.333007812 437.333007812 580 404 580 c 0xd8
 382.666992188 580 358 584 330 592 c 1
 330 341 l 2
 330 323 328 290 324 242 c 1
 209 172 l 1
 218.333007812 165.333007812 239 154.666992188 271 140 c 0
 277 138 285.333007812 135 296 131 c 0
 324.666992188 123 359 119 399 119 c 0
 466.333007812 119 523.666992188 136.666992188 571 172 c 0
 583 181.333007812 593.666992188 191.333007812 603 202 c 1
 595 172 581.666992188 142.666992188 563 114 c 0
 544.333007812 85.3330078125 520.666992188 61 492 41 c 0
 447.333007812 9.6669921875 398 -6 344 -6 c 0
 316 -6 288.333007812 -2.6669921875 261 4 c 0
 185.666992188 22.6669921875 125.333007812 64 80 128 c 0
 41.3330078125 182.666992188 22 246.666992188 22 320 c 0
 22 416 50 496.333007812 106 561 c 0
 118.666992188 575.666992188 135.333007812 591.333007812 156 608 c 0
 200.666992188 644 256 680 322 716 c 1xb8
 362 702.666992188 395.333007812 696 422 696 c 0
 434.666992188 696 449.666992188 697 467 699 c 0
 497.666992188 702.333007812 531.333007812 710 568 722 c 1
 564.666992188 711.333007812 559.333007812 695.333007812 552 674 c 2xd8
211 274 m 2
 211 624 l 1
 181.666992188 603.333007812 157.333007812 579.333007812 138 552 c 0
 112.666992188 516.666992188 100 469.333007812 100 410 c 0
 100 332 120 268 160 218 c 0
 164.666992188 212 176.333007812 200.333007812 195 183 c 1
 205.666992188 207.666992188 211 238 211 274 c 2
EndSplineSet
Validated: 1048577
EndChar

StartChar: D
Encoding: 68 68 25
Width: 800
GlyphClass: 2
Flags: MW
HStem: -7 21G<104 104> 682 20G
VStem: 752 55<237 368.667>
AnchorPoint: "Anchor-2" 400 550 basechar 0
AnchorPoint: "Anchor-1" 400 0 basechar 0
LayerCount: 2
Fore
SplineSet
104 -7 m 1
 90 9 l 1
 125.333007812 39 178 84.3330078125 248 145 c 1
 246 161 242.333007812 176 237 190 c 0
 225 218 206.666992188 238.666992188 182 252 c 0
 160 264 135.333007812 270 108 270 c 0
 101.333007812 270 86.3330078125 268.333007812 63 265 c 1
 80.3330078125 317 102.333007812 360.333007812 129 395 c 0
 163.666992188 440.333007812 210 482.333007812 268 521 c 1
 258 522.333007812 229.666992188 525.333007812 183 530 c 0
 165 531.333007812 136.666992188 535.666992188 98 543 c 0
 74 549.666992188 50 561.666992188 26 579 c 1
 30.6669921875 593.666992188 38 616 48 646 c 0
 55.3330078125 664 63 682.666992188 71 702 c 1
 75.6669921875 698 84 691.666992188 96 683 c 0
 116 671 150.333007812 661.666992188 199 655 c 0
 265 648.333007812 363.333007812 636.333007812 494 619 c 0
 577.333007812 605 642.666992188 584 690 556 c 0
 704 547.333007812 718 536.333007812 732 523 c 0
 782 474.333007812 807 409.333007812 807 328 c 0
 807 306.666992188 804.666992188 286.666992188 800 268 c 0
 794 244.666992188 786.333007812 223.666992188 777 205 c 0
 759 169 733.666992188 137 701 109 c 0
 678.333007812 89.6669921875 633 62 565 26 c 0
 552.333007812 18.6669921875 532.666992188 7.6669921875 506 -7 c 1
 489.333007812 0.3330078125 471.333007812 6.6669921875 452 12 c 0
 382.666992188 31.3330078125 317.666992188 40.6669921875 257 40 c 0
 211.666992188 39.3330078125 177.333007812 34 154 24 c 0
 143.333007812 19.3330078125 126.666992188 9 104 -7 c 1
268 161 m 1
 340 223 l 1
 340 238.333007812 323.666992188 272.333007812 291 325 c 0
 273 354.333007812 259 377.666992188 249 395 c 1
 271.666992188 416.333007812 292.333007812 435 311 451 c 0
 317.666992188 456.333007812 343.333007812 476.333007812 388 511 c 1
 298 519 l 2
 294 516.333007812 288 512 280 506 c 0
 216 458 184 413.333007812 184 372 c 0
 184 366.666992188 185 361.333007812 187 356 c 0
 189.666992188 348.666992188 199.666992188 337.666992188 217 323 c 0
 253 291.666992188 271 250.666992188 271 200 c 0
 271 186 270 173 268 161 c 1
415 507 m 1
 387.666992188 485.666992188 374 464.333007812 374 443 c 0
 374 434.333007812 375.333007812 427 378 421 c 0
 380.666992188 415 399.333007812 383 434 325 c 0
 448 302.333007812 458.666992188 282 466 264 c 1
 413.333007812 240.666992188 362 209 312 169 c 1
 424 131.666992188 516.333007812 113 589 113 c 0
 632.333007812 113 667.333007812 121.666992188 694 139 c 0
 708.666992188 148.333007812 720 158.333007812 728 169 c 0
 744 190.333007812 752 219 752 255 c 0
 752 271 750.666992188 285.333007812 748 298 c 0
 744 316.666992188 739.333007812 332.666992188 734 346 c 0
 721.333007812 374 703 398.666992188 679 420 c 0
 674.333007812 424 663.666992188 431.666992188 647 443 c 0
 621.666992188 459 591.666992188 471.333007812 557 480 c 0
 528.333007812 488 481 497 415 507 c 1
EndSplineSet
Validated: 1048609
EndChar

StartChar: E
Encoding: 69 69 26
Width: 800
GlyphClass: 2
Flags: MW
HStem: -3 79<488.5 606.833> 374 92<549.5 634.5> 681 21G
VStem: 109.5 119<351.333 378 378 516 516 537.333> 315.5 113<464 517 517 533.667>
AnchorPoint: "Anchor-2" 400 550 basechar 0
AnchorPoint: "Anchor-1" 400 0 basechar 0
LayerCount: 2
Fore
SplineSet
426.5 620 m 1
 579.5 701 l 1
 617.5 676.333007812 641.5 652.666992188 651.5 630 c 0
 656.833007812 618 659.5 606 659.5 594 c 0
 659.5 576 655.166992188 560.333007812 646.5 547 c 0
 635.166992188 529 602.833007812 502 549.5 466 c 1
 678.5 466 l 1
 634.5 374 l 1
 429.5 374 l 1
 428.833007812 356.666992188 427.5 343.666992188 425.5 335 c 0
 422.833007812 317.666992188 417.833007812 305 410.5 297 c 0
 403.166992188 289 377.166992188 271.666992188 332.5 245 c 0
 317.166992188 236.333007812 294.5 223.333007812 264.5 206 c 1
 276.5 206 290.166992188 205 305.5 203 c 0
 351.5 197 403.166992188 174.333007812 460.5 135 c 0
 494.5 111.666992188 516.5 97.6669921875 526.5 93 c 0
 548.5 81.6669921875 572.166992188 76 597.5 76 c 0
 616.166992188 76 634.833007812 80.3330078125 653.5 89 c 0
 658.833007812 91 666.833007812 95.3330078125 677.5 102 c 0
 682.166992188 105.333007812 688.833007812 110.333007812 697.5 117 c 1
 707.5 99 l 1
 664.166992188 62.3330078125 623.166992188 35.3330078125 584.5 18 c 0
 553.833007812 4 525.166992188 -3 498.5 -3 c 0
 478.5 -3 459.833007812 0.1669921875 442.5 6.5 c 0
 425.166992188 12.8330078125 403.5 23.6669921875 377.5 39 c 0
 326.166992188 70.3330078125 295.166992188 89 284.5 95 c 0
 239.833007812 120.333007812 203.5 133 175.5 133 c 0
 146.833007812 133 103.5 119 45.5 91 c 1
 36.5 108 l 1
 73.8330078125 125.333007812 129.5 153.333007812 203.5 192 c 0
 224.833007812 204.666992188 239.833007812 213.666992188 248.5 219 c 0
 264.5 230.333007812 277.833007812 242 288.5 254 c 0
 306.5 274.666992188 315.5 302 315.5 336 c 2
 315.5 517 l 2
 315.5 550.333007812 314.833007812 570.666992188 313.5 578 c 0
 309.5 600.666992188 301.166992188 616 288.5 624 c 2
 282.5 628 l 1
 345.166992188 663.333007812 406.166992188 693.666992188 465.5 719 c 1
 460.166992188 709.666992188 452.833007812 696 443.5 678 c 0
 437.5 664 431.833007812 644.666992188 426.5 620 c 1
283.5 717 m 1
 292.5 700 l 2
 289.166992188 698 284.833007812 695 279.5 691 c 0
 257.5 675.666992188 244.166992188 665 239.5 659 c 0
 232.166992188 647 228.5 625.666992188 228.5 595 c 2
 228.5 378 l 2
 228.5 324.666992188 212.166992188 285 179.5 259 c 0
 157.5 241.666992188 124.5 221.666992188 80.5 199 c 0
 67.8330078125 192.333007812 43.8330078125 181 8.5 165 c 1
 0.5 183 l 1
 15.1669921875 189 38.8330078125 202 71.5 222 c 0
 86.8330078125 233.333007812 97.8330078125 247.333007812 104.5 264 c 0
 107.833007812 272.666992188 109.5 289.333007812 109.5 314 c 2
 109.5 516 l 2
 109.5 558.666992188 113.5 589.666992188 121.5 609 c 1
 156.833007812 640.333007812 210.833007812 676.333007812 283.5 717 c 1
428.5 601 m 1
 428.5 464 l 1
 521.5 464 l 1
 542.166992188 488 552.166992188 510 551.5 530 c 0
 550.833007812 550 543.5 566 529.5 578 c 0
 509.5 594.666992188 483.833007812 603 452.5 603 c 0
 443.833007812 603 435.833007812 602.333007812 428.5 601 c 1
EndSplineSet
Validated: 1048609
EndChar

StartChar: F
Encoding: 70 70 27
Width: 800
GlyphClass: 2
Flags: MW
HStem: -160 24<333.5 342.833> 370 92<431.5 543.5 431.5 431.5> 573 121 688 34<355.833 417.167>
VStem: 441.5 104<-24.3335 125>
AnchorPoint: "Anchor-2" 400 550 basechar 0
AnchorPoint: "Anchor-1" 400 0 basechar 0
LayerCount: 2
Fore
SplineSet
365.5 462 m 1xd8
 582.5 462 l 1
 543.5 370 l 1
 431.5 370 l 1
 440.833007812 356.666992188 454.5 336 472.5 308 c 0
 521.166992188 234 545.5 161 545.5 89 c 0
 545.5 33.6669921875 529.833007812 -17.6669921875 498.5 -65 c 0
 483.833007812 -87.6669921875 463.5 -107.666992188 437.5 -125 c 0
 402.833007812 -148.333007812 364.166992188 -160 321.5 -160 c 0
 267.5 -160 215.833007812 -140.333007812 166.5 -101 c 0
 136.5 -77 110.833007812 -46 89.5 -8 c 0
 86.1669921875 -2 80.8330078125 7.3330078125 73.5 20 c 0
 63.5 36 46.1669921875 49 21.5 59 c 1
 22.5 79 l 1
 76.5 75.6669921875 131.166992188 78.6669921875 186.5 88 c 1
 187.833007812 80 190.833007812 66.8330078125 195.5 48.5 c 0
 200.166992188 30.1669921875 205.833007812 12 212.5 -6 c 0
 225.833007812 -40 241.166992188 -67.6669921875 258.5 -89 c 0
 284.5 -120.333007812 315.5 -136 351.5 -136 c 0
 366.833007812 -136 381.166992188 -131.333007812 394.5 -122 c 0
 425.833007812 -100 441.5 -56.6669921875 441.5 8 c 0
 441.5 59.3330078125 428.833007812 110.666992188 403.5 162 c 0
 387.5 195.333007812 338.5 264.666992188 256.5 370 c 1
 168.5 370 l 1
 184.5 380.666992188 197.166992188 393.333007812 206.5 408 c 0
 218.5 426 226.833007812 451.333007812 231.5 484 c 0
 233.5 506 237.5 539 243.5 583 c 0
 252.833007812 631.666992188 275.5 668.333007812 311.5 693 c 0
 339.5 712.333007812 373.166992188 722 412.5 722 c 0xd8
 421.833007812 722 433.166992188 721 446.5 719 c 0
 461.833007812 715 484.166992188 709.333007812 513.5 702 c 0
 530.166992188 698 552.833007812 695.333007812 581.5 694 c 1
 576.833007812 675.333007812 574.5 657.666992188 574.5 641 c 0
 574.5 625.666992188 577.166992188 602 582.5 570 c 1
 528.5 573 l 2xe8
 507.833007812 573 486.5 570 464.5 564 c 1
 463.833007812 573.333007812 461.833007812 588.666992188 458.5 610 c 0
 453.833007812 627.333007812 445.166992188 643 432.5 657 c 0
 413.833007812 677.666992188 391.166992188 688 364.5 688 c 0
 347.166992188 688 331.5 682.333007812 317.5 671 c 0
 300.166992188 656.333007812 291.5 636 291.5 610 c 0
 291.5 579.333007812 316.166992188 530 365.5 462 c 1xd8
EndSplineSet
Validated: 1048609
EndChar

StartChar: G
Encoding: 71 71 28
Width: 800
GlyphClass: 2
Flags: MW
HStem: -2 48<419.167 534.5> 697 21G
VStem: 37.5 116<264.333 422.667> 364.5 119<345.667 373 402 477 477 477> 687.5 108<198.667 326.667> 719.5 37<665 695.333>
AnchorPoint: "Anchor-2" 400 550 basechar 0
AnchorPoint: "Anchor-1" 400 0 basechar 0
LayerCount: 2
Fore
SplineSet
483.5 488 m 2xf4
 483.5 402 l 1
 488.166992188 406 495.833007812 411.333007812 506.5 418 c 0
 517.166992188 424.666992188 533.5 435.666992188 555.5 451 c 0
 577.5 466.333007812 610.833007812 490 655.5 522 c 1
 670.166992188 515.333007812 681.5 509 689.5 503 c 0
 716.833007812 482.333007812 739.166992188 458.666992188 756.5 432 c 0xf4
 782.5 392 795.5 349.333007812 795.5 304 c 0xf8
 795.5 278.666992188 790.5 251 780.5 221 c 0
 761.833007812 167 729.833007812 121.666992188 684.5 85 c 0
 668.5 71.6669921875 649.166992188 59 626.5 47 c 0
 566.5 14.3330078125 504.5 -2 440.5 -2 c 0
 397.833007812 -2 350.5 6 298.5 22 c 0
 239.833007812 40 191.166992188 63.6669921875 152.5 93 c 0
 75.8330078125 150.333007812 37.5 221.666992188 37.5 307 c 0
 37.5 377 59.8330078125 439.333007812 104.5 494 c 0
 121.833007812 515.333007812 149.833007812 541 188.5 571 c 0
 203.166992188 582.333007812 225.166992188 598.666992188 254.5 620 c 0
 275.833007812 634 325.833007812 666.333007812 404.5 717 c 1
 443.166992188 704.333007812 500.833007812 687 577.5 665 c 0
 620.833007812 654.333007812 652.833007812 649 673.5 649 c 0
 704.166992188 649 719.5 657 719.5 673 c 0
 719.5 675 719 678.166992188 718 682.5 c 0
 717 686.833007812 716.5 690 716.5 692 c 0
 716.5 704 722.5 710 734.5 710 c 0
 749.166992188 710 756.5 702.666992188 756.5 688 c 0
 756.5 682.666992188 750.166992188 671.333007812 737.5 654 c 0
 731.5 644.666992188 721.833007812 631 708.5 613 c 0
 686.5 585 661.166992188 557.333007812 632.5 530 c 1
 575.166992188 540.666992188 528.166992188 550.333007812 491.5 559 c 1
 486.166992188 538.333007812 483.5 514.666992188 483.5 488 c 2xf4
364.5 229 m 2
 364.5 477 l 1
 403.166992188 501.666992188 431.166992188 522 448.5 538 c 0
 455.833007812 544.666992188 463.833007812 553 472.5 563 c 1
 388.5 585.666992188 325.833007812 602.333007812 284.5 613 c 1
 264.5 599 250.833007812 589 243.5 583 c 0
 224.166992188 566.333007812 207.5 547.666992188 193.5 527 c 0
 166.833007812 487.666992188 153.5 445.333007812 153.5 400 c 0
 153.5 358.666992188 161.5 319 177.5 281 c 0
 183.5 267 190.5 253.333007812 198.5 240 c 0
 202.5 232.666992188 211.5 219.333007812 225.5 200 c 0
 256.833007812 161.333007812 292.166992188 131.333007812 331.5 110 c 1
 347.5 131.333007812 357.166992188 149 360.5 163 c 0
 363.166992188 173.666992188 364.5 195.666992188 364.5 229 c 2
483.5 373 m 1
 483.5 318.333007812 483.166992188 281.666992188 482.5 263 c 0
 481.833007812 241.666992188 480.166992188 223.666992188 477.5 209 c 1
 428.166992188 170.333007812 384.833007812 133.666992188 347.5 99 c 1
 418.166992188 63.6669921875 475.166992188 46 518.5 46 c 0
 550.5 46 578.833007812 51 603.5 61 c 0
 608.833007812 63.6669921875 619.833007812 70.6669921875 636.5 82 c 0
 645.166992188 88.6669921875 654.166992188 98.6669921875 663.5 112 c 0
 679.5 138.666992188 687.5 175.333007812 687.5 222 c 0xf8
 687.5 246 684.5 267.333007812 678.5 286 c 0
 669.166992188 316 653.166992188 341.333007812 630.5 362 c 0
 605.166992188 386.666992188 576.833007812 399 545.5 399 c 0
 521.5 399 500.833007812 390.333007812 483.5 373 c 1
EndSplineSet
Validated: 1048577
EndChar

StartChar: H
Encoding: 72 72 29
Width: 800
GlyphClass: 2
Flags: MW
HStem: -96 32<397.167 465.833>
VStem: 241.5 64<-8 70> 241.5 125<47.3335 93> 598.5 124<121.667 187.333>
AnchorPoint: "Anchor-2" 400 550 basechar 0
AnchorPoint: "Anchor-1" 400 0 basechar 0
LayerCount: 2
Fore
SplineSet
479.5 730 m 1xd0
 398.5 757 l 1
 405.5 779 l 1
 433.5 769.666992188 483.5 755.333007812 555.5 736 c 0
 572.833007812 732 594.5 727.666992188 620.5 723 c 0
 627.833007812 721.666992188 637.833007812 720.333007812 650.5 719 c 1
 598.5 643 539.833007812 580 474.5 530 c 0
 455.833007812 516 435.5 502.333007812 413.5 489 c 0
 355.5 454.333007812 274.833007812 415.666992188 171.5 373 c 1
 178.166992188 362.333007812 187.5 346.333007812 199.5 325 c 0
 202.833007812 319 212.833007812 299.333007812 229.5 266 c 1
 264.166992188 278.666992188 294.5 290.333007812 320.5 301 c 0
 379.166992188 327 467.833007812 365 586.5 415 c 1
 591.833007812 409.666992188 600.166992188 402 611.5 392 c 0
 648.833007812 356 675.5 322.333007812 691.5 291 c 0
 712.166992188 251.666992188 722.5 209.666992188 722.5 165 c 0
 722.5 143 717.833007812 117.333007812 708.5 88 c 0
 695.833007812 48 675.166992188 14 646.5 -14 c 0
 626.5 -33.3330078125 600.5 -50.6669921875 568.5 -66 c 0
 527.166992188 -86 486.166992188 -96 445.5 -96 c 0
 424.166992188 -96 406.5 -94.6669921875 392.5 -92 c 0
 372.5 -88 356.166992188 -83.3330078125 343.5 -78 c 0
 316.166992188 -66 293.166992188 -48.6669921875 274.5 -26 c 0
 252.5 0.6669921875 241.5 30.6669921875 241.5 64 c 0
 241.5 76 242.833007812 86 245.5 94 c 0
 256.166992188 126.666992188 277.166992188 143 308.5 143 c 0
 325.833007812 143 339.833007812 137.333007812 350.5 126 c 0
 361.166992188 114.666992188 366.5 101 366.5 85 c 0xb0
 365.833007812 63 355.5 46.3330078125 335.5 35 c 0
 315.5 27 305.5 15.6669921875 305.5 1 c 0
 305.5 -17 316.833007812 -32.6669921875 339.5 -46 c 0
 360.166992188 -58 383.833007812 -64 410.5 -64 c 0
 422.5 -64 433.833007812 -63 444.5 -61 c 0
 511.166992188 -48.3330078125 557.166992188 -11.3330078125 582.5 50 c 0
 593.166992188 76 598.5 105.333007812 598.5 138 c 0
 598.5 151.333007812 597.833007812 162.666992188 596.5 172 c 0
 589.833007812 216 571.5 250.333007812 541.5 275 c 0
 520.166992188 292.333007812 494.833007812 301 465.5 301 c 0
 452.166992188 301 430.5 297.666992188 400.5 291 c 0
 332.5 275.666992188 238.833007812 240 119.5 184 c 1
 91.5 245.333007812 60.8330078125 295.666992188 27.5 335 c 1
 93.5 365 l 2
 158.166992188 397.666992188 227.166992188 445.333007812 300.5 508 c 0
 348.5 549.333007812 388.166992188 590 419.5 630 c 0
 436.833007812 652 450.833007812 673 461.5 693 c 0
 466.166992188 701 472.166992188 713.333007812 479.5 730 c 1xd0
EndSplineSet
Validated: 1048577
EndChar

StartChar: R
Encoding: 82 82 30
Width: 800
GlyphClass: 2
Flags: MW
HStem: -220 78<885 885> -7 21G<80.4678 80.4678> 682 20G
AnchorPoint: "Anchor-2" 400 550 basechar 0
AnchorPoint: "Anchor-1" 400 0 basechar 0
LayerCount: 2
Fore
SplineSet
391.467773438 507 m 1
 364.134765625 485.666992188 350.467773438 464.333007812 350.467773438 443 c 0
 350.467773438 434.333007812 351.80078125 427 354.467773438 421 c 0
 357.134765625 415 375.80078125 383 410.467773438 325 c 0
 424.467773438 302.333007812 435.134765625 282 442.467773438 264 c 1
 389.80078125 240.666992188 338.467773438 209 288.467773438 169 c 1
 400.467773438 131.666992188 492.80078125 113 565.467773438 113 c 0
 608.80078125 113 645.80078125 118.922851562 670.467773438 139 c 0
 713.467773438 174 702.467773438 364 685.4296875 387.872070312 c 0
 677.064453125 399.592773438 666.6953125 410.020507812 655.467773438 420 c 0
 650.80078125 424 640.134765625 431.666992188 623.467773438 443 c 0
 598.134765625 459 568.134765625 471.333007812 533.467773438 480 c 0
 504.80078125 488 457.467773438 497 391.467773438 507 c 1
244.467773438 161 m 1
 316.467773438 223 l 1
 316.467773438 238.333007812 300.134765625 272.333007812 267.467773438 325 c 0
 249.467773438 354.333007812 235.467773438 377.666992188 225.467773438 395 c 1
 248.134765625 416.333007812 268.80078125 435 287.467773438 451 c 0
 294.134765625 456.333007812 319.80078125 476.333007812 364.467773438 511 c 1
 274.467773438 519 l 2
 270.467773438 516.333007812 264.467773438 512 256.467773438 506 c 0
 192.467773438 458 160.467773438 413.333007812 160.467773438 372 c 0
 160.467773438 366.666992188 161.467773438 361.333007812 163.467773438 356 c 0
 166.134765625 348.666992188 176.134765625 337.666992188 193.467773438 323 c 0
 229.467773438 291.666992188 247.467773438 250.666992188 247.467773438 200 c 0
 247.467773438 186 246.467773438 173 244.467773438 161 c 1
80.4677734375 -7 m 1
 66.4677734375 9 l 1
 101.80078125 39 154.467773438 84.3330078125 224.467773438 145 c 1
 222.467773438 161 218.80078125 176 213.467773438 190 c 0
 201.467773438 218 183.134765625 238.666992188 158.467773438 252 c 0
 136.467773438 264 111.80078125 270 84.4677734375 270 c 0
 77.80078125 270 62.80078125 268.333007812 39.4677734375 265 c 1
 56.80078125 317 78.80078125 360.333007812 105.467773438 395 c 0
 140.134765625 440.333007812 186.467773438 482.333007812 244.467773438 521 c 1
 234.467773438 522.333007812 206.134765625 525.333007812 159.467773438 530 c 0
 141.467773438 531.333007812 113.134765625 535.666992188 74.4677734375 543 c 0
 50.4677734375 549.666992188 26.4677734375 561.666992188 2.4677734375 579 c 1
 7.134765625 593.666992188 14.4677734375 616 24.4677734375 646 c 0
 31.80078125 664 39.4677734375 682.666992188 47.4677734375 702 c 1
 52.134765625 698 60.4677734375 691.666992188 72.4677734375 683 c 0
 92.4677734375 671 126.80078125 661.666992188 175.467773438 655 c 0
 241.467773438 648.333007812 339.80078125 636.333007812 470.467773438 619 c 0
 553.80078125 605 619.134765625 584 666.467773438 556 c 0
 680.467773438 547.333007812 694.467773438 536.333007812 708.467773438 523 c 0
 755.377929688 477.340820312 787.662109375 412.673828125 783.467773438 328 c 1
 783.467773438 153.5859375 773.559570312 -123.875976562 885.467773438 -142 c 1
 961.467773438 -144 951.467773438 -49 951.467773438 -49 c 1
 983.107421875 -83.9794921875 984.185546875 -220 885.467773438 -220 c 0
 717.467773438 -220 706.467773438 -45 691.467773438 122.580078125 c 1
 681.188476562 110.811523438 689.85546875 119.618164062 677.467773438 109 c 0
 654.80078125 89.6669921875 609.467773438 62 541.467773438 26 c 0
 528.80078125 18.6669921875 509.134765625 7.6669921875 482.467773438 -7 c 1
 465.80078125 0.3330078125 447.80078125 6.6669921875 428.467773438 12 c 0
 359.134765625 31.3330078125 294.134765625 40.6669921875 233.467773438 40 c 0
 188.134765625 39.3330078125 153.80078125 34 130.467773438 24 c 0
 119.80078125 19.3330078125 103.134765625 9 80.4677734375 -7 c 1
EndSplineSet
Validated: 1048609
EndChar

StartChar: T
Encoding: 84 84 31
Width: 800
GlyphClass: 2
Flags: MW
HStem: -220 78 -160 24<354.968 364.301> 370 92<452.968 609.716 452.968 452.968> 573 121 688 34<377.301 438.634>
VStem: 462.968 104
AnchorPoint: "Anchor-2" 400 550 basechar 0
AnchorPoint: "Anchor-1" 400 0 basechar 0
LayerCount: 2
Fore
SplineSet
723.967773438 462 m 1x2c
 723.967773438 462 659.967773438 -117 813.967773438 -142 c 1
 889.967773438 -144 881.967773438 -49 881.967773438 -49 c 1
 913.607421875 -83.9794921875 914.685546875 -220 815.967773438 -220 c 0xac
 602.046875 -220 599.516601562 183.833007812 609.715820312 370 c 1
 452.967773438 370 l 1
 462.30078125 356.666992188 475.967773438 336 493.967773438 308 c 0
 542.634765625 234 566.967773438 161 566.967773438 89 c 0
 566.967773438 33.6669921875 551.30078125 -17.6669921875 519.967773438 -65 c 0
 505.30078125 -87.6669921875 484.967773438 -107.666992188 458.967773438 -125 c 0
 424.30078125 -148.333007812 385.634765625 -160 342.967773438 -160 c 0
 288.967773438 -160 237.30078125 -140.333007812 187.967773438 -101 c 0
 157.967773438 -77 132.30078125 -46 110.967773438 -8 c 0
 107.634765625 -2 102.30078125 7.3330078125 94.9677734375 20 c 0
 84.9677734375 36 67.634765625 49 42.9677734375 59 c 1
 43.9677734375 79 l 1
 97.9677734375 75.6669921875 152.634765625 78.6669921875 207.967773438 88 c 1
 209.30078125 80 212.30078125 66.8330078125 216.967773438 48.5 c 0
 221.634765625 30.1669921875 227.30078125 12 233.967773438 -6 c 0
 247.30078125 -40 262.634765625 -67.6669921875 279.967773438 -89 c 0
 305.967773438 -120.333007812 336.967773438 -136 372.967773438 -136 c 0
 388.30078125 -136 402.634765625 -131.333007812 415.967773438 -122 c 0
 447.30078125 -100 462.967773438 -56.6669921875 462.967773438 8 c 0
 462.967773438 59.3330078125 450.30078125 110.666992188 424.967773438 162 c 0
 408.967773438 195.333007812 359.967773438 264.666992188 277.967773438 370 c 1
 189.967773438 370 l 1
 205.967773438 380.666992188 218.634765625 393.333007812 227.967773438 408 c 0
 239.967773438 426 248.30078125 451.333007812 252.967773438 484 c 0
 254.967773438 506 258.967773438 539 264.967773438 583 c 0
 274.30078125 631.666992188 296.967773438 668.333007812 332.967773438 693 c 0
 360.967773438 712.333007812 394.634765625 722 433.967773438 722 c 0x6c
 443.30078125 722 454.634765625 721 467.967773438 719 c 0
 483.30078125 715 505.634765625 709.333007812 534.967773438 702 c 0
 551.634765625 698 574.30078125 695.333007812 602.967773438 694 c 1
 598.30078125 675.333007812 595.967773438 657.666992188 595.967773438 641 c 0
 595.967773438 625.666992188 598.634765625 602 603.967773438 570 c 1
 549.967773438 573 l 2x34
 529.30078125 573 507.967773438 570 485.967773438 564 c 1
 485.30078125 573.333007812 483.30078125 588.666992188 479.967773438 610 c 0
 475.30078125 627.333007812 466.634765625 643 453.967773438 657 c 0
 435.30078125 677.666992188 412.634765625 688 385.967773438 688 c 0
 368.634765625 688 352.967773438 682.333007812 338.967773438 671 c 0
 321.634765625 656.333007812 312.967773438 636 312.967773438 610 c 0
 312.967773438 579.333007812 337.634765625 530 386.967773438 462 c 1
 723.967773438 462 l 1x2c
EndSplineSet
Validated: 1048609
EndChar

StartChar: V
Encoding: 86 86 32
Width: 800
GlyphClass: 2
Flags: MW
HStem: -220 78<709.468 776.468 709.468 827.827> -6 125<389.468 509.514> 580 116<468.134 480.134> 696 20G
VStem: 81.4678 78 270.468 119
AnchorPoint: "Anchor-2" 400 550 basechar 0
AnchorPoint: "Anchor-1" 400 0 basechar 0
LayerCount: 2
Fore
SplineSet
270.467773438 274 m 2xcc
 270.467773438 624 l 1
 241.134765625 603.333007812 216.80078125 579.333007812 197.467773438 552 c 0
 172.134765625 516.666992188 159.467773438 469.333007812 159.467773438 410 c 0
 159.467773438 332 179.467773438 268 219.467773438 218 c 0
 224.134765625 212 235.80078125 200.333007812 254.467773438 183 c 1
 265.134765625 207.666992188 270.467773438 238 270.467773438 274 c 2xcc
611.467773438 674 m 2
 596.467773438 638 l 2
 595.134765625 633.333007812 592.134765625 626 587.467773438 616 c 0
 584.134765625 610 579.80078125 603.333007812 574.467773438 596 c 1
 533.80078125 585.333007812 496.80078125 580 463.467773438 580 c 0xec
 442.134765625 580 417.467773438 584 389.467773438 592 c 1
 389.467773438 341 l 2
 389.467773438 323 387.467773438 290 383.467773438 242 c 1
 268.467773438 172 l 1
 277.80078125 165.333007812 298.467773438 154.666992188 330.467773438 140 c 0
 336.467773438 138 344.80078125 135 355.467773438 131 c 0
 384.134765625 123 418.467773438 119 458.467773438 119 c 0
 560.559570312 119 630.444335938 163.462890625 682.467773438 223 c 1
 682.467773438 223 642.467773438 -142 776.467773438 -142 c 0
 852.467773438 -144 844.467773438 -49 844.467773438 -49 c 1
 876.107421875 -83.9794921875 877.185546875 -220 778.467773438 -220 c 0
 604.991210938 -220 578.840820312 -38.7822265625 577.6796875 61.734375 c 1
 569.463867188 54.37109375 560.7265625 47.4599609375 551.467773438 41 c 0
 506.80078125 9.6669921875 457.467773438 -6 403.467773438 -6 c 0
 375.467773438 -6 347.80078125 -2.6669921875 320.467773438 4 c 0
 245.134765625 22.6669921875 184.80078125 64 139.467773438 128 c 0
 100.80078125 182.666992188 81.4677734375 246.666992188 81.4677734375 320 c 0
 81.4677734375 416 109.467773438 496.333007812 165.467773438 561 c 0
 178.134765625 575.666992188 194.80078125 591.333007812 215.467773438 608 c 0
 260.134765625 644 315.467773438 680 381.467773438 716 c 1xdc
 421.467773438 702.666992188 454.80078125 696 481.467773438 696 c 0xec
 494.134765625 696 509.134765625 697 526.467773438 699 c 0
 557.134765625 702.333007812 590.80078125 710 627.467773438 722 c 1
 624.134765625 711.333007812 618.80078125 695.333007812 611.467773438 674 c 2
EndSplineSet
Validated: 1048609
EndChar

StartChar: Y
Encoding: 89 89 33
Width: 800
GlyphClass: 2
Flags: MW
HStem: -220 78 -2 48<276.683 411.968> 697 21G
VStem: -15.0322 116 241.968 119 564.968 108 783.968 40
AnchorPoint: "Anchor-2" 400 550 basechar 0
AnchorPoint: "Anchor-1" 400 0 basechar 0
LayerCount: 2
Fore
SplineSet
360.967773438 373 m 1
 360.967773438 318.333007812 360.634765625 281.666992188 359.967773438 263 c 0
 359.30078125 241.666992188 357.634765625 223.666992188 354.967773438 209 c 1
 305.634765625 170.333007812 262.30078125 133.666992188 224.967773438 99 c 1
 295.634765625 63.6669921875 352.634765625 46 395.967773438 46 c 0
 427.967773438 46 456.30078125 51 480.967773438 61 c 0
 486.30078125 63.6669921875 497.30078125 70.6669921875 513.967773438 82 c 0
 522.634765625 88.6669921875 531.634765625 98.6669921875 540.967773438 112 c 0
 556.967773438 138.666992188 564.967773438 175.333007812 564.967773438 222 c 0
 564.967773438 246 561.967773438 267.333007812 555.967773438 286 c 0
 546.634765625 316 530.634765625 341.333007812 507.967773438 362 c 0
 482.634765625 386.666992188 454.30078125 399 422.967773438 399 c 0
 398.967773438 399 378.30078125 390.333007812 360.967773438 373 c 1
241.967773438 229 m 2
 241.967773438 477 l 1
 280.634765625 501.666992188 308.634765625 522 325.967773438 538 c 0
 333.30078125 544.666992188 341.30078125 553 349.967773438 563 c 1
 265.967773438 585.666992188 248.30078125 585.333007812 206.967773438 596 c 1
 188.46875 583.05078125 162.41796875 558.665039062 140.967773438 527 c 0
 114.30078125 487.666992188 100.967773438 445.333007812 100.967773438 400 c 0
 100.967773438 266.396484375 121.865234375 157.2421875 208.967773438 110 c 1
 224.967773438 131.333007812 234.634765625 149 237.967773438 163 c 0
 240.634765625 173.666992188 241.967773438 195.666992188 241.967773438 229 c 2
360.967773438 488 m 2
 360.967773438 402 l 1
 365.634765625 406 373.30078125 411.333007812 383.967773438 418 c 0
 394.634765625 424.666992188 410.967773438 435.666992188 432.967773438 451 c 0
 454.967773438 466.333007812 488.30078125 490 532.967773438 522 c 1
 547.634765625 515.333007812 558.967773438 509 566.967773438 503 c 0
 594.30078125 482.333007812 616.634765625 458.666992188 633.967773438 432 c 0
 659.967773438 392 672.967773438 349.333007812 672.967773438 304 c 0
 672.967773438 278.666992188 667.967773438 251 657.967773438 221 c 0
 639.30078125 167 607.30078125 121.666992188 561.967773438 85 c 0
 545.967773438 71.6669921875 526.634765625 59 503.967773438 47 c 0
 443.967773438 14.3330078125 381.967773438 -2 317.967773438 -2 c 0
 235.397460938 -2 150.017578125 55.03125 99.9677734375 93 c 0
 23.30078125 150.333007812 -15.0322265625 221.666992188 -15.0322265625 307 c 0
 -15.0322265625 377 7.30078125 439.333007812 51.9677734375 494 c 0
 69.30078125 515.333007812 97.30078125 541 135.967773438 571 c 0
 150.634765625 582.333007812 172.634765625 598.666992188 201.967773438 620 c 0
 223.30078125 634 273.30078125 666.333007812 351.967773438 717 c 1
 354.543945312 699.048828125 784.8203125 577.236328125 786.967773438 673 c 0
 787.012695312 674.999023438 786.467773438 678.166992188 785.467773438 682.5 c 0
 784.467773438 686.833007812 783.967773438 690 783.967773438 692 c 0
 783.967773438 704 789.967773438 710 801.967773438 710 c 0
 816.634765625 710 823.967773438 702.666992188 823.967773438 688 c 0
 823.967773438 684.541992188 821.3046875 678.559570312 815.978515625 670.055664062 c 0
 795.541992188 535.46484375 762.079101562 -111.049804688 917.967773438 -142 c 1
 993.967773438 -144 985.967773438 -49 985.967773438 -49 c 1
 1017.60742188 -83.9794921875 1018.68554688 -220 919.967773438 -220 c 0
 610.967773438 -220 708.481445312 508.516601562 710.8828125 540.873046875 c 1
 627.967773438 526 443.333984375 536.100585938 368.967773438 559 c 1
 363.634765625 538.333007812 360.967773438 514.666992188 360.967773438 488 c 2
EndSplineSet
Validated: 1048609
EndChar

StartChar: uni005B
Encoding: 91 91 34
Width: 1124
GlyphClass: 2
Flags: MW
HStem: -83 21G<538.483 538.483> 48 69<540 540> 591 70<738.483 790.983> 599 69<529.983 540.483 529.983 584.483>
VStem: 263.483 45 538.483 48
LayerCount: 2
Fore
SplineSet
263.483398438 316 m 0xdc
 263.483398438 364 275.483398438 403 291.483398438 438 c 0
 305.483398438 468 332.483398438 514 352.483398438 540 c 0
 388.483398438 586 435.483398438 623 487.483398438 651 c 0
 502.483398438 659 520.483398438 668 539.483398438 668 c 1xdc
 539.483398438 685 538.483398438 700 538.483398438 717 c 2
 538.483398438 719 l 1
 539.483398438 719 l 1
 573.483398438 773 l 1
 574.483398438 774 l 2
 576.483398438 775 577.483398438 775 579.483398438 776 c 2
 586.483398438 779 l 1
 586.483398438 771 l 2
 586.483398438 735 584.483398438 701 584.483398438 667 c 1
 635.483398438 665 687.483398438 663 738.483398438 661 c 2
 820.483398438 659 l 2
 830.483398438 659 822.483398438 642 822.483398438 642 c 2
 819.483398438 636 815.483398438 627 811.483398438 621 c 0
 807.483398438 615 802.483398438 607 798.483398438 601 c 0
 797.483398438 600 794.483398438 591 787.483398438 591 c 0xec
 722.483398438 594 657.483398438 596 592.483398438 598 c 1
 584.483398438 599 l 1
 582.483398438 429 582.483398438 280 584.483398438 115 c 1
 589.483398438 115 593.483398438 116 597.483398438 116 c 0
 640.483398438 120 682.483398438 131 722.483398438 148 c 0
 768.483398438 168 812.483398438 195 852.483398438 227 c 0
 861.483398438 235 860.483398438 217 860.483398438 217 c 1
 855.483398438 202 846.483398438 189 838.483398438 177 c 1
 838.483398438 176 l 2
 836.483398438 172 832.483398438 167 828.483398438 163 c 0
 766.483398438 116 689.483398438 70 605.483398438 54 c 0
 599.483398438 53 591.483398438 51 585.483398438 51 c 1
 585.483398438 27 586.483398438 3 586.483398438 -21 c 2
 586.483398438 -23 l 1
 585.483398438 -23 l 1
 551.483398438 -77 l 1
 550.483398438 -78 l 1
 549.483398438 -79 l 2
 545.483398438 -81 542.483398438 -81 538.483398438 -83 c 1
 538.483398438 -75 l 2
 539.483398438 -33 540.483398438 9 540.483398438 48 c 1
 539.483398438 48 l 2
 515.483398438 48 477.483398438 54 454.483398438 60 c 0
 348.483398438 91 263.483398438 206 263.483398438 316 c 0xdc
306.483398438 371 m 0
 306.483398438 363 307.483398438 350 308.483398438 342 c 0
 308.483398438 339 310.483398438 335 310.483398438 331 c 0
 318.483398438 277 360.483398438 207 402.483398438 173 c 0
 424.483398438 156 463.483398438 135 489.483398438 127 c 0
 503.483398438 123 525.483398438 119 541.483398438 117 c 1
 543.483398438 287 543.483398438 434 540.483398438 599 c 1
 527.483398438 600 l 1
 510.483398438 601 l 2
 500.483398438 601 492.483398438 599 482.483398438 595 c 0
 436.483398438 575 387.483398438 539 354.483398438 506 c 0
 348.483398438 499 342.483398438 492 337.483398438 485 c 0
 336.483398438 484 333.483398438 481 332.483398438 479 c 2
 331.483398438 477 l 1
 328.483398438 475 l 1
 328.483398438 473 l 2
 326.483398438 470 325.483398438 467 324.483398438 463 c 1
 323.483398438 463 l 1
 317.483398438 445 l 1
 315.483398438 437 l 2
 310.483398438 419 306.483398438 389 306.483398438 371 c 0
EndSplineSet
Validated: 33
EndChar

StartChar: uni005D
Encoding: 93 93 35
Width: 1123
GlyphClass: 2
Flags: MW
HStem: -145 68<433 467> 25 18<708 720 719 720 719 723 719 720 719 723> 58 69<527 542 539 542> 218 73<582 582> 427 12<411 415.5> 491 67<496.5 530> 601 70<738 790.5> 611 67<502.5 539 507 539>
VStem: 263 43<271 390> 542 40<127 218 125 225 125 225 343 486> 724 43<73 131>
LayerCount: 2
Fore
SplineSet
263 326 m 0xfee0
 263 374 275 413 291 448 c 0
 305 478 332 524 352 550 c 0
 388 596 435 633 487 661 c 0
 502 669 519 678 539 678 c 1xfde0
 539 698 538 717 538 737 c 2
 538 739 l 1
 539 739 l 1
 573 793 l 1
 574 794 l 2
 576 795 577 795 579 796 c 2
 586 799 l 1
 586 791 l 2
 585 753 584 715 584 677 c 1
 635 675 687 673 738 671 c 2xfee0
 820 668 l 2
 824 668 825 666 825 663 c 0
 825 658 822 651 822 651 c 2
 815 636 806 624 798 611 c 1xfde0
 798 610 l 2
 798 609 794 601 787 601 c 0
 722 604 657 606 592 608 c 1
 583 609 l 1
 583 555 l 1
 599 554 614 554 630 553 c 2
 740 546 l 2
 746 546 751 546 755 542 c 0
 761 538 763 532 763 527 c 0
 763 523 762 519 761 516 c 0
 753 494 739 473 725 455 c 0
 683 398 637 344 582 299 c 1
 582 291 l 1
 663 282 734 245 759 177 c 1
 792 195 822 215 852 237 c 0
 854 238 854 239 855 239 c 0
 860 239 860 227 860 227 c 1
 855 212 846 199 838 187 c 1
 838 186 l 2
 836 182 832 177 828 173 c 1
 827 173 l 1
 808 158 788 144 767 131 c 1
 767 100 758 77 746 53 c 0
 731 22 712 -8 688 -34 c 0
 660 -64 624 -87 585 -104 c 1
 585 -116 586 -129 586 -141 c 2
 586 -143 l 1
 585 -143 l 1
 551 -197 l 1
 550 -198 l 2
 548 -199 547 -199 545 -200 c 2
 538 -203 l 1
 538 -195 l 2
 538 -171 539 -145 539 -121 c 1
 505 -132 470 -141 435 -145 c 0
 431 -145 429 -142 429 -139 c 0
 429 -134 433 -128 433 -128 c 2
 439 -116 449 -97 457 -87 c 2
 457 -87 460 -79 466 -77 c 2
 467 -77 l 2
 487 -74 519 -68 540 -63 c 1
 540 -23 541 18 541 58 c 1
 539 58 l 2
 515 58 476 65 454 70 c 0
 346 94 263 216 263 326 c 0xfee0
306 381 m 0
 306 373 307 360 308 352 c 0
 308 348 309 345 309 341 c 0
 317 287 360 217 402 183 c 0
 424 166 463 145 489 137 c 0
 503 133 526 129 542 127 c 1
 542 225 l 1
 530 226 515 227 505 227 c 0
 497 227 485 225 477 225 c 0
 473 225 471 228 471 231 c 0
 471 236 475 242 475 242 c 2
 481 256 487 266 495 278 c 0
 497 280 500 288 506 291 c 2
 542 315 l 1
 542 489 l 1
 515 490 l 2
 509 490 503 491 498 491 c 0
 495 491 492 491 489 490 c 0
 485 488 482 486 478 482 c 2
 419 429 l 2
 417 428 416 427 415 427 c 0
 410 427 410 437 410 437 c 2
 410 439 411 439 411 439 c 2
 416 454 425 467 433 479 c 0
 436 484 441 490 446 495 c 1
 446 496 l 1
 491 535 l 2
 500 543 512 558 529 558 c 2
 530 558 l 2
 534 558 537 557 541 557 c 1
 541 575 540 593 540 609 c 1
 527 610 l 1
 509 611 l 1
 507 611 l 2
 498 611 490 608 481 605 c 0
 436 584 387 549 354 516 c 0
 351 512 350 511 348 509 c 2
 337 495 l 2
 334 492 333 490 330 487 c 2
 329 485 l 2
 328 484 326 480 326 480 c 2
 324 473 320 467 318 460 c 0
 316 457 316 450 315 447 c 0
 310 429 306 399 306 381 c 0
582 343 m 1
 629 380 669 419 705 463 c 0
 709 467 713 473 716 477 c 0
 714 479 711 479 709 479 c 0
 667 482 624 484 582 486 c 1
 582 343 l 1
582 218 m 1
 582 125 l 1
 588 125 592 126 597 126 c 0
 632 129 666 137 699 149 c 1
 680 175 654 193 624 205 c 0
 614 209 594 215 582 218 c 1
583 61 m 1
 583 23 585 -14 585 -49 c 1
 625 -36 662 -15 692 10 c 0
 696 13 698 16 701 19 c 2
 708 25 l 2
 711 29 715 33 717 35 c 2
 719 43 l 1
 720 43 l 2
 721 45 721 50 721 53 c 0
 723 59 724 70 724 76 c 0
 724 86 722 95 720 105 c 1
 675 83 635 69 583 61 c 1
713 25 m 1
 723 25 l 1
 713 25 l 1
EndSplineSet
Validated: 1
EndChar

StartChar: asciicircum
Encoding: 94 94 36
Width: 400
GlyphClass: 2
Flags: MW
HStem: -48.5 21G<135 143.5> 381.5 73<163 232>
VStem: 125.5 30<-37.5 85.5 85.5 88 470.5 474.5 474.5 594.5> 243.5 30<6.5 131.5 131.5 134.5 512.5 516.5 516.5 638.5>
LayerCount: 2
Fore
SplineSet
243.5 254.5 m 0
 245.5 263.5 247.5 291.5 247.5 318.5 c 0
 247.5 345.5 245.5 370.5 243.5 375.5 c 0
 241.5 379.5 235.5 381.5 228.5 381.5 c 0
 203.5 381.5 157.5 360.5 155.5 343.5 c 0
 153.5 335.5 152.5 300.5 152.5 269.5 c 0
 152.5 245.5 153.5 223.5 155.5 219.5 c 0
 156.5 216.5 161.5 214.5 167.5 214.5 c 0
 190.5 214.5 237.5 234.5 243.5 254.5 c 0
312.5 417.5 m 2
 286.5 407.5 l 2
 278.5 404.5 273.5 385.5 273.5 378.5 c 2
 273.5 285.5 l 2
 273.5 273.5 280.5 267.5 286.5 267.5 c 2
 312.5 277.5 l 2
 314.5 278.5 315.5 278.5 317.5 278.5 c 0
 321.5 278.5 324.5 275.5 324.5 270.5 c 2
 324.5 199.5 l 2
 324.5 193.5 319.5 185.5 312.5 182.5 c 2
 312.5 182.5 291.5 174.5 284.5 171.5 c 0
 277.5 168.5 273.5 156.5 273.5 148.5 c 2
 273.5 6.5 l 2
 273.5 0.5 267.5 -4.5 256.5 -4.5 c 0
 249.5 -4.5 243.5 0.5 243.5 6.5 c 2
 243.5 131.5 l 2
 243.5 137.5 238.5 149.5 230.5 149.5 c 0
 229.5 149.5 227.5 148.5 226.5 148.5 c 2
 165.5 123.5 l 2
 160.5 121.5 155.5 114.5 155.5 101.5 c 2
 155.5 -37.5 l 2
 155.5 -43.5 148.5 -48.5 138.5 -48.5 c 0
 131.5 -48.5 125.5 -43.5 125.5 -37.5 c 2
 125.5 85.5 l 2
 125.5 90.5 120.5 101.5 113.5 101.5 c 0
 112.5 101.5 111.5 101.5 110.5 100.5 c 0
 101.5 97.5 87.5 91.5 87.5 91.5 c 2
 86.5 91.5 84.5 90.5 83.5 90.5 c 0
 78.5 90.5 75.5 93.5 75.5 99.5 c 2
 75.5 170.5 l 2
 75.5 176.5 80.5 184.5 87.5 186.5 c 2
 87.5 186.5 108.5 195.5 114.5 197.5 c 0
 120.5 200.5 125.5 209.5 125.5 220.5 c 2
 125.5 319.5 l 2
 125.5 327.5 119.5 337.5 112.5 337.5 c 0
 111.5 337.5 110.5 336.5 109.5 336.5 c 0
 102.5 332.5 87.5 326.5 87.5 326.5 c 2
 86.5 326.5 84.5 325.5 83.5 325.5 c 0
 78.5 325.5 75.5 328.5 75.5 334.5 c 2
 75.5 405.5 l 2
 75.5 411.5 80.5 419.5 87.5 421.5 c 2
 87.5 421.5 107.5 429.5 113.5 432.5 c 0
 119.5 435.5 125.5 445.5 125.5 459.5 c 2
 125.5 594.5 l 2
 125.5 600.5 131.5 605.5 141.5 605.5 c 0
 148.5 605.5 155.5 600.5 155.5 594.5 c 2
 155.5 474.5 l 2
 155.5 466.5 158.5 454.5 167.5 454.5 c 0
 184.5 458.5 218.5 472.5 230.5 479.5 c 0
 239.5 485.5 242.5 498.5 243.5 508.5 c 2
 243.5 638.5 l 2
 243.5 644.5 249.5 649.5 259.5 649.5 c 0
 267.5 649.5 273.5 644.5 273.5 638.5 c 2
 273.5 516.5 l 2
 273.5 508.5 280.5 503.5 287.5 503.5 c 0
 292.5 504.5 312.5 512.5 312.5 512.5 c 2
 314.5 513.5 315.5 513.5 317.5 513.5 c 0
 321.5 513.5 324.5 510.5 324.5 505.5 c 2
 324.5 434.5 l 2
 324.5 428.5 319.5 420.5 312.5 417.5 c 2
EndSplineSet
Validated: 1
EndChar

StartChar: underscore
Encoding: 95 95 37
Width: 0
GlyphClass: 4
Flags: MW
HStem: 432 33<-391.759 -367.657 -368.657 -367.657 -367.657 -348.657 -348.657 348.723 348.723 367.723 367.723 368.723>
AnchorPoint: "Anchor-1" 0 475 mark 0
LayerCount: 2
Fore
SplineSet
-388.657226562 432 m 2
 -394.861328125 432 -377.657226562 457 -375.657226562 459 c 0
 -374.657226562 460 -370.657226562 465 -368.657226562 465 c 2
 -367.657226562 465 l 1
 -348.657226562 465 l 1
 388.72265625 465 l 2
 394.72265625 465 377.72265625 441 375.72265625 439 c 0
 374.72265625 438 370.72265625 432 368.72265625 432 c 2
 367.72265625 432 l 1
 348.72265625 432 l 1
 -388.657226562 432 l 2
EndSplineSet
Validated: 1
EndChar

StartChar: grave
Encoding: 96 96 38
Width: 800
GlyphClass: 2
Flags: MW
VStem: 357 86<801 801> 377 46<-200 -200>
LayerCount: 2
Fore
SplineSet
357 801 m 1x80
 443 801 l 1x80
 423 -200 l 1
 377 -200 l 1x40
 357 801 l 1x80
EndSplineSet
Validated: 1
EndChar

StartChar: a
Encoding: 97 97 39
Width: 800
GlyphClass: 2
Flags: MW
HStem: -3 21G 482 20G
VStem: 193.5 78<171.667 268>
AnchorPoint: "Anchor-2" 400 550 basechar 0
AnchorPoint: "Anchor-1" 400 0 basechar 0
LayerCount: 2
Fore
SplineSet
606.5 80 m 1
 508.5 -10 l 1
 481.166992188 18 454.5 54.3330078125 428.5 99 c 1
 401.166992188 69 366.166992188 35 323.5 -3 c 1
 296.166992188 15 274.5 32.3330078125 258.5 49 c 0
 215.166992188 94.3330078125 193.5 144.333007812 193.5 199 c 0
 193.5 253.666992188 217.833007812 306 266.5 356 c 0
 274.5 364 287.833007812 375.666992188 306.5 391 c 0
 328.5 408.333007812 356.166992188 428.333007812 389.5 451 c 0
 400.166992188 457.666992188 424.166992188 474.666992188 461.5 502 c 1
 520.166992188 451.333007812 567.833007812 417.666992188 604.5 401 c 1
 593.833007812 391.666992188 578.5 376.666992188 558.5 356 c 0
 523.166992188 314.666992188 505.5 269.333007812 505.5 220 c 0
 505.5 195.333007812 512.833007812 171.333007812 527.5 148 c 0
 536.833007812 133.333007812 546 121.833007812 555 113.5 c 0
 564 105.166992188 581.166992188 94 606.5 80 c 1
511.5 333 m 1
 385.5 421 l 1
 374.166992188 413 355.5 397.666992188 329.5 375 c 2
 310.5 356 l 2
 292.5 336 280.5 314 274.5 290 c 0
 272.5 282 271.5 273 271.5 263 c 0
 271.5 254.333007812 272.5 244.333007812 274.5 233 c 0
 277.833007812 215 287.166992188 195.333007812 302.5 174 c 0
 327.833007812 138.666992188 356.833007812 111.333007812 389.5 92 c 1
 404.166992188 106 418.166992188 122.666992188 431.5 142 c 0
 434.833007812 147.333007812 439.833007812 155.666992188 446.5 167 c 0
 450.5 174.333007812 456.5 188.666992188 464.5 210 c 0
 469.166992188 225.333007812 476.5 248 486.5 278 c 0
 490.5 289.333007812 498.833007812 307.666992188 511.5 333 c 1
EndSplineSet
Validated: 1048577
EndChar

StartChar: b
Encoding: 98 98 40
Width: 800
GlyphClass: 2
Flags: MW
HStem: -6 21G 645 21<188.5 190.5>
VStem: 236.5 102<203 370 144 397 144 587> 528.5 96<218 323>
AnchorPoint: "Anchor-2" 400 550 basechar 0
AnchorPoint: "Anchor-1" 400 0 basechar 0
LayerCount: 2
Fore
SplineSet
414.5 731 m 1
 423.5 710 l 1
 381.5 688 356.5 665.666992188 348.5 643 c 0
 341.166992188 623 337.5 597.666992188 337.5 567 c 2
 338.5 397 l 1
 359.833007812 411.666992188 391.5 434 433.5 464 c 0
 446.166992188 473.333007812 464.5 487 488.5 505 c 1
 508.5 489 527.166992188 472.666992188 544.5 456 c 0
 597.833007812 404.666992188 624.5 351 624.5 295 c 0
 624.5 257 607.5 215 573.5 169 c 0
 536.833007812 119 488.166992188 73.6669921875 427.5 33 c 0
 413.5 23.6669921875 392.5 10.6669921875 364.5 -6 c 1
 359.166992188 -1.3330078125 350.5 5.6669921875 338.5 15 c 0
 293.833007812 47.6669921875 239.5 72.3330078125 175.5 89 c 1
 188.833007812 97 199.833007812 106.333007812 208.5 117 c 0
 227.166992188 138.333007812 236.5 167 236.5 203 c 2
 236.5 587 l 2
 235.166992188 605 231.166992188 618.166992188 224.5 626.5 c 0
 217.833007812 634.833007812 205.833007812 641 188.5 645 c 1
 190.5 666 l 1
 256.5 668.666992188 331.166992188 690.333007812 414.5 731 c 1
412.5 419 m 1
 338.5 370 l 1
 338.5 144 l 1
 453.5 79 l 1
 467.5 92.3330078125 480.833007812 108.333007812 493.5 127 c 0
 516.833007812 162.333007812 528.5 199 528.5 237 c 0
 528.5 282.333007812 507.5 327.333007812 465.5 372 c 0
 451.5 386.666992188 433.833007812 402.333007812 412.5 419 c 1
EndSplineSet
Validated: 1048577
EndChar

StartChar: c
Encoding: 99 99 41
Width: 800
GlyphClass: 2
Flags: MW
HStem: -8 21G 482 20G<430.5 430.5>
VStem: 239.5 103<218.333 325.667>
AnchorPoint: "Anchor-2" 400 550 basechar 0
AnchorPoint: "Anchor-1" 400 0 basechar 0
LayerCount: 2
Fore
SplineSet
560.5 431 m 1
 487.5 348 l 1
 365.5 425 l 1
 361.5 422.333007812 358.5 418 356.5 412 c 0
 347.166992188 388.666992188 342.5 351.333007812 342.5 300 c 0
 342.5 232.666992188 357.166992188 178.333007812 386.5 137 c 0
 402.5 114.333007812 419.5 103.333007812 437.5 104 c 0
 444.833007812 104 454.833007812 106.666992188 467.5 112 c 0
 486.833007812 120 506.833007812 132 527.5 148 c 1
 541.5 127 l 1
 530.833007812 121 511.666992188 108 484 88 c 0
 456.333007812 68 439.833007812 56 434.5 52 c 0
 416.5 37.3330078125 395.833007812 17.3330078125 372.5 -8 c 1
 361.833007812 -0.6669921875 343.166992188 14.6669921875 316.5 38 c 0
 283.833007812 70.6669921875 261.5 109.333007812 249.5 154 c 0
 242.833007812 178.666992188 239.5 204.666992188 239.5 232 c 0
 239.5 269.333007812 244.166992188 302.666992188 253.5 332 c 0
 259.5 350.666992188 267.166992188 366.333007812 276.5 379 c 0
 281.166992188 385.666992188 293 397.166992188 312 413.5 c 0
 331 429.833007812 353.5 447.333007812 379.5 466 c 2
 430.5 502 l 1
 459.166992188 485.333007812 502.5 461.666992188 560.5 431 c 1
EndSplineSet
Validated: 1048609
EndChar

StartChar: d
Encoding: 100 100 42
Width: 800
GlyphClass: 2
Flags: MW
HStem: -4 21G
VStem: 186 108<219.667 292.667> 245 106<549.667 601.333> 538 76<140 254.333>
AnchorPoint: "Anchor-2" 400 550 basechar 0
AnchorPoint: "Anchor-1" 400 0 basechar 0
LayerCount: 2
Fore
SplineSet
405 679 m 1xb0
 410 657 l 1
 404.666992188 655.666992188 396 651.666992188 384 645 c 0
 362 631 351 612.666992188 351 590 c 0xb0
 351 573.333007812 357.333007812 557 370 541 c 0
 376 533 393 519 421 499 c 0
 442.333007812 483.666992188 474 460 516 428 c 0
 557.333007812 394 585.333007812 356 600 314 c 0
 609.333007812 288 614 264.666992188 614 244 c 0
 614 209.333007812 605.333007812 176.666992188 588 146 c 0
 582 135.333007812 573.666992188 124 563 112 c 0
 555 102 536.666992188 86 508 64 c 0
 494.666992188 55.3330078125 472.333007812 45.3330078125 441 34 c 0
 401 19.3330078125 372.333007812 6.6669921875 355 -4 c 1
 303.666992188 34.6669921875 263 74 233 114 c 0
 215 138 202.666992188 158.5 196 175.5 c 0
 189.333007812 192.5 186 210.333007812 186 229 c 0xd0
 186 264.333007812 200.666992188 298 230 330 c 0
 246 347.333007812 262 361.5 278 372.5 c 0
 294 383.5 317.666992188 396.666992188 349 412 c 1
 310 442 l 2
 288.666992188 458.666992188 271.333007812 480.666992188 258 508 c 0
 249.333007812 526 245 542.333007812 245 557 c 0
 245 592.333007812 265.333007812 621.333007812 306 644 c 0
 328 656 361 667.666992188 405 679 c 1xb0
370 397 m 1
 348.666992188 386.333007812 332.666992188 374 322 360 c 0
 303.333007812 336 294 308.333007812 294 277 c 0xd0
 294 265 295.666992188 252.666992188 299 240 c 0
 309.666992188 197.333007812 330 160.666992188 360 130 c 0
 371.333007812 118.666992188 383.666992188 108.666992188 397 100 c 0
 419.666992188 86 440.666992188 79 460 79 c 0
 512 79.6669921875 538 110 538 170 c 0
 538 212.666992188 522.333007812 254 491 294 c 0
 478.333007812 310 464.833007812 324.5 450.5 337.5 c 0
 436.166992188 350.5 409.333007812 370.333007812 370 397 c 1
EndSplineSet
Validated: 1048577
EndChar

StartChar: e
Encoding: 101 101 43
Width: 800
GlyphClass: 2
Flags: MW
HStem: -2 21G<355.5 355.5> 477 20G
AnchorPoint: "Anchor-2" 400 550 basechar 0
AnchorPoint: "Anchor-1" 400 0 basechar 0
LayerCount: 2
Fore
SplineSet
555.5 347 m 1
 349.5 226 l 1
 351.5 210.666992188 358.5 185.333007812 370.5 150 c 1
 388.5 116 411.5 99 439.5 99 c 0
 452.833007812 99 472.5 104.666992188 498.5 116 c 0
 509.166992188 122 518.833007812 128 527.5 134 c 1
 541.5 114 l 1
 355.5 -2 l 1
 350.166992188 1.3330078125 342.666992188 7 333 15 c 0
 323.333007812 23 308.166992188 38.6669921875 287.5 62 c 0
 258.833007812 100 244.5 151.666992188 244.5 217 c 0
 244.5 231.666992188 245.833007812 263.333007812 248.5 312 c 0
 250.5 351.333007812 261.833007812 381.666992188 282.5 403 c 0
 291.166992188 412.333007812 313.166992188 426.666992188 348.5 446 c 0
 383.833007812 465.333007812 417.5 482.333007812 449.5 497 c 1
 464.833007812 467.666992188 500.166992188 417.666992188 555.5 347 c 1
346.5 251 m 1
 447.5 310 l 1
 436.166992188 324.666992188 419.166992188 346.333007812 396.5 375 c 0
 385.166992188 390.333007812 373.5 406.666992188 361.5 424 c 1
 355.5 393.333007812 350.833007812 362 347.5 330 c 0
 346.166992188 316.666992188 345.5 304 345.5 292 c 0
 345.5 287.333007812 345.833007812 280.666992188 346.5 272 c 2
 346.5 251 l 1
EndSplineSet
Validated: 1048577
EndChar

StartChar: f
Encoding: 102 102 44
Width: 800
GlyphClass: 2
Flags: MW
HStem: -165 21G 397 22<212 281 212 212> 397 70<492 492> 625 87<381.333 454.667>
VStem: 281 126<396 397> 290 109
AnchorPoint: "Anchor-2" 400 550 basechar 0
AnchorPoint: "Anchor-1" 400 0 basechar 0
LayerCount: 2
Fore
SplineSet
548 679 m 1xd8
 568 706 l 1
 588 695 l 1
 580 683 568 664.5 552 639.5 c 0
 536 614.5 524 595.666992188 516 583 c 1
 506.666992188 585.666992188 499.333007812 588.333007812 494 591 c 0
 480.666992188 598.333007812 467.666992188 605.333007812 455 612 c 0
 437 620.666992188 419.666992188 625 403 625 c 0
 359.666992188 625 338 604.333007812 338 563 c 0
 338 546.333007812 342.333007812 530 351 514 c 0
 363.666992188 491.333007812 384.333007812 477 413 471 c 0
 427.666992188 467.666992188 454 466.333007812 492 467 c 1
 492 397 l 1
 407 396 l 1xb8
 399 193 l 2
 398.333007812 167.666992188 396.333007812 130.666992188 393 82 c 0
 390.333007812 55.3330078125 386.666992188 22.6669921875 382 -16 c 0
 374 -80 364 -129.666992188 352 -165 c 1
 348.666992188 -159.666992188 344 -151 338 -139 c 0
 329.333007812 -118.333007812 321.666992188 -86 315 -42 c 0
 301.666992188 14.6669921875 293.333007812 82.1669921875 290 160.5 c 0xb4
 286.666992188 238.833007812 283.666992188 317.666992188 281 397 c 1
 212 397 l 1
 212 419 l 1
 227.333007812 423 237.666992188 427.333007812 243 432 c 0
 269.666992188 448.666992188 291 488.333007812 307 551 c 0
 314.333007812 579 321.333007812 601 328 617 c 0
 355.333007812 680.333007812 395.666992188 712 449 712 c 0
 460.333007812 712 469.666992188 711 477 709 c 0
 491.666992188 703 510 695 532 685 c 0
 536 683.666992188 541.333007812 681.666992188 548 679 c 1xd8
EndSplineSet
Validated: 1048609
EndChar

StartChar: g
Encoding: 103 103 45
Width: 800
GlyphClass: 2
Flags: MW
HStem: -208 70<335.833 435.167> -60 20G -4 21G<302.5 302.5> 346 92<317.5 329.5 329.5 329.5 329.5 449.5> 475 20G
VStem: 223.5 94<196 210 210 331 331 346> 449.5 99<233.333 254 254 345 233.333 346 233.333 346> 531.5 78<-47.3335 59>
AnchorPoint: "Anchor-2" 400 550 basechar 0
AnchorPoint: "Anchor-1" 400 0 basechar 0
LayerCount: 2
Fore
SplineSet
611.5 345 m 1xfd
 548.5 345 l 1
 548.5 254 l 2xfe
 548.5 212.666992188 553.166992188 183.666992188 562.5 167 c 0
 568.5 157.666992188 577.166992188 143.333007812 588.5 124 c 0
 602.5 96.6669921875 609.5 71 609.5 47 c 0
 609.5 12.3330078125 597.5 -22.3330078125 573.5 -57 c 0
 564.833007812 -69 550.166992188 -85.6669921875 529.5 -107 c 0
 463.5 -174.333007812 400.833007812 -208 341.5 -208 c 0
 330.166992188 -208 317.5 -206.666992188 303.5 -204 c 0
 292.166992188 -202 277.833007812 -197.333007812 260.5 -190 c 2
 218.5 -172 l 2
 207.833007812 -168 187.833007812 -162.333007812 158.5 -155 c 1
 191.166992188 -125 229.833007812 -86.6669921875 274.5 -40 c 1
 303.833007812 -86.6669921875 336.166992188 -116.333007812 371.5 -129 c 0
 388.166992188 -135 404.833007812 -138 421.5 -138 c 0
 448.833007812 -138 472.5 -129 492.5 -111 c 0
 518.5 -87.6669921875 531.5 -61.6669921875 531.5 -33 c 0
 531.5 -4.3330078125 518.166992188 28.3330078125 491.5 65 c 0
 485.5 71.6669921875 474.166992188 87.6669921875 457.5 113 c 1
 302.5 -4 l 1
 297.833007812 0 291.333007812 6 283 14 c 0
 274.666992188 22 266.833007812 30.6669921875 259.5 40 c 0
 244.166992188 59.3330078125 234.166992188 77.3330078125 229.5 94 c 0
 225.5 108 223.5 128.333007812 223.5 155 c 2
 223.5 331 l 2
 223.5 366.333007812 218.833007812 397.333007812 209.5 424 c 1
 233.5 444 254.833007812 466 273.5 490 c 1
 288.833007812 472 307.5 454.666992188 329.5 438 c 1
 442.5 440 l 1
 461.833007812 456 481.166992188 474.333007812 500.5 495 c 1
 514.5 476.333007812 531.166992188 459 550.5 443 c 1
 571.166992188 443.666992188 601.5 445.333007812 641.5 448 c 1
 632.833007812 426.666992188 626.666992188 409.833007812 623 397.5 c 0
 619.333007812 385.166992188 615.5 367.666992188 611.5 345 c 1xfd
317.5 346 m 1
 317.5 210 l 2
 317.5 182 320.833007812 159.333007812 327.5 142 c 0
 335.5 121.333007812 350.833007812 102.666992188 373.5 86 c 1
 452.5 137 l 1
 450.5 147 449.5 161.333007812 449.5 180 c 2
 449.5 346 l 1
 317.5 346 l 1
EndSplineSet
Validated: 1048577
EndChar

StartChar: h
Encoding: 104 104 46
Width: 800
GlyphClass: 2
Flags: MW
HStem: -159 21G 481 20G
VStem: 236 102<159 366 399 574 574 586.667> 531 95<161.333 243>
AnchorPoint: "Anchor-2" 400 550 basechar 0
AnchorPoint: "Anchor-1" 400 0 basechar 0
LayerCount: 2
Fore
SplineSet
414 732 m 1
 423 711 l 1
 407.666992188 703 389.333007812 692.333007812 368 679 c 0
 348 663 338 642.666992188 338 618 c 2
 338 399 l 1
 375.333007812 431.666992188 411 465.666992188 445 501 c 1
 489.666992188 460.333007812 522 428.333007812 542 405 c 0
 569.333007812 373 587.666992188 348.666992188 597 332 c 0
 616.333007812 298 626 262 626 224 c 0
 626 208 624 193.333007812 620 180 c 0
 613.333007812 145.333007812 592.333007812 105 557 59 c 0
 537.666992188 33.6669921875 517.333007812 9.6669921875 496 -13 c 0
 458.666992188 -51 404.666992188 -106.666992188 334 -180 c 1
 317 -167 l 1
 362.333007812 -118.333007812 403.666992188 -69.6669921875 441 -21 c 0
 458.333007812 1 470.666992188 18 478 30 c 0
 492 49.3330078125 502.666992188 67.3330078125 510 84 c 0
 524 114.666992188 531 145.666992188 531 177 c 0
 531 193 528.666992188 209 524 225 c 0
 515.333007812 256.333007812 485.666992188 298.333007812 435 351 c 2
 381 405 l 1
 338 366 l 1
 338 120 l 1
 351.333007812 110 367 100.666992188 385 92 c 1
 428 123 l 1
 442 104 l 1
 424 90.6669921875 397.333007812 70.3330078125 362 43 c 0
 359.333007812 41 340.666992188 25.3330078125 306 -4 c 1
 272 30 240 55.3330078125 210 72 c 0
 208.666992188 72.6669921875 200.333007812 76.3330078125 185 83 c 1
 191.666992188 87 202.333007812 95 217 107 c 0
 220.333007812 110.333007812 225 116.333007812 231 125 c 0
 234.333007812 132.333007812 236 143.666992188 236 159 c 2
 236 574 l 2
 236 599.333007812 231 619 221 633 c 0
 215.666992188 640.333007812 208.333007812 647 199 653 c 0
 183 663 174.666992188 668.333007812 174 669 c 1
 198.666992188 667 221.333007812 667.666992188 242 671 c 0
 290 678.333007812 347.333007812 698.666992188 414 732 c 1
EndSplineSet
Validated: 1048609
EndChar

StartChar: r
Encoding: 114 114 48
Width: 800
GlyphClass: 2
Flags: MW
HStem: -220 77.9688 -69 20G<813.968 813.968> -4 21G 669.309 21.4453
VStem: 126.968 108 185.968 106 478.968 76 571.076 73.0361 575.114 78.3232 814.21 18.8223
AnchorPoint: "Anchor-2" 400 550 basechar 0
AnchorPoint: "Anchor-1" 400 0 basechar 0
LayerCount: 2
Fore
SplineSet
310.967773438 397 m 1xfa40
 289.634765625 386.333007812 273.634765625 374 262.967773438 360 c 0
 244.30078125 336 234.967773438 308.333007812 234.967773438 277 c 0
 234.967773438 265 236.634765625 252.666992188 239.967773438 240 c 0
 250.634765625 197.333007812 270.967773438 160.666992188 300.967773438 130 c 0
 312.30078125 118.666992188 324.634765625 108.666992188 337.967773438 100 c 0
 360.634765625 86 381.634765625 79 400.967773438 79 c 0
 452.967773438 79.6669921875 478.967773438 110 478.967773438 170 c 0
 478.967773438 212.666992188 463.30078125 254 431.967773438 294 c 0
 419.30078125 310 405.80078125 324.5 391.467773438 337.5 c 0
 377.134765625 350.5 350.30078125 370.333007812 310.967773438 397 c 1xfa40
350.967773438 657 m 0
 345.634765625 655.666992188 336.967773438 651.666992188 324.967773438 645 c 0
 302.967773438 631 291.967773438 612.666992188 291.967773438 590 c 0xf6c0
 291.967773438 573.333007812 298.30078125 557 310.967773438 541 c 0
 316.967773438 533 333.967773438 519 361.967773438 499 c 0
 383.30078125 483.666992188 414.967773438 460 456.967773438 428 c 0
 498.30078125 394 526.30078125 356 540.967773438 314 c 0
 550.30078125 288 554.967773438 264.666992188 554.967773438 244 c 0
 554.967773438 209.333007812 546.30078125 176.666992188 528.967773438 146 c 0
 522.967773438 135.333007812 514.634765625 124 503.967773438 112 c 0
 495.967773438 102 477.634765625 86 448.967773438 64 c 0
 435.634765625 55.3330078125 413.30078125 45.3330078125 381.967773438 34 c 0
 341.967773438 19.3330078125 313.30078125 6.6669921875 295.967773438 -4 c 1
 244.634765625 34.6669921875 203.967773438 74 173.967773438 114 c 0
 155.967773438 138 143.634765625 158.5 136.967773438 175.5 c 0
 130.30078125 192.5 126.967773438 210.333007812 126.967773438 229 c 0xfa40
 126.967773438 264.333007812 141.634765625 298 170.967773438 330 c 0
 186.967773438 347.333007812 202.967773438 361.5 218.967773438 372.5 c 0
 234.967773438 383.5 258.634765625 396.666992188 289.967773438 412 c 1
 250.967773438 442 l 2
 229.634765625 458.666992188 212.30078125 480.666992188 198.967773438 508 c 0
 190.30078125 526 185.967773438 542.333007812 185.967773438 557 c 0
 185.967773438 592.333007812 206.30078125 621.333007812 246.967773438 644 c 0
 268.967773438 656 301.967773438 667.666992188 345.967773438 679 c 0
 380.595703125 687.00390625 421.1796875 690.75390625 448.170898438 690.75390625 c 0
 611.930664062 690.75390625 653.4375 552.708984375 653.4375 389.013671875 c 0xf6c0
 653.4375 286.629882812 644.112304688 174.212890625 644.112304688 79.2607421875 c 0
 644.112304688 -43.40625 670.967773438 -138 745.967773438 -142 c 0
 746.758789062 -142.041992188 747.541992188 -142.03125 748.315429688 -142.03125 c 0
 808.88671875 -142.03125 814.209960938 -78.826171875 814.209960938 -56.6103515625 c 0
 814.209960938 -51.873046875 813.967773438 -49 813.967773438 -49 c 1
 825.545898438 -61.80078125 833.032226562 -88.1328125 833.032226562 -116.377929688 c 0
 833.032226562 -165.31640625 810.559570312 -220 747.967773438 -220 c 0
 602.895507812 -220 571.076171875 -64.3681640625 571.076171875 116.68359375 c 0xf340
 571.076171875 194.573242188 575.114257812 277.16796875 575.114257812 354.099609375 c 0xf2c0
 575.114257812 525.810546875 564.997070312 669.30859375 434.954101562 669.30859375 c 0
 413.4375 669.30859375 378.911132812 665.379882812 350.967773438 657 c 0
EndSplineSet
Validated: 1048577
EndChar

StartChar: s
Encoding: 115 115 49
Width: 0
GlyphClass: 2
Flags: MW
HStem: -63.8486 32.3643
VStem: 276.803 12.0771
LayerCount: 2
Fore
SplineSet
-288.197265625 58 m 0
 -288.666015625 58.46875 -288.879882812 59.1669921875 -288.879882812 60.0439453125 c 0
 -288.879882812 68.0859375 -270.890625 91.2041015625 -266.739257812 91.2041015625 c 0
 -266.517578125 91.2041015625 -266.334960938 91.1376953125 -266.197265625 91 c 0
 -201.166015625 29.3916015625 -104.651367188 -31.484375 16.455078125 -31.484375 c 0
 36.8818359375 -31.484375 58.0087890625 -29.7529296875 79.802734375 -26 c 0
 163.802734375 -11 222.802734375 29 269.802734375 81 c 0
 272.802734375 84 274.802734375 88 276.802734375 91 c 2
 276.802734375 91 284.541015625 100.14453125 287.626953125 100.14453125 c 0
 288.219726562 100.14453125 288.641601562 99.806640625 288.802734375 99 c 0
 288.85546875 98.634765625 288.879882812 98.26171875 288.879882812 97.880859375 c 0
 288.879882812 90.97265625 280.646484375 81.791015625 277.802734375 78 c 0
 220.3515625 3.3994140625 130.548828125 -63.8486328125 3.3505859375 -63.8486328125 c 0
 -17.791015625 -63.8486328125 -39.9658203125 -61.990234375 -63.197265625 -58 c 0
 -155.197265625 -42 -231.197265625 3 -288.197265625 58 c 0
EndSplineSet
Validated: 1
EndChar

StartChar: t
Encoding: 116 116 50
Width: 800
GlyphClass: 2
Flags: MW
HStem: -220 78 -165 21G -69 20G<724.968 724.968> 396 71<430.968 566.968> 397 22<235.968 304.968 235.968 235.968> 625 87<405.301 478.634>
VStem: 304.968 126 313.968 109
AnchorPoint: "Anchor-2" 400 550 basechar 0
AnchorPoint: "Anchor-1" 400 0 basechar 0
LayerCount: 2
Fore
SplineSet
571.967773438 679 m 1x6e
 591.967773438 706 l 1
 611.967773438 695 l 1
 603.967773438 683 591.967773438 664.5 575.967773438 639.5 c 0
 559.967773438 614.5 547.967773438 595.666992188 539.967773438 583 c 1
 530.634765625 585.666992188 523.30078125 588.333007812 517.967773438 591 c 0
 504.634765625 598.333007812 491.634765625 605.333007812 478.967773438 612 c 0
 460.967773438 620.666992188 443.634765625 625 426.967773438 625 c 0
 383.634765625 625 361.967773438 604.333007812 361.967773438 563 c 0
 361.967773438 546.333007812 366.30078125 530 374.967773438 514 c 0
 387.634765625 491.333007812 408.30078125 477 436.967773438 471 c 0
 446.74609375 468.77734375 461.708984375 467.444335938 481.856445312 467 c 2
 566.967773438 467 l 1
 566.967773438 467 505.967773438 -94 656.967773438 -142 c 1
 732.967773438 -144 724.967773438 -49 724.967773438 -49 c 1
 756.607421875 -83.9794921875 757.685546875 -220 658.967773438 -220 c 0
 477.828125 -220 472.065429688 221.333984375 476.915039062 396.541015625 c 1
 430.967773438 396 l 1xb6
 422.967773438 193 l 2
 422.30078125 167.666992188 420.30078125 130.666992188 416.967773438 82 c 0
 414.30078125 55.3330078125 410.634765625 22.6669921875 405.967773438 -16 c 0
 397.967773438 -80 387.967773438 -129.666992188 375.967773438 -165 c 1
 372.634765625 -159.666992188 367.967773438 -151 361.967773438 -139 c 0
 353.30078125 -118.333007812 345.634765625 -86 338.967773438 -42 c 0
 325.634765625 14.6669921875 317.30078125 82.1669921875 313.967773438 160.5 c 0x75
 310.634765625 238.833007812 307.634765625 317.666992188 304.967773438 397 c 1
 235.967773438 397 l 1
 235.967773438 419 l 1
 251.30078125 423 261.634765625 427.333007812 266.967773438 432 c 0
 293.634765625 448.666992188 314.967773438 488.333007812 330.967773438 551 c 0
 338.30078125 579 345.30078125 601 351.967773438 617 c 0
 379.30078125 680.333007812 419.634765625 712 472.967773438 712 c 0
 484.30078125 712 493.634765625 711 500.967773438 709 c 0
 515.634765625 703 533.967773438 695 555.967773438 685 c 0
 559.967773438 683.666992188 565.30078125 681.666992188 571.967773438 679 c 1x6e
EndSplineSet
Validated: 1048609
EndChar

StartChar: v
Encoding: 118 118 51
Width: 800
GlyphClass: 2
Flags: MW
HStem: -220 78 -69 20G<701.968 701.968> -8 21G 482 20G<429.968 429.968>
VStem: 238.968 103
AnchorPoint: "Anchor-2" 400 550 basechar 0
AnchorPoint: "Anchor-1" 400 0 basechar 0
LayerCount: 2
Fore
SplineSet
559.967773438 431 m 1
 486.967773438 348 l 1
 364.967773438 425 l 1
 360.967773438 422.333007812 357.967773438 418 355.967773438 412 c 0
 346.634765625 388.666992188 341.967773438 351.333007812 341.967773438 300 c 0
 341.967773438 232.666992188 356.634765625 178.333007812 385.967773438 137 c 0
 401.967773438 114.333007812 418.967773438 103.333007812 436.967773438 104 c 0
 444.301757812 104 454.301757812 106.666992188 466.967773438 112 c 0
 482.42578125 118.396484375 498.309570312 127.349609375 514.619140625 138.859375 c 2
 543.967773438 161 l 1
 543.967773438 161 542.217773438 148.045898438 540.638671875 127.493164062 c 1
 540.967773438 127 l 1
 540.841796875 126.928710938 540.713867188 126.856445312 540.584960938 126.783203125 c 0
 534.651367188 48.673828125 531.475585938 -136.481445312 633.967773438 -142 c 0
 709.967773438 -144 701.967773438 -49 701.967773438 -49 c 1
 733.607421875 -83.9794921875 734.685546875 -220 635.967773438 -220 c 0
 492.916992188 -220 484.370117188 8.4541015625 485.85546875 89.7236328125 c 1
 485.067382812 89.1552734375 484.271484375 88.580078125 483.467773438 88 c 0
 455.801757812 68 439.301757812 56 433.967773438 52 c 0
 415.967773438 37.3330078125 395.301757812 17.3330078125 371.967773438 -8 c 1
 361.301757812 -0.6669921875 342.634765625 14.6669921875 315.967773438 38 c 0
 283.301757812 70.6669921875 260.967773438 109.333007812 248.967773438 154 c 0
 242.301757812 178.666992188 238.967773438 204.666992188 238.967773438 232 c 0
 238.967773438 269.333007812 243.634765625 302.666992188 252.967773438 332 c 0
 258.967773438 350.666992188 266.634765625 366.333007812 275.967773438 379 c 0
 280.634765625 385.666992188 292.467773438 397.166992188 311.467773438 413.5 c 0
 330.467773438 429.833007812 352.967773438 447.333007812 378.967773438 466 c 2
 429.967773438 502 l 1
 458.634765625 485.333007812 501.967773438 461.666992188 559.967773438 431 c 1
EndSplineSet
Validated: 1048609
EndChar

StartChar: y
Encoding: 121 121 52
Width: 800
GlyphClass: 2
Flags: MW
HStem: -220 78 -208 70<332.301 431.634> -69 21G -4 21G<298.968 298.968> 346 92<313.968 325.968 325.968 325.968 325.968 445.968>
VStem: 219.968 94 445.968 99 527.968 78
AnchorPoint: "Anchor-2" 400 550 basechar 0
AnchorPoint: "Anchor-1" 400 0 basechar 0
LayerCount: 2
Fore
SplineSet
313.967773438 346 m 1x3e
 313.967773438 210 l 2
 313.967773438 182 317.30078125 159.333007812 323.967773438 142 c 0
 331.967773438 121.333007812 347.30078125 102.666992188 369.967773438 86 c 1
 448.967773438 137 l 1
 446.967773438 147 445.967773438 161.333007812 445.967773438 180 c 2
 445.967773438 346 l 1
 313.967773438 346 l 1x3e
707.967773438 453 m 1
 707.967773438 453 646.967773438 -94 797.967773438 -142 c 1
 873.967773438 -144 865.967773438 -49 865.967773438 -49 c 1
 897.607421875 -83.9794921875 898.685546875 -220 799.967773438 -220 c 0
 629.796875 -220 614.40625 158.163085938 617.1875 345 c 1
 544.967773438 345 l 1
 544.967773438 254 l 2xbe
 544.967773438 212.666992188 549.634765625 183.666992188 558.967773438 167 c 0
 564.967773438 157.666992188 573.634765625 143.333007812 584.967773438 124 c 0
 598.967773438 96.6669921875 605.967773438 71 605.967773438 47 c 0
 605.967773438 12.3330078125 593.967773438 -22.3330078125 569.967773438 -57 c 0
 561.30078125 -69 546.634765625 -85.6669921875 525.967773438 -107 c 0
 459.967773438 -174.333007812 397.30078125 -208 337.967773438 -208 c 0
 326.634765625 -208 313.967773438 -206.666992188 299.967773438 -204 c 0
 288.634765625 -202 274.30078125 -197.333007812 256.967773438 -190 c 2
 214.967773438 -172 l 2
 204.30078125 -168 184.30078125 -162.333007812 154.967773438 -155 c 1
 187.634765625 -125 226.30078125 -86.6669921875 270.967773438 -40 c 1
 300.30078125 -86.6669921875 332.634765625 -116.333007812 367.967773438 -129 c 0
 384.634765625 -135 401.30078125 -138 417.967773438 -138 c 0
 445.30078125 -138 468.967773438 -129 488.967773438 -111 c 0
 514.967773438 -87.6669921875 527.967773438 -61.6669921875 527.967773438 -33 c 0x7d
 527.967773438 -4.3330078125 514.634765625 28.3330078125 487.967773438 65 c 0
 481.967773438 71.6669921875 470.634765625 87.6669921875 453.967773438 113 c 1
 298.967773438 -4 l 1
 294.30078125 0 287.80078125 6 279.467773438 14 c 0
 271.134765625 22 263.30078125 30.6669921875 255.967773438 40 c 0
 240.634765625 59.3330078125 230.634765625 77.3330078125 225.967773438 94 c 0
 221.967773438 108 219.967773438 128.333007812 219.967773438 155 c 2
 219.967773438 331 l 2
 219.967773438 366.333007812 215.30078125 397.333007812 205.967773438 424 c 1
 229.967773438 444 251.30078125 466 269.967773438 490 c 1
 285.30078125 472 303.967773438 454.666992188 325.967773438 438 c 1
 438.967773438 440 l 1
 458.30078125 456 477.634765625 474.333007812 496.967773438 495 c 1
 510.967773438 476.333007812 527.634765625 459 546.967773438 443 c 1
 564.59765625 443.568359375 589.26171875 444.865234375 620.959960938 446.889648438 c 2
 707.967773438 453 l 1
EndSplineSet
Validated: 1048609
EndChar

StartChar: asciitilde
Encoding: 126 126 53
Width: 800
GlyphClass: 2
Flags: MW
VStem: 357 86<801 801> 377 46<-200 -200>
LayerCount: 2
Fore
SplineSet
357 801 m 1x80
 443 801 l 1x80
 423 -200 l 1
 377 -200 l 1x40
 357 801 l 1x80
EndSplineSet
Validated: 1
EndChar

StartChar: uni0305
Encoding: 773 773 54
Width: 0
GlyphClass: 4
Flags: MW
HStem: 410 33<-391.759 -367.657 -368.657 -367.657 -367.657 -348.657 -348.657 348.723 348.723 367.723 367.723 368.723>
AnchorPoint: "Anchor-4" 0 476 basemark 0
AnchorPoint: "Anchor-4" 0 410 mark 0
AnchorPoint: "Anchor-2" 0 400 mark 0
LayerCount: 2
Fore
SplineSet
-388.657226562 410 m 2
 -394.861328125 410 -377.657226562 435 -375.657226562 437 c 0
 -374.657226562 438 -370.657226562 443 -368.657226562 443 c 2
 -367.657226562 443 l 1
 -348.657226562 443 l 1
 388.72265625 443 l 2
 394.72265625 443 377.72265625 419 375.72265625 417 c 0
 374.72265625 416 370.72265625 410 368.72265625 410 c 2
 367.72265625 410 l 1
 348.72265625 410 l 1
 -388.657226562 410 l 2
EndSplineSet
Validated: 1048577
EndChar

StartChar: uniEE00
Encoding: 60928 60928 55
Width: 800
Flags: W
HStem: -6 125<330 432.667> 580 116<408.667 420.667> 696 20G
VStem: 22 78<283.333 439.667> 211 119<332 341 341 592>
AnchorPoint: "Anchor-2" 400 550 basechar 0
AnchorPoint: "Anchor-1" 400 0 basechar 0
LayerCount: 2
Fore
SplineSet
552 674 m 2xd8
 537 638 l 2
 535.666992188 633.333007812 532.666992188 626 528 616 c 0
 524.666992188 610 520.333007812 603.333007812 515 596 c 1
 474.333007812 585.333007812 437.333007812 580 404 580 c 0xd8
 382.666992188 580 358 584 330 592 c 1
 330 341 l 2
 330 323 328 290 324 242 c 1
 209 172 l 1
 218.333007812 165.333007812 239 154.666992188 271 140 c 0
 277 138 285.333007812 135 296 131 c 0
 324.666992188 123 359 119 399 119 c 0
 466.333007812 119 523.666992188 136.666992188 571 172 c 0
 583 181.333007812 593.666992188 191.333007812 603 202 c 1
 595 172 581.666992188 142.666992188 563 114 c 0
 544.333007812 85.3330078125 520.666992188 61 492 41 c 0
 447.333007812 9.6669921875 398 -6 344 -6 c 0
 316 -6 288.333007812 -2.6669921875 261 4 c 0
 185.666992188 22.6669921875 125.333007812 64 80 128 c 0
 41.3330078125 182.666992188 22 246.666992188 22 320 c 0
 22 416 50 496.333007812 106 561 c 0
 118.666992188 575.666992188 135.333007812 591.333007812 156 608 c 0
 200.666992188 644 256 680 322 716 c 1xb8
 362 702.666992188 395.333007812 696 422 696 c 0
 434.666992188 696 449.666992188 697 467 699 c 0
 497.666992188 702.333007812 531.333007812 710 568 722 c 1
 564.666992188 711.333007812 559.333007812 695.333007812 552 674 c 2xd8
211 274 m 2
 211 624 l 1
 181.666992188 603.333007812 157.333007812 579.333007812 138 552 c 0
 112.666992188 516.666992188 100 469.333007812 100 410 c 0
 100 332 120 268 160 218 c 0
 164.666992188 212 176.333007812 200.333007812 195 183 c 1
 205.666992188 207.666992188 211 238 211 274 c 2
EndSplineSet
Validated: 1572865
EndChar

StartChar: uniEE01
Encoding: 60929 60929 56
Width: 800
Flags: W
HStem: -220 78<709.468 776.468 709.468 827.827> -6 125<389.468 509.514> 580 116<468.134 480.134> 696 20G
VStem: 81.4678 78 270.468 119
AnchorPoint: "Anchor-2" 400 550 basechar 0
AnchorPoint: "Anchor-1" 400 0 basechar 0
LayerCount: 2
Fore
SplineSet
270.467773438 274 m 2xcc
 270.467773438 624 l 1
 241.134765625 603.333007812 216.80078125 579.333007812 197.467773438 552 c 0
 172.134765625 516.666992188 159.467773438 469.333007812 159.467773438 410 c 0
 159.467773438 332 179.467773438 268 219.467773438 218 c 0
 224.134765625 212 235.80078125 200.333007812 254.467773438 183 c 1
 265.134765625 207.666992188 270.467773438 238 270.467773438 274 c 2xcc
611.467773438 674 m 2
 596.467773438 638 l 2
 595.134765625 633.333007812 592.134765625 626 587.467773438 616 c 0
 584.134765625 610 579.80078125 603.333007812 574.467773438 596 c 1
 533.80078125 585.333007812 496.80078125 580 463.467773438 580 c 0xec
 442.134765625 580 417.467773438 584 389.467773438 592 c 1
 389.467773438 341 l 2
 389.467773438 323 387.467773438 290 383.467773438 242 c 1
 268.467773438 172 l 1
 277.80078125 165.333007812 298.467773438 154.666992188 330.467773438 140 c 0
 336.467773438 138 344.80078125 135 355.467773438 131 c 0
 384.134765625 123 418.467773438 119 458.467773438 119 c 0
 560.559570312 119 630.444335938 163.462890625 682.467773438 223 c 1
 682.467773438 223 642.467773438 -142 776.467773438 -142 c 0
 852.467773438 -144 844.467773438 -49 844.467773438 -49 c 1
 876.107421875 -83.9794921875 877.185546875 -220 778.467773438 -220 c 0
 604.991210938 -220 578.840820312 -38.7822265625 577.6796875 61.734375 c 1
 569.463867188 54.37109375 560.7265625 47.4599609375 551.467773438 41 c 0
 506.80078125 9.6669921875 457.467773438 -6 403.467773438 -6 c 0
 375.467773438 -6 347.80078125 -2.6669921875 320.467773438 4 c 0
 245.134765625 22.6669921875 184.80078125 64 139.467773438 128 c 0
 100.80078125 182.666992188 81.4677734375 246.666992188 81.4677734375 320 c 0
 81.4677734375 416 109.467773438 496.333007812 165.467773438 561 c 0
 178.134765625 575.666992188 194.80078125 591.333007812 215.467773438 608 c 0
 260.134765625 644 315.467773438 680 381.467773438 716 c 1xdc
 421.467773438 702.666992188 454.80078125 696 481.467773438 696 c 0xec
 494.134765625 696 509.134765625 697 526.467773438 699 c 0
 557.134765625 702.333007812 590.80078125 710 627.467773438 722 c 1
 624.134765625 711.333007812 618.80078125 695.333007812 611.467773438 674 c 2
EndSplineSet
Validated: 1572897
EndChar

StartChar: uniEE02
Encoding: 60930 60930 57
Width: 800
Flags: W
HStem: -7 21G<104 104> 682 20G
VStem: 752 55<237 368.667>
AnchorPoint: "Anchor-2" 400 550 basechar 0
AnchorPoint: "Anchor-1" 400 0 basechar 0
LayerCount: 2
Fore
SplineSet
104 -7 m 1
 90 9 l 1
 125.333007812 39 178 84.3330078125 248 145 c 1
 246 161 242.333007812 176 237 190 c 0
 225 218 206.666992188 238.666992188 182 252 c 0
 160 264 135.333007812 270 108 270 c 0
 101.333007812 270 86.3330078125 268.333007812 63 265 c 1
 80.3330078125 317 102.333007812 360.333007812 129 395 c 0
 163.666992188 440.333007812 210 482.333007812 268 521 c 1
 258 522.333007812 229.666992188 525.333007812 183 530 c 0
 165 531.333007812 136.666992188 535.666992188 98 543 c 0
 74 549.666992188 50 561.666992188 26 579 c 1
 30.6669921875 593.666992188 38 616 48 646 c 0
 55.3330078125 664 63 682.666992188 71 702 c 1
 75.6669921875 698 84 691.666992188 96 683 c 0
 116 671 150.333007812 661.666992188 199 655 c 0
 265 648.333007812 363.333007812 636.333007812 494 619 c 0
 577.333007812 605 642.666992188 584 690 556 c 0
 704 547.333007812 718 536.333007812 732 523 c 0
 782 474.333007812 807 409.333007812 807 328 c 0
 807 306.666992188 804.666992188 286.666992188 800 268 c 0
 794 244.666992188 786.333007812 223.666992188 777 205 c 0
 759 169 733.666992188 137 701 109 c 0
 678.333007812 89.6669921875 633 62 565 26 c 0
 552.333007812 18.6669921875 532.666992188 7.6669921875 506 -7 c 1
 489.333007812 0.3330078125 471.333007812 6.6669921875 452 12 c 0
 382.666992188 31.3330078125 317.666992188 40.6669921875 257 40 c 0
 211.666992188 39.3330078125 177.333007812 34 154 24 c 0
 143.333007812 19.3330078125 126.666992188 9 104 -7 c 1
268 161 m 1
 340 223 l 1
 340 238.333007812 323.666992188 272.333007812 291 325 c 0
 273 354.333007812 259 377.666992188 249 395 c 1
 271.666992188 416.333007812 292.333007812 435 311 451 c 0
 317.666992188 456.333007812 343.333007812 476.333007812 388 511 c 1
 298 519 l 2
 294 516.333007812 288 512 280 506 c 0
 216 458 184 413.333007812 184 372 c 0
 184 366.666992188 185 361.333007812 187 356 c 0
 189.666992188 348.666992188 199.666992188 337.666992188 217 323 c 0
 253 291.666992188 271 250.666992188 271 200 c 0
 271 186 270 173 268 161 c 1
415 507 m 1
 387.666992188 485.666992188 374 464.333007812 374 443 c 0
 374 434.333007812 375.333007812 427 378 421 c 0
 380.666992188 415 399.333007812 383 434 325 c 0
 448 302.333007812 458.666992188 282 466 264 c 1
 413.333007812 240.666992188 362 209 312 169 c 1
 424 131.666992188 516.333007812 113 589 113 c 0
 632.333007812 113 667.333007812 121.666992188 694 139 c 0
 708.666992188 148.333007812 720 158.333007812 728 169 c 0
 744 190.333007812 752 219 752 255 c 0
 752 271 750.666992188 285.333007812 748 298 c 0
 744 316.666992188 739.333007812 332.666992188 734 346 c 0
 721.333007812 374 703 398.666992188 679 420 c 0
 674.333007812 424 663.666992188 431.666992188 647 443 c 0
 621.666992188 459 591.666992188 471.333007812 557 480 c 0
 528.333007812 488 481 497 415 507 c 1
EndSplineSet
Validated: 1572897
EndChar

StartChar: uniEE03
Encoding: 60931 60931 58
Width: 800
Flags: W
HStem: -220 78<885 885> -7 21G<80.4678 80.4678> 682 20G
AnchorPoint: "Anchor-2" 400 550 basechar 0
AnchorPoint: "Anchor-1" 400 0 basechar 0
LayerCount: 2
Fore
SplineSet
391.467773438 507 m 1
 364.134765625 485.666992188 350.467773438 464.333007812 350.467773438 443 c 0
 350.467773438 434.333007812 351.80078125 427 354.467773438 421 c 0
 357.134765625 415 375.80078125 383 410.467773438 325 c 0
 424.467773438 302.333007812 435.134765625 282 442.467773438 264 c 1
 389.80078125 240.666992188 338.467773438 209 288.467773438 169 c 1
 400.467773438 131.666992188 492.80078125 113 565.467773438 113 c 0
 608.80078125 113 645.80078125 118.922851562 670.467773438 139 c 0
 713.467773438 174 702.467773438 364 685.4296875 387.872070312 c 0
 677.064453125 399.592773438 666.6953125 410.020507812 655.467773438 420 c 0
 650.80078125 424 640.134765625 431.666992188 623.467773438 443 c 0
 598.134765625 459 568.134765625 471.333007812 533.467773438 480 c 0
 504.80078125 488 457.467773438 497 391.467773438 507 c 1
244.467773438 161 m 1
 316.467773438 223 l 1
 316.467773438 238.333007812 300.134765625 272.333007812 267.467773438 325 c 0
 249.467773438 354.333007812 235.467773438 377.666992188 225.467773438 395 c 1
 248.134765625 416.333007812 268.80078125 435 287.467773438 451 c 0
 294.134765625 456.333007812 319.80078125 476.333007812 364.467773438 511 c 1
 274.467773438 519 l 2
 270.467773438 516.333007812 264.467773438 512 256.467773438 506 c 0
 192.467773438 458 160.467773438 413.333007812 160.467773438 372 c 0
 160.467773438 366.666992188 161.467773438 361.333007812 163.467773438 356 c 0
 166.134765625 348.666992188 176.134765625 337.666992188 193.467773438 323 c 0
 229.467773438 291.666992188 247.467773438 250.666992188 247.467773438 200 c 0
 247.467773438 186 246.467773438 173 244.467773438 161 c 1
80.4677734375 -7 m 1
 66.4677734375 9 l 1
 101.80078125 39 154.467773438 84.3330078125 224.467773438 145 c 1
 222.467773438 161 218.80078125 176 213.467773438 190 c 0
 201.467773438 218 183.134765625 238.666992188 158.467773438 252 c 0
 136.467773438 264 111.80078125 270 84.4677734375 270 c 0
 77.80078125 270 62.80078125 268.333007812 39.4677734375 265 c 1
 56.80078125 317 78.80078125 360.333007812 105.467773438 395 c 0
 140.134765625 440.333007812 186.467773438 482.333007812 244.467773438 521 c 1
 234.467773438 522.333007812 206.134765625 525.333007812 159.467773438 530 c 0
 141.467773438 531.333007812 113.134765625 535.666992188 74.4677734375 543 c 0
 50.4677734375 549.666992188 26.4677734375 561.666992188 2.4677734375 579 c 1
 7.134765625 593.666992188 14.4677734375 616 24.4677734375 646 c 0
 31.80078125 664 39.4677734375 682.666992188 47.4677734375 702 c 1
 52.134765625 698 60.4677734375 691.666992188 72.4677734375 683 c 0
 92.4677734375 671 126.80078125 661.666992188 175.467773438 655 c 0
 241.467773438 648.333007812 339.80078125 636.333007812 470.467773438 619 c 0
 553.80078125 605 619.134765625 584 666.467773438 556 c 0
 680.467773438 547.333007812 694.467773438 536.333007812 708.467773438 523 c 0
 755.377929688 477.340820312 787.662109375 412.673828125 783.467773438 328 c 1
 783.467773438 153.5859375 773.559570312 -123.875976562 885.467773438 -142 c 1
 961.467773438 -144 951.467773438 -49 951.467773438 -49 c 1
 983.107421875 -83.9794921875 984.185546875 -220 885.467773438 -220 c 0
 717.467773438 -220 706.467773438 -45 691.467773438 122.580078125 c 1
 681.188476562 110.811523438 689.85546875 119.618164062 677.467773438 109 c 0
 654.80078125 89.6669921875 609.467773438 62 541.467773438 26 c 0
 528.80078125 18.6669921875 509.134765625 7.6669921875 482.467773438 -7 c 1
 465.80078125 0.3330078125 447.80078125 6.6669921875 428.467773438 12 c 0
 359.134765625 31.3330078125 294.134765625 40.6669921875 233.467773438 40 c 0
 188.134765625 39.3330078125 153.80078125 34 130.467773438 24 c 0
 119.80078125 19.3330078125 103.134765625 9 80.4677734375 -7 c 1
EndSplineSet
Validated: 1572897
EndChar

StartChar: uniEE04
Encoding: 60932 60932 59
Width: 800
Flags: W
HStem: -3 79<488.5 606.833> 374 92<549.5 634.5> 681 21G
VStem: 109.5 119<351.333 378 378 516 516 537.333> 315.5 113<464 517 517 533.667>
AnchorPoint: "Anchor-2" 400 550 basechar 0
AnchorPoint: "Anchor-1" 400 0 basechar 0
LayerCount: 2
Fore
SplineSet
426.5 620 m 1
 579.5 701 l 1
 617.5 676.333007812 641.5 652.666992188 651.5 630 c 0
 656.833007812 618 659.5 606 659.5 594 c 0
 659.5 576 655.166992188 560.333007812 646.5 547 c 0
 635.166992188 529 602.833007812 502 549.5 466 c 1
 678.5 466 l 1
 634.5 374 l 1
 429.5 374 l 1
 428.833007812 356.666992188 427.5 343.666992188 425.5 335 c 0
 422.833007812 317.666992188 417.833007812 305 410.5 297 c 0
 403.166992188 289 377.166992188 271.666992188 332.5 245 c 0
 317.166992188 236.333007812 294.5 223.333007812 264.5 206 c 1
 276.5 206 290.166992188 205 305.5 203 c 0
 351.5 197 403.166992188 174.333007812 460.5 135 c 0
 494.5 111.666992188 516.5 97.6669921875 526.5 93 c 0
 548.5 81.6669921875 572.166992188 76 597.5 76 c 0
 616.166992188 76 634.833007812 80.3330078125 653.5 89 c 0
 658.833007812 91 666.833007812 95.3330078125 677.5 102 c 0
 682.166992188 105.333007812 688.833007812 110.333007812 697.5 117 c 1
 707.5 99 l 1
 664.166992188 62.3330078125 623.166992188 35.3330078125 584.5 18 c 0
 553.833007812 4 525.166992188 -3 498.5 -3 c 0
 478.5 -3 459.833007812 0.1669921875 442.5 6.5 c 0
 425.166992188 12.8330078125 403.5 23.6669921875 377.5 39 c 0
 326.166992188 70.3330078125 295.166992188 89 284.5 95 c 0
 239.833007812 120.333007812 203.5 133 175.5 133 c 0
 146.833007812 133 103.5 119 45.5 91 c 1
 36.5 108 l 1
 73.8330078125 125.333007812 129.5 153.333007812 203.5 192 c 0
 224.833007812 204.666992188 239.833007812 213.666992188 248.5 219 c 0
 264.5 230.333007812 277.833007812 242 288.5 254 c 0
 306.5 274.666992188 315.5 302 315.5 336 c 2
 315.5 517 l 2
 315.5 550.333007812 314.833007812 570.666992188 313.5 578 c 0
 309.5 600.666992188 301.166992188 616 288.5 624 c 2
 282.5 628 l 1
 345.166992188 663.333007812 406.166992188 693.666992188 465.5 719 c 1
 460.166992188 709.666992188 452.833007812 696 443.5 678 c 0
 437.5 664 431.833007812 644.666992188 426.5 620 c 1
283.5 717 m 1
 292.5 700 l 2
 289.166992188 698 284.833007812 695 279.5 691 c 0
 257.5 675.666992188 244.166992188 665 239.5 659 c 0
 232.166992188 647 228.5 625.666992188 228.5 595 c 2
 228.5 378 l 2
 228.5 324.666992188 212.166992188 285 179.5 259 c 0
 157.5 241.666992188 124.5 221.666992188 80.5 199 c 0
 67.8330078125 192.333007812 43.8330078125 181 8.5 165 c 1
 0.5 183 l 1
 15.1669921875 189 38.8330078125 202 71.5 222 c 0
 86.8330078125 233.333007812 97.8330078125 247.333007812 104.5 264 c 0
 107.833007812 272.666992188 109.5 289.333007812 109.5 314 c 2
 109.5 516 l 2
 109.5 558.666992188 113.5 589.666992188 121.5 609 c 1
 156.833007812 640.333007812 210.833007812 676.333007812 283.5 717 c 1
428.5 601 m 1
 428.5 464 l 1
 521.5 464 l 1
 542.166992188 488 552.166992188 510 551.5 530 c 0
 550.833007812 550 543.5 566 529.5 578 c 0
 509.5 594.666992188 483.833007812 603 452.5 603 c 0
 443.833007812 603 435.833007812 602.333007812 428.5 601 c 1
EndSplineSet
Validated: 1572897
EndChar

StartChar: uniEE05
Encoding: 60933 60933 60
Width: 800
Flags: W
HStem: -160 24<333.5 342.833> 370 92<431.5 543.5 431.5 431.5> 573 121 688 34<355.833 417.167>
VStem: 441.5 104<-24.3335 125>
AnchorPoint: "Anchor-2" 400 550 basechar 0
AnchorPoint: "Anchor-1" 400 0 basechar 0
LayerCount: 2
Fore
SplineSet
365.5 462 m 1xd8
 582.5 462 l 1
 543.5 370 l 1
 431.5 370 l 1
 440.833007812 356.666992188 454.5 336 472.5 308 c 0
 521.166992188 234 545.5 161 545.5 89 c 0
 545.5 33.6669921875 529.833007812 -17.6669921875 498.5 -65 c 0
 483.833007812 -87.6669921875 463.5 -107.666992188 437.5 -125 c 0
 402.833007812 -148.333007812 364.166992188 -160 321.5 -160 c 0
 267.5 -160 215.833007812 -140.333007812 166.5 -101 c 0
 136.5 -77 110.833007812 -46 89.5 -8 c 0
 86.1669921875 -2 80.8330078125 7.3330078125 73.5 20 c 0
 63.5 36 46.1669921875 49 21.5 59 c 1
 22.5 79 l 1
 76.5 75.6669921875 131.166992188 78.6669921875 186.5 88 c 1
 187.833007812 80 190.833007812 66.8330078125 195.5 48.5 c 0
 200.166992188 30.1669921875 205.833007812 12 212.5 -6 c 0
 225.833007812 -40 241.166992188 -67.6669921875 258.5 -89 c 0
 284.5 -120.333007812 315.5 -136 351.5 -136 c 0
 366.833007812 -136 381.166992188 -131.333007812 394.5 -122 c 0
 425.833007812 -100 441.5 -56.6669921875 441.5 8 c 0
 441.5 59.3330078125 428.833007812 110.666992188 403.5 162 c 0
 387.5 195.333007812 338.5 264.666992188 256.5 370 c 1
 168.5 370 l 1
 184.5 380.666992188 197.166992188 393.333007812 206.5 408 c 0
 218.5 426 226.833007812 451.333007812 231.5 484 c 0
 233.5 506 237.5 539 243.5 583 c 0
 252.833007812 631.666992188 275.5 668.333007812 311.5 693 c 0
 339.5 712.333007812 373.166992188 722 412.5 722 c 0xd8
 421.833007812 722 433.166992188 721 446.5 719 c 0
 461.833007812 715 484.166992188 709.333007812 513.5 702 c 0
 530.166992188 698 552.833007812 695.333007812 581.5 694 c 1
 576.833007812 675.333007812 574.5 657.666992188 574.5 641 c 0
 574.5 625.666992188 577.166992188 602 582.5 570 c 1
 528.5 573 l 2xe8
 507.833007812 573 486.5 570 464.5 564 c 1
 463.833007812 573.333007812 461.833007812 588.666992188 458.5 610 c 0
 453.833007812 627.333007812 445.166992188 643 432.5 657 c 0
 413.833007812 677.666992188 391.166992188 688 364.5 688 c 0
 347.166992188 688 331.5 682.333007812 317.5 671 c 0
 300.166992188 656.333007812 291.5 636 291.5 610 c 0
 291.5 579.333007812 316.166992188 530 365.5 462 c 1xd8
EndSplineSet
Validated: 1572897
EndChar

StartChar: uniEE06
Encoding: 60934 60934 61
Width: 800
Flags: W
HStem: -220 78 -160 24<354.968 364.301> 370 92<452.968 609.716 452.968 452.968> 573 121 688 34<377.301 438.634>
VStem: 462.968 104
AnchorPoint: "Anchor-2" 400 550 basechar 0
AnchorPoint: "Anchor-1" 400 0 basechar 0
LayerCount: 2
Fore
SplineSet
723.967773438 462 m 1x2c
 723.967773438 462 659.967773438 -117 813.967773438 -142 c 1
 889.967773438 -144 881.967773438 -49 881.967773438 -49 c 1
 913.607421875 -83.9794921875 914.685546875 -220 815.967773438 -220 c 0xac
 602.046875 -220 599.516601562 183.833007812 609.715820312 370 c 1
 452.967773438 370 l 1
 462.30078125 356.666992188 475.967773438 336 493.967773438 308 c 0
 542.634765625 234 566.967773438 161 566.967773438 89 c 0
 566.967773438 33.6669921875 551.30078125 -17.6669921875 519.967773438 -65 c 0
 505.30078125 -87.6669921875 484.967773438 -107.666992188 458.967773438 -125 c 0
 424.30078125 -148.333007812 385.634765625 -160 342.967773438 -160 c 0
 288.967773438 -160 237.30078125 -140.333007812 187.967773438 -101 c 0
 157.967773438 -77 132.30078125 -46 110.967773438 -8 c 0
 107.634765625 -2 102.30078125 7.3330078125 94.9677734375 20 c 0
 84.9677734375 36 67.634765625 49 42.9677734375 59 c 1
 43.9677734375 79 l 1
 97.9677734375 75.6669921875 152.634765625 78.6669921875 207.967773438 88 c 1
 209.30078125 80 212.30078125 66.8330078125 216.967773438 48.5 c 0
 221.634765625 30.1669921875 227.30078125 12 233.967773438 -6 c 0
 247.30078125 -40 262.634765625 -67.6669921875 279.967773438 -89 c 0
 305.967773438 -120.333007812 336.967773438 -136 372.967773438 -136 c 0
 388.30078125 -136 402.634765625 -131.333007812 415.967773438 -122 c 0
 447.30078125 -100 462.967773438 -56.6669921875 462.967773438 8 c 0
 462.967773438 59.3330078125 450.30078125 110.666992188 424.967773438 162 c 0
 408.967773438 195.333007812 359.967773438 264.666992188 277.967773438 370 c 1
 189.967773438 370 l 1
 205.967773438 380.666992188 218.634765625 393.333007812 227.967773438 408 c 0
 239.967773438 426 248.30078125 451.333007812 252.967773438 484 c 0
 254.967773438 506 258.967773438 539 264.967773438 583 c 0
 274.30078125 631.666992188 296.967773438 668.333007812 332.967773438 693 c 0
 360.967773438 712.333007812 394.634765625 722 433.967773438 722 c 0x6c
 443.30078125 722 454.634765625 721 467.967773438 719 c 0
 483.30078125 715 505.634765625 709.333007812 534.967773438 702 c 0
 551.634765625 698 574.30078125 695.333007812 602.967773438 694 c 1
 598.30078125 675.333007812 595.967773438 657.666992188 595.967773438 641 c 0
 595.967773438 625.666992188 598.634765625 602 603.967773438 570 c 1
 549.967773438 573 l 2x34
 529.30078125 573 507.967773438 570 485.967773438 564 c 1
 485.30078125 573.333007812 483.30078125 588.666992188 479.967773438 610 c 0
 475.30078125 627.333007812 466.634765625 643 453.967773438 657 c 0
 435.30078125 677.666992188 412.634765625 688 385.967773438 688 c 0
 368.634765625 688 352.967773438 682.333007812 338.967773438 671 c 0
 321.634765625 656.333007812 312.967773438 636 312.967773438 610 c 0
 312.967773438 579.333007812 337.634765625 530 386.967773438 462 c 1
 723.967773438 462 l 1x2c
EndSplineSet
Validated: 1572897
EndChar

StartChar: uniEE07
Encoding: 60935 60935 62
Width: 800
Flags: W
HStem: -2 48<419.167 534.5> 697 21G
VStem: 37.5 116<264.333 422.667> 364.5 119<345.667 373 402 477 477 477> 687.5 108<198.667 326.667> 719.5 37<665 695.333>
AnchorPoint: "Anchor-2" 400 550 basechar 0
AnchorPoint: "Anchor-1" 400 0 basechar 0
LayerCount: 2
Fore
SplineSet
483.5 488 m 2xf4
 483.5 402 l 1
 488.166992188 406 495.833007812 411.333007812 506.5 418 c 0
 517.166992188 424.666992188 533.5 435.666992188 555.5 451 c 0
 577.5 466.333007812 610.833007812 490 655.5 522 c 1
 670.166992188 515.333007812 681.5 509 689.5 503 c 0
 716.833007812 482.333007812 739.166992188 458.666992188 756.5 432 c 0xf4
 782.5 392 795.5 349.333007812 795.5 304 c 0xf8
 795.5 278.666992188 790.5 251 780.5 221 c 0
 761.833007812 167 729.833007812 121.666992188 684.5 85 c 0
 668.5 71.6669921875 649.166992188 59 626.5 47 c 0
 566.5 14.3330078125 504.5 -2 440.5 -2 c 0
 397.833007812 -2 350.5 6 298.5 22 c 0
 239.833007812 40 191.166992188 63.6669921875 152.5 93 c 0
 75.8330078125 150.333007812 37.5 221.666992188 37.5 307 c 0
 37.5 377 59.8330078125 439.333007812 104.5 494 c 0
 121.833007812 515.333007812 149.833007812 541 188.5 571 c 0
 203.166992188 582.333007812 225.166992188 598.666992188 254.5 620 c 0
 275.833007812 634 325.833007812 666.333007812 404.5 717 c 1
 443.166992188 704.333007812 500.833007812 687 577.5 665 c 0
 620.833007812 654.333007812 652.833007812 649 673.5 649 c 0
 704.166992188 649 719.5 657 719.5 673 c 0
 719.5 675 719 678.166992188 718 682.5 c 0
 717 686.833007812 716.5 690 716.5 692 c 0
 716.5 704 722.5 710 734.5 710 c 0
 749.166992188 710 756.5 702.666992188 756.5 688 c 0
 756.5 682.666992188 750.166992188 671.333007812 737.5 654 c 0
 731.5 644.666992188 721.833007812 631 708.5 613 c 0
 686.5 585 661.166992188 557.333007812 632.5 530 c 1
 575.166992188 540.666992188 528.166992188 550.333007812 491.5 559 c 1
 486.166992188 538.333007812 483.5 514.666992188 483.5 488 c 2xf4
364.5 229 m 2
 364.5 477 l 1
 403.166992188 501.666992188 431.166992188 522 448.5 538 c 0
 455.833007812 544.666992188 463.833007812 553 472.5 563 c 1
 388.5 585.666992188 325.833007812 602.333007812 284.5 613 c 1
 264.5 599 250.833007812 589 243.5 583 c 0
 224.166992188 566.333007812 207.5 547.666992188 193.5 527 c 0
 166.833007812 487.666992188 153.5 445.333007812 153.5 400 c 0
 153.5 358.666992188 161.5 319 177.5 281 c 0
 183.5 267 190.5 253.333007812 198.5 240 c 0
 202.5 232.666992188 211.5 219.333007812 225.5 200 c 0
 256.833007812 161.333007812 292.166992188 131.333007812 331.5 110 c 1
 347.5 131.333007812 357.166992188 149 360.5 163 c 0
 363.166992188 173.666992188 364.5 195.666992188 364.5 229 c 2
483.5 373 m 1
 483.5 318.333007812 483.166992188 281.666992188 482.5 263 c 0
 481.833007812 241.666992188 480.166992188 223.666992188 477.5 209 c 1
 428.166992188 170.333007812 384.833007812 133.666992188 347.5 99 c 1
 418.166992188 63.6669921875 475.166992188 46 518.5 46 c 0
 550.5 46 578.833007812 51 603.5 61 c 0
 608.833007812 63.6669921875 619.833007812 70.6669921875 636.5 82 c 0
 645.166992188 88.6669921875 654.166992188 98.6669921875 663.5 112 c 0
 679.5 138.666992188 687.5 175.333007812 687.5 222 c 0xf8
 687.5 246 684.5 267.333007812 678.5 286 c 0
 669.166992188 316 653.166992188 341.333007812 630.5 362 c 0
 605.166992188 386.666992188 576.833007812 399 545.5 399 c 0
 521.5 399 500.833007812 390.333007812 483.5 373 c 1
EndSplineSet
Validated: 1572865
EndChar

StartChar: uniEE08
Encoding: 60936 60936 63
Width: 800
Flags: W
HStem: -220 78 -2 48<276.683 411.968> 697 21G
VStem: -15.0322 116 241.968 119 564.968 108 783.968 40
AnchorPoint: "Anchor-2" 400 550 basechar 0
AnchorPoint: "Anchor-1" 400 0 basechar 0
LayerCount: 2
Fore
SplineSet
360.967773438 373 m 1
 360.967773438 318.333007812 360.634765625 281.666992188 359.967773438 263 c 0
 359.30078125 241.666992188 357.634765625 223.666992188 354.967773438 209 c 1
 305.634765625 170.333007812 262.30078125 133.666992188 224.967773438 99 c 1
 295.634765625 63.6669921875 352.634765625 46 395.967773438 46 c 0
 427.967773438 46 456.30078125 51 480.967773438 61 c 0
 486.30078125 63.6669921875 497.30078125 70.6669921875 513.967773438 82 c 0
 522.634765625 88.6669921875 531.634765625 98.6669921875 540.967773438 112 c 0
 556.967773438 138.666992188 564.967773438 175.333007812 564.967773438 222 c 0
 564.967773438 246 561.967773438 267.333007812 555.967773438 286 c 0
 546.634765625 316 530.634765625 341.333007812 507.967773438 362 c 0
 482.634765625 386.666992188 454.30078125 399 422.967773438 399 c 0
 398.967773438 399 378.30078125 390.333007812 360.967773438 373 c 1
241.967773438 229 m 2
 241.967773438 477 l 1
 280.634765625 501.666992188 308.634765625 522 325.967773438 538 c 0
 333.30078125 544.666992188 341.30078125 553 349.967773438 563 c 1
 265.967773438 585.666992188 248.30078125 585.333007812 206.967773438 596 c 1
 188.46875 583.05078125 162.41796875 558.665039062 140.967773438 527 c 0
 114.30078125 487.666992188 100.967773438 445.333007812 100.967773438 400 c 0
 100.967773438 266.396484375 121.865234375 157.2421875 208.967773438 110 c 1
 224.967773438 131.333007812 234.634765625 149 237.967773438 163 c 0
 240.634765625 173.666992188 241.967773438 195.666992188 241.967773438 229 c 2
360.967773438 488 m 2
 360.967773438 402 l 1
 365.634765625 406 373.30078125 411.333007812 383.967773438 418 c 0
 394.634765625 424.666992188 410.967773438 435.666992188 432.967773438 451 c 0
 454.967773438 466.333007812 488.30078125 490 532.967773438 522 c 1
 547.634765625 515.333007812 558.967773438 509 566.967773438 503 c 0
 594.30078125 482.333007812 616.634765625 458.666992188 633.967773438 432 c 0
 659.967773438 392 672.967773438 349.333007812 672.967773438 304 c 0
 672.967773438 278.666992188 667.967773438 251 657.967773438 221 c 0
 639.30078125 167 607.30078125 121.666992188 561.967773438 85 c 0
 545.967773438 71.6669921875 526.634765625 59 503.967773438 47 c 0
 443.967773438 14.3330078125 381.967773438 -2 317.967773438 -2 c 0
 235.397460938 -2 150.017578125 55.03125 99.9677734375 93 c 0
 23.30078125 150.333007812 -15.0322265625 221.666992188 -15.0322265625 307 c 0
 -15.0322265625 377 7.30078125 439.333007812 51.9677734375 494 c 0
 69.30078125 515.333007812 97.30078125 541 135.967773438 571 c 0
 150.634765625 582.333007812 172.634765625 598.666992188 201.967773438 620 c 0
 223.30078125 634 273.30078125 666.333007812 351.967773438 717 c 1
 354.543945312 699.048828125 784.8203125 577.236328125 786.967773438 673 c 0
 787.012695312 674.999023438 786.467773438 678.166992188 785.467773438 682.5 c 0
 784.467773438 686.833007812 783.967773438 690 783.967773438 692 c 0
 783.967773438 704 789.967773438 710 801.967773438 710 c 0
 816.634765625 710 823.967773438 702.666992188 823.967773438 688 c 0
 823.967773438 684.541992188 821.3046875 678.559570312 815.978515625 670.055664062 c 0
 795.541992188 535.46484375 762.079101562 -111.049804688 917.967773438 -142 c 1
 993.967773438 -144 985.967773438 -49 985.967773438 -49 c 1
 1017.60742188 -83.9794921875 1018.68554688 -220 919.967773438 -220 c 0
 610.967773438 -220 708.481445312 508.516601562 710.8828125 540.873046875 c 1
 627.967773438 526 443.333984375 536.100585938 368.967773438 559 c 1
 363.634765625 538.333007812 360.967773438 514.666992188 360.967773438 488 c 2
EndSplineSet
Validated: 1572897
EndChar

StartChar: uniEE09
Encoding: 60937 60937 64
Width: 800
Flags: W
HStem: -5 21G<538.5 538.5> 692 20G
VStem: -17.5 59<517.333 588.333> 283.5 115<363.333 519> 465.5 122<191.333 211 211 540 540 542>
AnchorPoint: "Anchor-2" 400 550 basechar 0
AnchorPoint: "Anchor-1" 400 0 basechar 0
LayerCount: 2
Fore
SplineSet
400.5 82 m 1
 465.5 124 l 1
 465.5 540 l 2
 465.5 565.333007812 472.833007812 585.333007812 487.5 600 c 0
 491.5 604 501.833007812 611.666992188 518.5 623 c 0
 555.166992188 647.666992188 606.166992188 677.333007812 671.5 712 c 1
 662.166992188 704.666992188 645.833007812 687 622.5 659 c 0
 599.166992188 626.333007812 587.5 587.333007812 587.5 542 c 2
 587.5 211 l 2
 587.5 171.666992188 594.166992188 142 607.5 122 c 0
 614.833007812 111.333007812 622.833007812 103.666992188 631.5 99 c 0
 636.833007812 96.3330078125 643.5 95 651.5 95 c 0
 663.5 95 685.166992188 101.333007812 716.5 114 c 1
 725.5 98 l 1
 538.5 -5 l 1
 503.833007812 31.6669921875 480.833007812 67.3330078125 469.5 102 c 1
 433.5 78 380.166992188 41.3330078125 309.5 -8 c 1
 294.833007812 4 265.833007812 23.6669921875 222.5 51 c 0
 213.833007812 55.6669921875 199.5 62.3330078125 179.5 71 c 0
 146.166992188 85 108.166992188 92.6669921875 65.5 94 c 1
 86.1669921875 103.333007812 105.333007812 113.666992188 123 125 c 0
 140.666992188 136.333007812 169.166992188 159.333007812 208.5 194 c 0
 218.5 204.666992188 228.833007812 217.666992188 239.5 233 c 0
 252.166992188 251 260.833007812 266.333007812 265.5 279 c 0
 277.5 310.333007812 283.5 344.666992188 283.5 382 c 0
 283.5 434.666992188 273.833007812 479.333007812 254.5 516 c 0
 244.5 534.666992188 230.5 552.666992188 212.5 570 c 0
 182.5 598.666992188 147.166992188 613 106.5 613 c 0
 97.1669921875 613 88.1669921875 612.333007812 79.5 611 c 0
 54.1669921875 607 41.5 596.666992188 41.5 580 c 0
 41.5 576.666992188 42.1669921875 572 43.5 566 c 0
 47.5 548.666992188 59.8330078125 527 80.5 501 c 1
 4.5 472 l 1
 -10.1669921875 489.333007812 -17.5 507.666992188 -17.5 527 c 0
 -17.5 555.666992188 1.1669921875 585.333007812 38.5 616 c 0
 81.8330078125 651.333007812 131.5 680.666992188 187.5 704 c 2
 199.5 709 l 1
 235.5 704.333007812 269.166992188 691 300.5 669 c 0
 365.833007812 622.333007812 398.5 559 398.5 479 c 0
 398.5 408.333007812 368.166992188 336.333007812 307.5 263 c 0
 292.833007812 245 264.833007812 217 223.5 179 c 1
 273.5 159 332.5 126.666992188 400.5 82 c 1
EndSplineSet
Validated: 1572865
EndChar

StartChar: uniEE0A
Encoding: 60938 60938 65
Width: 800
Flags: W
HStem: -5 40<455 604.667> 126 20<43 48> 170 21<29 35> 696 20G
VStem: 334 120<407.667 492.667> 733 92<166 269.667>
AnchorPoint: "Anchor-2" 400 550 basechar 0
AnchorPoint: "Anchor-1" 400 0 basechar 0
LayerCount: 2
Fore
SplineSet
783 581 m 1
 750 554 l 2
 744.666992188 549.333007812 732.166992188 540 712.5 526 c 0
 692.833007812 512 677 501.333007812 665 494 c 0
 653 486.666992188 643.666992188 481 637 477 c 1
 734.333007812 447.666992188 795 392 819 310 c 0
 823 296 825 279.333007812 825 260 c 0
 825 192.666992188 798 133.333007812 744 82 c 0
 682.666992188 24 602.333007812 -5 503 -5 c 0
 407 -5 305.333007812 23.6669921875 198 81 c 0
 172.666992188 94.3330078125 141.666992188 109.666992188 105 127 c 0
 100.333007812 128.333007812 92.6669921875 129.666992188 82 131 c 2
 48 126 l 1
 43 146 l 1
 77 152 114.666992188 159.333007812 156 168 c 0
 190 175.333007812 222 183.333007812 252 192 c 1
 277.333007812 180.666992188 306.666992188 162.666992188 340 138 c 0
 380 108 417.333007812 85 452 69 c 0
 501.333007812 46.3330078125 547.666992188 35 591 35 c 0
 618.333007812 35 642.666992188 41 664 53 c 0
 682 63 697.333007812 78.3330078125 710 99 c 0
 725.333007812 123.666992188 733 151 733 181 c 0
 733 194.333007812 731.333007812 207 728 219 c 0
 712.666992188 273.666992188 674 318.333007812 612 353 c 0
 572.666992188 375 533.333007812 386 494 386 c 0
 476.666992188 386 454 381 426 371 c 1
 394 314.333007812 345.333007812 269.666992188 280 237 c 0
 240.666992188 217 159 194.666992188 35 170 c 1
 29 191 l 1
 75.6669921875 199 120.333007812 210 163 224 c 0
 178.333007812 229.333007812 192.666992188 235.333007812 206 242 c 0
 235.333007812 256.666992188 259.333007812 274.333007812 278 295 c 0
 315.333007812 336.333007812 334 382.333007812 334 433 c 0
 334 485.666992188 317.333007812 528 284 560 c 0
 246.666992188 596 196.666992188 614 134 614 c 0
 114.666992188 614 87.3330078125 610 52 602 c 1
 96 628 161.666992188 666 249 716 c 1
 259.666992188 714 275 710 295 704 c 0
 340.333007812 685.333007812 378 657.333007812 408 620 c 0
 416.666992188 609.333007812 427 592.666992188 439 570 c 1
 512.333007812 627.333007812 573.666992188 677.666992188 623 721 c 1
 661 675 695.666992188 640.333007812 727 617 c 0
 733.666992188 611.666992188 743.666992188 604.666992188 757 596 c 0
 759.666992188 594 768.333007812 589 783 581 c 1
525 609 m 1
 445 548 l 1
 451 521.333007812 454 500.333007812 454 485 c 0
 454 468.333007812 449 440 439 400 c 1
 452.333007812 405.333007812 473 414 501 426 c 0
 556.333007812 451.333007812 610.333007812 482.666992188 663 520 c 1
 638.333007812 539.333007812 615.666992188 557.666992188 595 575 c 0
 566.333007812 599 543 610.333007812 525 609 c 1
EndSplineSet
Validated: 1572897
EndChar

StartChar: uniEE0B
Encoding: 60939 60939 66
Width: 800
Flags: W
HStem: -96 32<397.167 465.833>
VStem: 241.5 64<-8 70> 241.5 125<47.3335 93> 598.5 124<121.667 187.333>
AnchorPoint: "Anchor-2" 400 550 basechar 0
AnchorPoint: "Anchor-1" 400 0 basechar 0
LayerCount: 2
Fore
SplineSet
479.5 730 m 1xd0
 398.5 757 l 1
 405.5 779 l 1
 433.5 769.666992188 483.5 755.333007812 555.5 736 c 0
 572.833007812 732 594.5 727.666992188 620.5 723 c 0
 627.833007812 721.666992188 637.833007812 720.333007812 650.5 719 c 1
 598.5 643 539.833007812 580 474.5 530 c 0
 455.833007812 516 435.5 502.333007812 413.5 489 c 0
 355.5 454.333007812 274.833007812 415.666992188 171.5 373 c 1
 178.166992188 362.333007812 187.5 346.333007812 199.5 325 c 0
 202.833007812 319 212.833007812 299.333007812 229.5 266 c 1
 264.166992188 278.666992188 294.5 290.333007812 320.5 301 c 0
 379.166992188 327 467.833007812 365 586.5 415 c 1
 591.833007812 409.666992188 600.166992188 402 611.5 392 c 0
 648.833007812 356 675.5 322.333007812 691.5 291 c 0
 712.166992188 251.666992188 722.5 209.666992188 722.5 165 c 0
 722.5 143 717.833007812 117.333007812 708.5 88 c 0
 695.833007812 48 675.166992188 14 646.5 -14 c 0
 626.5 -33.3330078125 600.5 -50.6669921875 568.5 -66 c 0
 527.166992188 -86 486.166992188 -96 445.5 -96 c 0
 424.166992188 -96 406.5 -94.6669921875 392.5 -92 c 0
 372.5 -88 356.166992188 -83.3330078125 343.5 -78 c 0
 316.166992188 -66 293.166992188 -48.6669921875 274.5 -26 c 0
 252.5 0.6669921875 241.5 30.6669921875 241.5 64 c 0
 241.5 76 242.833007812 86 245.5 94 c 0
 256.166992188 126.666992188 277.166992188 143 308.5 143 c 0
 325.833007812 143 339.833007812 137.333007812 350.5 126 c 0
 361.166992188 114.666992188 366.5 101 366.5 85 c 0xb0
 365.833007812 63 355.5 46.3330078125 335.5 35 c 0
 315.5 27 305.5 15.6669921875 305.5 1 c 0
 305.5 -17 316.833007812 -32.6669921875 339.5 -46 c 0
 360.166992188 -58 383.833007812 -64 410.5 -64 c 0
 422.5 -64 433.833007812 -63 444.5 -61 c 0
 511.166992188 -48.3330078125 557.166992188 -11.3330078125 582.5 50 c 0
 593.166992188 76 598.5 105.333007812 598.5 138 c 0
 598.5 151.333007812 597.833007812 162.666992188 596.5 172 c 0
 589.833007812 216 571.5 250.333007812 541.5 275 c 0
 520.166992188 292.333007812 494.833007812 301 465.5 301 c 0
 452.166992188 301 430.5 297.666992188 400.5 291 c 0
 332.5 275.666992188 238.833007812 240 119.5 184 c 1
 91.5 245.333007812 60.8330078125 295.666992188 27.5 335 c 1
 93.5 365 l 2
 158.166992188 397.666992188 227.166992188 445.333007812 300.5 508 c 0
 348.5 549.333007812 388.166992188 590 419.5 630 c 0
 436.833007812 652 450.833007812 673 461.5 693 c 0
 466.166992188 701 472.166992188 713.333007812 479.5 730 c 1xd0
EndSplineSet
Validated: 1572865
EndChar

StartChar: uniEE0C
Encoding: 60940 60940 67
Width: 800
Flags: W
HStem: -8 21G 482 20G<430.5 430.5>
VStem: 239.5 103<218.333 325.667>
AnchorPoint: "Anchor-2" 400 550 basechar 0
AnchorPoint: "Anchor-1" 400 0 basechar 0
LayerCount: 2
Fore
SplineSet
560.5 431 m 1
 487.5 348 l 1
 365.5 425 l 1
 361.5 422.333007812 358.5 418 356.5 412 c 0
 347.166992188 388.666992188 342.5 351.333007812 342.5 300 c 0
 342.5 232.666992188 357.166992188 178.333007812 386.5 137 c 0
 402.5 114.333007812 419.5 103.333007812 437.5 104 c 0
 444.833007812 104 454.833007812 106.666992188 467.5 112 c 0
 486.833007812 120 506.833007812 132 527.5 148 c 1
 541.5 127 l 1
 530.833007812 121 511.666992188 108 484 88 c 0
 456.333007812 68 439.833007812 56 434.5 52 c 0
 416.5 37.3330078125 395.833007812 17.3330078125 372.5 -8 c 1
 361.833007812 -0.6669921875 343.166992188 14.6669921875 316.5 38 c 0
 283.833007812 70.6669921875 261.5 109.333007812 249.5 154 c 0
 242.833007812 178.666992188 239.5 204.666992188 239.5 232 c 0
 239.5 269.333007812 244.166992188 302.666992188 253.5 332 c 0
 259.5 350.666992188 267.166992188 366.333007812 276.5 379 c 0
 281.166992188 385.666992188 293 397.166992188 312 413.5 c 0
 331 429.833007812 353.5 447.333007812 379.5 466 c 2
 430.5 502 l 1
 459.166992188 485.333007812 502.5 461.666992188 560.5 431 c 1
EndSplineSet
Validated: 1572897
EndChar

StartChar: uniEE0D
Encoding: 60941 60941 68
Width: 800
Flags: W
HStem: -220 78 -69 20G<701.968 701.968> -8 21G 482 20G<429.968 429.968>
VStem: 238.968 103
AnchorPoint: "Anchor-2" 400 550 basechar 0
AnchorPoint: "Anchor-1" 400 0 basechar 0
LayerCount: 2
Fore
SplineSet
559.967773438 431 m 1
 486.967773438 348 l 1
 364.967773438 425 l 1
 360.967773438 422.333007812 357.967773438 418 355.967773438 412 c 0
 346.634765625 388.666992188 341.967773438 351.333007812 341.967773438 300 c 0
 341.967773438 232.666992188 356.634765625 178.333007812 385.967773438 137 c 0
 401.967773438 114.333007812 418.967773438 103.333007812 436.967773438 104 c 0
 444.301757812 104 454.301757812 106.666992188 466.967773438 112 c 0
 482.42578125 118.396484375 498.309570312 127.349609375 514.619140625 138.859375 c 2
 543.967773438 161 l 1
 543.967773438 161 542.217773438 148.045898438 540.638671875 127.493164062 c 1
 540.967773438 127 l 1
 540.841796875 126.928710938 540.713867188 126.856445312 540.584960938 126.783203125 c 0
 534.651367188 48.673828125 531.475585938 -136.481445312 633.967773438 -142 c 0
 709.967773438 -144 701.967773438 -49 701.967773438 -49 c 1
 733.607421875 -83.9794921875 734.685546875 -220 635.967773438 -220 c 0
 492.916992188 -220 484.370117188 8.4541015625 485.85546875 89.7236328125 c 1
 485.067382812 89.1552734375 484.271484375 88.580078125 483.467773438 88 c 0
 455.801757812 68 439.301757812 56 433.967773438 52 c 0
 415.967773438 37.3330078125 395.301757812 17.3330078125 371.967773438 -8 c 1
 361.301757812 -0.6669921875 342.634765625 14.6669921875 315.967773438 38 c 0
 283.301757812 70.6669921875 260.967773438 109.333007812 248.967773438 154 c 0
 242.301757812 178.666992188 238.967773438 204.666992188 238.967773438 232 c 0
 238.967773438 269.333007812 243.634765625 302.666992188 252.967773438 332 c 0
 258.967773438 350.666992188 266.634765625 366.333007812 275.967773438 379 c 0
 280.634765625 385.666992188 292.467773438 397.166992188 311.467773438 413.5 c 0
 330.467773438 429.833007812 352.967773438 447.333007812 378.967773438 466 c 2
 429.967773438 502 l 1
 458.634765625 485.333007812 501.967773438 461.666992188 559.967773438 431 c 1
EndSplineSet
Validated: 1572897
EndChar

StartChar: uniEE0E
Encoding: 60942 60942 69
Width: 800
Flags: W
HStem: -4 21G
VStem: 186 108<219.667 292.667> 245 106<549.667 601.333> 538 76<140 254.333>
AnchorPoint: "Anchor-2" 400 550 basechar 0
AnchorPoint: "Anchor-1" 400 0 basechar 0
LayerCount: 2
Fore
SplineSet
405 679 m 1xb0
 410 657 l 1
 404.666992188 655.666992188 396 651.666992188 384 645 c 0
 362 631 351 612.666992188 351 590 c 0xb0
 351 573.333007812 357.333007812 557 370 541 c 0
 376 533 393 519 421 499 c 0
 442.333007812 483.666992188 474 460 516 428 c 0
 557.333007812 394 585.333007812 356 600 314 c 0
 609.333007812 288 614 264.666992188 614 244 c 0
 614 209.333007812 605.333007812 176.666992188 588 146 c 0
 582 135.333007812 573.666992188 124 563 112 c 0
 555 102 536.666992188 86 508 64 c 0
 494.666992188 55.3330078125 472.333007812 45.3330078125 441 34 c 0
 401 19.3330078125 372.333007812 6.6669921875 355 -4 c 1
 303.666992188 34.6669921875 263 74 233 114 c 0
 215 138 202.666992188 158.5 196 175.5 c 0
 189.333007812 192.5 186 210.333007812 186 229 c 0xd0
 186 264.333007812 200.666992188 298 230 330 c 0
 246 347.333007812 262 361.5 278 372.5 c 0
 294 383.5 317.666992188 396.666992188 349 412 c 1
 310 442 l 2
 288.666992188 458.666992188 271.333007812 480.666992188 258 508 c 0
 249.333007812 526 245 542.333007812 245 557 c 0
 245 592.333007812 265.333007812 621.333007812 306 644 c 0
 328 656 361 667.666992188 405 679 c 1xb0
370 397 m 1
 348.666992188 386.333007812 332.666992188 374 322 360 c 0
 303.333007812 336 294 308.333007812 294 277 c 0xd0
 294 265 295.666992188 252.666992188 299 240 c 0
 309.666992188 197.333007812 330 160.666992188 360 130 c 0
 371.333007812 118.666992188 383.666992188 108.666992188 397 100 c 0
 419.666992188 86 440.666992188 79 460 79 c 0
 512 79.6669921875 538 110 538 170 c 0
 538 212.666992188 522.333007812 254 491 294 c 0
 478.333007812 310 464.833007812 324.5 450.5 337.5 c 0
 436.166992188 350.5 409.333007812 370.333007812 370 397 c 1
EndSplineSet
Validated: 1572865
EndChar

StartChar: uniEE0F
Encoding: 60943 60943 70
Width: 800
Flags: W
HStem: -220 77.9688 -69 20G<813.968 813.968> -4 21G 669.309 21.4453
VStem: 126.968 108 185.968 106 478.968 76 571.076 73.0361 575.114 78.3232 814.21 18.8223
AnchorPoint: "Anchor-2" 400 550 basechar 0
AnchorPoint: "Anchor-1" 400 0 basechar 0
LayerCount: 2
Fore
SplineSet
310.967773438 397 m 1xfa40
 289.634765625 386.333007812 273.634765625 374 262.967773438 360 c 0
 244.30078125 336 234.967773438 308.333007812 234.967773438 277 c 0
 234.967773438 265 236.634765625 252.666992188 239.967773438 240 c 0
 250.634765625 197.333007812 270.967773438 160.666992188 300.967773438 130 c 0
 312.30078125 118.666992188 324.634765625 108.666992188 337.967773438 100 c 0
 360.634765625 86 381.634765625 79 400.967773438 79 c 0
 452.967773438 79.6669921875 478.967773438 110 478.967773438 170 c 0
 478.967773438 212.666992188 463.30078125 254 431.967773438 294 c 0
 419.30078125 310 405.80078125 324.5 391.467773438 337.5 c 0
 377.134765625 350.5 350.30078125 370.333007812 310.967773438 397 c 1xfa40
350.967773438 657 m 0
 345.634765625 655.666992188 336.967773438 651.666992188 324.967773438 645 c 0
 302.967773438 631 291.967773438 612.666992188 291.967773438 590 c 0xf6c0
 291.967773438 573.333007812 298.30078125 557 310.967773438 541 c 0
 316.967773438 533 333.967773438 519 361.967773438 499 c 0
 383.30078125 483.666992188 414.967773438 460 456.967773438 428 c 0
 498.30078125 394 526.30078125 356 540.967773438 314 c 0
 550.30078125 288 554.967773438 264.666992188 554.967773438 244 c 0
 554.967773438 209.333007812 546.30078125 176.666992188 528.967773438 146 c 0
 522.967773438 135.333007812 514.634765625 124 503.967773438 112 c 0
 495.967773438 102 477.634765625 86 448.967773438 64 c 0
 435.634765625 55.3330078125 413.30078125 45.3330078125 381.967773438 34 c 0
 341.967773438 19.3330078125 313.30078125 6.6669921875 295.967773438 -4 c 1
 244.634765625 34.6669921875 203.967773438 74 173.967773438 114 c 0
 155.967773438 138 143.634765625 158.5 136.967773438 175.5 c 0
 130.30078125 192.5 126.967773438 210.333007812 126.967773438 229 c 0xfa40
 126.967773438 264.333007812 141.634765625 298 170.967773438 330 c 0
 186.967773438 347.333007812 202.967773438 361.5 218.967773438 372.5 c 0
 234.967773438 383.5 258.634765625 396.666992188 289.967773438 412 c 1
 250.967773438 442 l 2
 229.634765625 458.666992188 212.30078125 480.666992188 198.967773438 508 c 0
 190.30078125 526 185.967773438 542.333007812 185.967773438 557 c 0
 185.967773438 592.333007812 206.30078125 621.333007812 246.967773438 644 c 0
 268.967773438 656 301.967773438 667.666992188 345.967773438 679 c 0
 380.595703125 687.00390625 421.1796875 690.75390625 448.170898438 690.75390625 c 0
 611.930664062 690.75390625 653.4375 552.708984375 653.4375 389.013671875 c 0xf6c0
 653.4375 286.629882812 644.112304688 174.212890625 644.112304688 79.2607421875 c 0
 644.112304688 -43.40625 670.967773438 -138 745.967773438 -142 c 0
 746.758789062 -142.041992188 747.541992188 -142.03125 748.315429688 -142.03125 c 0
 808.88671875 -142.03125 814.209960938 -78.826171875 814.209960938 -56.6103515625 c 0
 814.209960938 -51.873046875 813.967773438 -49 813.967773438 -49 c 1
 825.545898438 -61.80078125 833.032226562 -88.1328125 833.032226562 -116.377929688 c 0
 833.032226562 -165.31640625 810.559570312 -220 747.967773438 -220 c 0
 602.895507812 -220 571.076171875 -64.3681640625 571.076171875 116.68359375 c 0xf340
 571.076171875 194.573242188 575.114257812 277.16796875 575.114257812 354.099609375 c 0xf2c0
 575.114257812 525.810546875 564.997070312 669.30859375 434.954101562 669.30859375 c 0
 413.4375 669.30859375 378.911132812 665.379882812 350.967773438 657 c 0
EndSplineSet
Validated: 1572865
EndChar

StartChar: uniEE10
Encoding: 60944 60944 71
Width: 800
Flags: W
HStem: -2 21G<355.5 355.5> 477 20G
AnchorPoint: "Anchor-2" 400 550 basechar 0
AnchorPoint: "Anchor-1" 400 0 basechar 0
LayerCount: 2
Fore
SplineSet
555.5 347 m 1
 349.5 226 l 1
 351.5 210.666992188 358.5 185.333007812 370.5 150 c 1
 388.5 116 411.5 99 439.5 99 c 0
 452.833007812 99 472.5 104.666992188 498.5 116 c 0
 509.166992188 122 518.833007812 128 527.5 134 c 1
 541.5 114 l 1
 355.5 -2 l 1
 350.166992188 1.3330078125 342.666992188 7 333 15 c 0
 323.333007812 23 308.166992188 38.6669921875 287.5 62 c 0
 258.833007812 100 244.5 151.666992188 244.5 217 c 0
 244.5 231.666992188 245.833007812 263.333007812 248.5 312 c 0
 250.5 351.333007812 261.833007812 381.666992188 282.5 403 c 0
 291.166992188 412.333007812 313.166992188 426.666992188 348.5 446 c 0
 383.833007812 465.333007812 417.5 482.333007812 449.5 497 c 1
 464.833007812 467.666992188 500.166992188 417.666992188 555.5 347 c 1
346.5 251 m 1
 447.5 310 l 1
 436.166992188 324.666992188 419.166992188 346.333007812 396.5 375 c 0
 385.166992188 390.333007812 373.5 406.666992188 361.5 424 c 1
 355.5 393.333007812 350.833007812 362 347.5 330 c 0
 346.166992188 316.666992188 345.5 304 345.5 292 c 0
 345.5 287.333007812 345.833007812 280.666992188 346.5 272 c 2
 346.5 251 l 1
EndSplineSet
Validated: 1572865
EndChar

StartChar: uniEE11
Encoding: 60945 60945 72
Width: 800
Flags: W
HStem: -165 21G 397 22<212 281 212 212> 397 70<492 492> 625 87<381.333 454.667>
VStem: 281 126<396 397> 290 109
AnchorPoint: "Anchor-2" 400 550 basechar 0
AnchorPoint: "Anchor-1" 400 0 basechar 0
LayerCount: 2
Fore
SplineSet
548 679 m 1xd8
 568 706 l 1
 588 695 l 1
 580 683 568 664.5 552 639.5 c 0
 536 614.5 524 595.666992188 516 583 c 1
 506.666992188 585.666992188 499.333007812 588.333007812 494 591 c 0
 480.666992188 598.333007812 467.666992188 605.333007812 455 612 c 0
 437 620.666992188 419.666992188 625 403 625 c 0
 359.666992188 625 338 604.333007812 338 563 c 0
 338 546.333007812 342.333007812 530 351 514 c 0
 363.666992188 491.333007812 384.333007812 477 413 471 c 0
 427.666992188 467.666992188 454 466.333007812 492 467 c 1
 492 397 l 1
 407 396 l 1xb8
 399 193 l 2
 398.333007812 167.666992188 396.333007812 130.666992188 393 82 c 0
 390.333007812 55.3330078125 386.666992188 22.6669921875 382 -16 c 0
 374 -80 364 -129.666992188 352 -165 c 1
 348.666992188 -159.666992188 344 -151 338 -139 c 0
 329.333007812 -118.333007812 321.666992188 -86 315 -42 c 0
 301.666992188 14.6669921875 293.333007812 82.1669921875 290 160.5 c 0xb4
 286.666992188 238.833007812 283.666992188 317.666992188 281 397 c 1
 212 397 l 1
 212 419 l 1
 227.333007812 423 237.666992188 427.333007812 243 432 c 0
 269.666992188 448.666992188 291 488.333007812 307 551 c 0
 314.333007812 579 321.333007812 601 328 617 c 0
 355.333007812 680.333007812 395.666992188 712 449 712 c 0
 460.333007812 712 469.666992188 711 477 709 c 0
 491.666992188 703 510 695 532 685 c 0
 536 683.666992188 541.333007812 681.666992188 548 679 c 1xd8
EndSplineSet
Validated: 1572897
EndChar

StartChar: uniEE12
Encoding: 60946 60946 73
Width: 800
Flags: W
HStem: -220 78 -165 21G -69 20G<724.968 724.968> 396 71<430.968 566.968> 397 22<235.968 304.968 235.968 235.968> 625 87<405.301 478.634>
VStem: 304.968 126 313.968 109
AnchorPoint: "Anchor-2" 400 550 basechar 0
AnchorPoint: "Anchor-1" 400 0 basechar 0
LayerCount: 2
Fore
SplineSet
571.967773438 679 m 1x6e
 591.967773438 706 l 1
 611.967773438 695 l 1
 603.967773438 683 591.967773438 664.5 575.967773438 639.5 c 0
 559.967773438 614.5 547.967773438 595.666992188 539.967773438 583 c 1
 530.634765625 585.666992188 523.30078125 588.333007812 517.967773438 591 c 0
 504.634765625 598.333007812 491.634765625 605.333007812 478.967773438 612 c 0
 460.967773438 620.666992188 443.634765625 625 426.967773438 625 c 0
 383.634765625 625 361.967773438 604.333007812 361.967773438 563 c 0
 361.967773438 546.333007812 366.30078125 530 374.967773438 514 c 0
 387.634765625 491.333007812 408.30078125 477 436.967773438 471 c 0
 446.74609375 468.77734375 461.708984375 467.444335938 481.856445312 467 c 2
 566.967773438 467 l 1
 566.967773438 467 505.967773438 -94 656.967773438 -142 c 1
 732.967773438 -144 724.967773438 -49 724.967773438 -49 c 1
 756.607421875 -83.9794921875 757.685546875 -220 658.967773438 -220 c 0
 477.828125 -220 472.065429688 221.333984375 476.915039062 396.541015625 c 1
 430.967773438 396 l 1xb6
 422.967773438 193 l 2
 422.30078125 167.666992188 420.30078125 130.666992188 416.967773438 82 c 0
 414.30078125 55.3330078125 410.634765625 22.6669921875 405.967773438 -16 c 0
 397.967773438 -80 387.967773438 -129.666992188 375.967773438 -165 c 1
 372.634765625 -159.666992188 367.967773438 -151 361.967773438 -139 c 0
 353.30078125 -118.333007812 345.634765625 -86 338.967773438 -42 c 0
 325.634765625 14.6669921875 317.30078125 82.1669921875 313.967773438 160.5 c 0x75
 310.634765625 238.833007812 307.634765625 317.666992188 304.967773438 397 c 1
 235.967773438 397 l 1
 235.967773438 419 l 1
 251.30078125 423 261.634765625 427.333007812 266.967773438 432 c 0
 293.634765625 448.666992188 314.967773438 488.333007812 330.967773438 551 c 0
 338.30078125 579 345.30078125 601 351.967773438 617 c 0
 379.30078125 680.333007812 419.634765625 712 472.967773438 712 c 0
 484.30078125 712 493.634765625 711 500.967773438 709 c 0
 515.634765625 703 533.967773438 695 555.967773438 685 c 0
 559.967773438 683.666992188 565.30078125 681.666992188 571.967773438 679 c 1x6e
EndSplineSet
Validated: 1572897
EndChar

StartChar: uniEE13
Encoding: 60947 60947 74
Width: 800
Flags: W
HStem: -208 70<335.833 435.167> -60 20G -4 21G<302.5 302.5> 346 92<317.5 329.5 329.5 329.5 329.5 449.5> 475 20G
VStem: 223.5 94<196 210 210 331 331 346> 449.5 99<233.333 254 254 345 233.333 346 233.333 346> 531.5 78<-47.3335 59>
AnchorPoint: "Anchor-2" 400 550 basechar 0
AnchorPoint: "Anchor-1" 400 0 basechar 0
LayerCount: 2
Fore
SplineSet
611.5 345 m 1xfd
 548.5 345 l 1
 548.5 254 l 2xfe
 548.5 212.666992188 553.166992188 183.666992188 562.5 167 c 0
 568.5 157.666992188 577.166992188 143.333007812 588.5 124 c 0
 602.5 96.6669921875 609.5 71 609.5 47 c 0
 609.5 12.3330078125 597.5 -22.3330078125 573.5 -57 c 0
 564.833007812 -69 550.166992188 -85.6669921875 529.5 -107 c 0
 463.5 -174.333007812 400.833007812 -208 341.5 -208 c 0
 330.166992188 -208 317.5 -206.666992188 303.5 -204 c 0
 292.166992188 -202 277.833007812 -197.333007812 260.5 -190 c 2
 218.5 -172 l 2
 207.833007812 -168 187.833007812 -162.333007812 158.5 -155 c 1
 191.166992188 -125 229.833007812 -86.6669921875 274.5 -40 c 1
 303.833007812 -86.6669921875 336.166992188 -116.333007812 371.5 -129 c 0
 388.166992188 -135 404.833007812 -138 421.5 -138 c 0
 448.833007812 -138 472.5 -129 492.5 -111 c 0
 518.5 -87.6669921875 531.5 -61.6669921875 531.5 -33 c 0
 531.5 -4.3330078125 518.166992188 28.3330078125 491.5 65 c 0
 485.5 71.6669921875 474.166992188 87.6669921875 457.5 113 c 1
 302.5 -4 l 1
 297.833007812 0 291.333007812 6 283 14 c 0
 274.666992188 22 266.833007812 30.6669921875 259.5 40 c 0
 244.166992188 59.3330078125 234.166992188 77.3330078125 229.5 94 c 0
 225.5 108 223.5 128.333007812 223.5 155 c 2
 223.5 331 l 2
 223.5 366.333007812 218.833007812 397.333007812 209.5 424 c 1
 233.5 444 254.833007812 466 273.5 490 c 1
 288.833007812 472 307.5 454.666992188 329.5 438 c 1
 442.5 440 l 1
 461.833007812 456 481.166992188 474.333007812 500.5 495 c 1
 514.5 476.333007812 531.166992188 459 550.5 443 c 1
 571.166992188 443.666992188 601.5 445.333007812 641.5 448 c 1
 632.833007812 426.666992188 626.666992188 409.833007812 623 397.5 c 0
 619.333007812 385.166992188 615.5 367.666992188 611.5 345 c 1xfd
317.5 346 m 1
 317.5 210 l 2
 317.5 182 320.833007812 159.333007812 327.5 142 c 0
 335.5 121.333007812 350.833007812 102.666992188 373.5 86 c 1
 452.5 137 l 1
 450.5 147 449.5 161.333007812 449.5 180 c 2
 449.5 346 l 1
 317.5 346 l 1
EndSplineSet
Validated: 1572865
EndChar

StartChar: uniEE14
Encoding: 60948 60948 75
Width: 800
Flags: W
HStem: -220 78 -208 70<332.301 431.634> -69 21G -4 21G<298.968 298.968> 346 92<313.968 325.968 325.968 325.968 325.968 445.968>
VStem: 219.968 94 445.968 99 527.968 78
AnchorPoint: "Anchor-2" 400 550 basechar 0
AnchorPoint: "Anchor-1" 400 0 basechar 0
LayerCount: 2
Fore
SplineSet
313.967773438 346 m 1x3e
 313.967773438 210 l 2
 313.967773438 182 317.30078125 159.333007812 323.967773438 142 c 0
 331.967773438 121.333007812 347.30078125 102.666992188 369.967773438 86 c 1
 448.967773438 137 l 1
 446.967773438 147 445.967773438 161.333007812 445.967773438 180 c 2
 445.967773438 346 l 1
 313.967773438 346 l 1x3e
707.967773438 453 m 1
 707.967773438 453 646.967773438 -94 797.967773438 -142 c 1
 873.967773438 -144 865.967773438 -49 865.967773438 -49 c 1
 897.607421875 -83.9794921875 898.685546875 -220 799.967773438 -220 c 0
 629.796875 -220 614.40625 158.163085938 617.1875 345 c 1
 544.967773438 345 l 1
 544.967773438 254 l 2xbe
 544.967773438 212.666992188 549.634765625 183.666992188 558.967773438 167 c 0
 564.967773438 157.666992188 573.634765625 143.333007812 584.967773438 124 c 0
 598.967773438 96.6669921875 605.967773438 71 605.967773438 47 c 0
 605.967773438 12.3330078125 593.967773438 -22.3330078125 569.967773438 -57 c 0
 561.30078125 -69 546.634765625 -85.6669921875 525.967773438 -107 c 0
 459.967773438 -174.333007812 397.30078125 -208 337.967773438 -208 c 0
 326.634765625 -208 313.967773438 -206.666992188 299.967773438 -204 c 0
 288.634765625 -202 274.30078125 -197.333007812 256.967773438 -190 c 2
 214.967773438 -172 l 2
 204.30078125 -168 184.30078125 -162.333007812 154.967773438 -155 c 1
 187.634765625 -125 226.30078125 -86.6669921875 270.967773438 -40 c 1
 300.30078125 -86.6669921875 332.634765625 -116.333007812 367.967773438 -129 c 0
 384.634765625 -135 401.30078125 -138 417.967773438 -138 c 0
 445.30078125 -138 468.967773438 -129 488.967773438 -111 c 0
 514.967773438 -87.6669921875 527.967773438 -61.6669921875 527.967773438 -33 c 0x7d
 527.967773438 -4.3330078125 514.634765625 28.3330078125 487.967773438 65 c 0
 481.967773438 71.6669921875 470.634765625 87.6669921875 453.967773438 113 c 1
 298.967773438 -4 l 1
 294.30078125 0 287.80078125 6 279.467773438 14 c 0
 271.134765625 22 263.30078125 30.6669921875 255.967773438 40 c 0
 240.634765625 59.3330078125 230.634765625 77.3330078125 225.967773438 94 c 0
 221.967773438 108 219.967773438 128.333007812 219.967773438 155 c 2
 219.967773438 331 l 2
 219.967773438 366.333007812 215.30078125 397.333007812 205.967773438 424 c 1
 229.967773438 444 251.30078125 466 269.967773438 490 c 1
 285.30078125 472 303.967773438 454.666992188 325.967773438 438 c 1
 438.967773438 440 l 1
 458.30078125 456 477.634765625 474.333007812 496.967773438 495 c 1
 510.967773438 476.333007812 527.634765625 459 546.967773438 443 c 1
 564.59765625 443.568359375 589.26171875 444.865234375 620.959960938 446.889648438 c 2
 707.967773438 453 l 1
EndSplineSet
Validated: 1572897
EndChar

StartChar: uniEE15
Encoding: 60949 60949 76
Width: 800
Flags: W
HStem: -3 21G 482 20G
VStem: 193.5 78<171.667 268>
AnchorPoint: "Anchor-2" 400 550 basechar 0
AnchorPoint: "Anchor-1" 400 0 basechar 0
LayerCount: 2
Fore
SplineSet
606.5 80 m 1
 508.5 -10 l 1
 481.166992188 18 454.5 54.3330078125 428.5 99 c 1
 401.166992188 69 366.166992188 35 323.5 -3 c 1
 296.166992188 15 274.5 32.3330078125 258.5 49 c 0
 215.166992188 94.3330078125 193.5 144.333007812 193.5 199 c 0
 193.5 253.666992188 217.833007812 306 266.5 356 c 0
 274.5 364 287.833007812 375.666992188 306.5 391 c 0
 328.5 408.333007812 356.166992188 428.333007812 389.5 451 c 0
 400.166992188 457.666992188 424.166992188 474.666992188 461.5 502 c 1
 520.166992188 451.333007812 567.833007812 417.666992188 604.5 401 c 1
 593.833007812 391.666992188 578.5 376.666992188 558.5 356 c 0
 523.166992188 314.666992188 505.5 269.333007812 505.5 220 c 0
 505.5 195.333007812 512.833007812 171.333007812 527.5 148 c 0
 536.833007812 133.333007812 546 121.833007812 555 113.5 c 0
 564 105.166992188 581.166992188 94 606.5 80 c 1
511.5 333 m 1
 385.5 421 l 1
 374.166992188 413 355.5 397.666992188 329.5 375 c 2
 310.5 356 l 2
 292.5 336 280.5 314 274.5 290 c 0
 272.5 282 271.5 273 271.5 263 c 0
 271.5 254.333007812 272.5 244.333007812 274.5 233 c 0
 277.833007812 215 287.166992188 195.333007812 302.5 174 c 0
 327.833007812 138.666992188 356.833007812 111.333007812 389.5 92 c 1
 404.166992188 106 418.166992188 122.666992188 431.5 142 c 0
 434.833007812 147.333007812 439.833007812 155.666992188 446.5 167 c 0
 450.5 174.333007812 456.5 188.666992188 464.5 210 c 0
 469.166992188 225.333007812 476.5 248 486.5 278 c 0
 490.5 289.333007812 498.833007812 307.666992188 511.5 333 c 1
EndSplineSet
Validated: 1572865
EndChar

StartChar: uniEE16
Encoding: 60950 60950 77
Width: 800
Flags: W
HStem: -6 21G 645 21<188.5 190.5>
VStem: 236.5 102<203 370 144 397 144 587> 528.5 96<218 323>
AnchorPoint: "Anchor-2" 400 550 basechar 0
AnchorPoint: "Anchor-1" 400 0 basechar 0
LayerCount: 2
Fore
SplineSet
414.5 731 m 1
 423.5 710 l 1
 381.5 688 356.5 665.666992188 348.5 643 c 0
 341.166992188 623 337.5 597.666992188 337.5 567 c 2
 338.5 397 l 1
 359.833007812 411.666992188 391.5 434 433.5 464 c 0
 446.166992188 473.333007812 464.5 487 488.5 505 c 1
 508.5 489 527.166992188 472.666992188 544.5 456 c 0
 597.833007812 404.666992188 624.5 351 624.5 295 c 0
 624.5 257 607.5 215 573.5 169 c 0
 536.833007812 119 488.166992188 73.6669921875 427.5 33 c 0
 413.5 23.6669921875 392.5 10.6669921875 364.5 -6 c 1
 359.166992188 -1.3330078125 350.5 5.6669921875 338.5 15 c 0
 293.833007812 47.6669921875 239.5 72.3330078125 175.5 89 c 1
 188.833007812 97 199.833007812 106.333007812 208.5 117 c 0
 227.166992188 138.333007812 236.5 167 236.5 203 c 2
 236.5 587 l 2
 235.166992188 605 231.166992188 618.166992188 224.5 626.5 c 0
 217.833007812 634.833007812 205.833007812 641 188.5 645 c 1
 190.5 666 l 1
 256.5 668.666992188 331.166992188 690.333007812 414.5 731 c 1
412.5 419 m 1
 338.5 370 l 1
 338.5 144 l 1
 453.5 79 l 1
 467.5 92.3330078125 480.833007812 108.333007812 493.5 127 c 0
 516.833007812 162.333007812 528.5 199 528.5 237 c 0
 528.5 282.333007812 507.5 327.333007812 465.5 372 c 0
 451.5 386.666992188 433.833007812 402.333007812 412.5 419 c 1
EndSplineSet
Validated: 1572865
EndChar

StartChar: uniEE17
Encoding: 60951 60951 78
Width: 800
Flags: W
HStem: -159 21G 481 20G
VStem: 236 102<159 366 399 574 574 586.667> 531 95<161.333 243>
AnchorPoint: "Anchor-2" 400 550 basechar 0
AnchorPoint: "Anchor-1" 400 0 basechar 0
LayerCount: 2
Fore
SplineSet
414 732 m 1
 423 711 l 1
 407.666992188 703 389.333007812 692.333007812 368 679 c 0
 348 663 338 642.666992188 338 618 c 2
 338 399 l 1
 375.333007812 431.666992188 411 465.666992188 445 501 c 1
 489.666992188 460.333007812 522 428.333007812 542 405 c 0
 569.333007812 373 587.666992188 348.666992188 597 332 c 0
 616.333007812 298 626 262 626 224 c 0
 626 208 624 193.333007812 620 180 c 0
 613.333007812 145.333007812 592.333007812 105 557 59 c 0
 537.666992188 33.6669921875 517.333007812 9.6669921875 496 -13 c 0
 458.666992188 -51 404.666992188 -106.666992188 334 -180 c 1
 317 -167 l 1
 362.333007812 -118.333007812 403.666992188 -69.6669921875 441 -21 c 0
 458.333007812 1 470.666992188 18 478 30 c 0
 492 49.3330078125 502.666992188 67.3330078125 510 84 c 0
 524 114.666992188 531 145.666992188 531 177 c 0
 531 193 528.666992188 209 524 225 c 0
 515.333007812 256.333007812 485.666992188 298.333007812 435 351 c 2
 381 405 l 1
 338 366 l 1
 338 120 l 1
 351.333007812 110 367 100.666992188 385 92 c 1
 428 123 l 1
 442 104 l 1
 424 90.6669921875 397.333007812 70.3330078125 362 43 c 0
 359.333007812 41 340.666992188 25.3330078125 306 -4 c 1
 272 30 240 55.3330078125 210 72 c 0
 208.666992188 72.6669921875 200.333007812 76.3330078125 185 83 c 1
 191.666992188 87 202.333007812 95 217 107 c 0
 220.333007812 110.333007812 225 116.333007812 231 125 c 0
 234.333007812 132.333007812 236 143.666992188 236 159 c 2
 236 574 l 2
 236 599.333007812 231 619 221 633 c 0
 215.666992188 640.333007812 208.333007812 647 199 653 c 0
 183 663 174.666992188 668.333007812 174 669 c 1
 198.666992188 667 221.333007812 667.666992188 242 671 c 0
 290 678.333007812 347.333007812 698.666992188 414 732 c 1
EndSplineSet
Validated: 1572897
EndChar

StartChar: uniEE18
Encoding: 60952 60952 79
Width: 0
Flags: W
HStem: 410 33<-391.759 -367.657 -368.657 -367.657 -367.657 -348.657 -348.657 348.723 348.723 367.723 367.723 368.723>
AnchorPoint: "Anchor-4" 0 476 basemark 0
AnchorPoint: "Anchor-4" 0 410 mark 0
AnchorPoint: "Anchor-2" 0 400 mark 0
LayerCount: 2
Fore
SplineSet
-388.657226562 410 m 2
 -394.861328125 410 -377.657226562 435 -375.657226562 437 c 0
 -374.657226562 438 -370.657226562 443 -368.657226562 443 c 2
 -367.657226562 443 l 1
 -348.657226562 443 l 1
 388.72265625 443 l 2
 394.72265625 443 377.72265625 419 375.72265625 417 c 0
 374.72265625 416 370.72265625 410 368.72265625 410 c 2
 367.72265625 410 l 1
 348.72265625 410 l 1
 -388.657226562 410 l 2
EndSplineSet
Validated: 1572865
EndChar

StartChar: uniEE19
Encoding: 60953 60953 80
Width: 0
Flags: W
HStem: 410 33<-391.759 -367.657 -368.657 -367.657 -367.657 -348.657 -348.657 348.723 348.723 367.723 367.723 368.723> 476 33<-391.759 -367.657 -368.657 -367.657 -367.657 -348.657 -348.657 348.723 348.723 367.723 367.723 368.723>
AnchorPoint: "Anchor-4" 0 542 basemark 0
AnchorPoint: "Anchor-4" 0 410 mark 0
AnchorPoint: "Anchor-2" 0 400 mark 0
LayerCount: 2
Fore
SplineSet
-388.657226562 476 m 2
 -394.861328125 476 -377.657226562 501 -375.657226562 503 c 0
 -374.657226562 504 -370.657226562 509 -368.657226562 509 c 2
 -367.657226562 509 l 1
 -348.657226562 509 l 1
 388.72265625 509 l 2
 394.72265625 509 377.72265625 485 375.72265625 483 c 0
 374.72265625 482 370.72265625 476 368.72265625 476 c 2
 367.72265625 476 l 1
 348.72265625 476 l 1
 -388.657226562 476 l 2
-388.657226562 410 m 2
 -394.861328125 410 -377.657226562 435 -375.657226562 437 c 0
 -374.657226562 438 -370.657226562 443 -368.657226562 443 c 2
 -367.657226562 443 l 1
 -348.657226562 443 l 1
 388.72265625 443 l 2
 394.72265625 443 377.72265625 419 375.72265625 417 c 0
 374.72265625 416 370.72265625 410 368.72265625 410 c 2
 367.72265625 410 l 1
 348.72265625 410 l 1
 -388.657226562 410 l 2
EndSplineSet
Validated: 1572865
EndChar

StartChar: uniEE1A
Encoding: 60954 60954 81
Width: 0
Flags: W
HStem: 432 33<-391.759 -367.657 -368.657 -367.657 -367.657 -348.657 -348.657 348.723 348.723 367.723 367.723 368.723>
AnchorPoint: "Anchor-1" 0 475 mark 0
LayerCount: 2
Fore
SplineSet
-388.657226562 432 m 2
 -394.861328125 432 -377.657226562 457 -375.657226562 459 c 0
 -374.657226562 460 -370.657226562 465 -368.657226562 465 c 2
 -367.657226562 465 l 1
 -348.657226562 465 l 1
 388.72265625 465 l 2
 394.72265625 465 377.72265625 441 375.72265625 439 c 0
 374.72265625 438 370.72265625 432 368.72265625 432 c 2
 367.72265625 432 l 1
 348.72265625 432 l 1
 -388.657226562 432 l 2
EndSplineSet
Validated: 524289
EndChar

StartChar: uniEE1B
Encoding: 60955 60955 82
Width: 0
Flags: W
HStem: -63.8486 32.3643
VStem: 276.803 12.0771
LayerCount: 2
Fore
SplineSet
-288.197265625 58 m 0
 -288.666015625 58.46875 -288.879882812 59.1669921875 -288.879882812 60.0439453125 c 0
 -288.879882812 68.0859375 -270.890625 91.2041015625 -266.739257812 91.2041015625 c 0
 -266.517578125 91.2041015625 -266.334960938 91.1376953125 -266.197265625 91 c 0
 -201.166015625 29.3916015625 -104.651367188 -31.484375 16.455078125 -31.484375 c 0
 36.8818359375 -31.484375 58.0087890625 -29.7529296875 79.802734375 -26 c 0
 163.802734375 -11 222.802734375 29 269.802734375 81 c 0
 272.802734375 84 274.802734375 88 276.802734375 91 c 2
 276.802734375 91 284.541015625 100.14453125 287.626953125 100.14453125 c 0
 288.219726562 100.14453125 288.641601562 99.806640625 288.802734375 99 c 0
 288.85546875 98.634765625 288.879882812 98.26171875 288.879882812 97.880859375 c 0
 288.879882812 90.97265625 280.646484375 81.791015625 277.802734375 78 c 0
 220.3515625 3.3994140625 130.548828125 -63.8486328125 3.3505859375 -63.8486328125 c 0
 -17.791015625 -63.8486328125 -39.9658203125 -61.990234375 -63.197265625 -58 c 0
 -155.197265625 -42 -231.197265625 3 -288.197265625 58 c 0
EndSplineSet
Validated: 524289
EndChar

StartChar: uniEE1C
Encoding: 60956 60956 83
Width: 0
Flags: W
HStem: -119.857 114.294
VStem: 63.9121 105.303
AnchorPoint: "Anchor-3" 327 -63 basemark 0
AnchorPoint: "Anchor-3" 115 -63 mark 0
AnchorPoint: "Anchor-0" 115 -63 mark 0
LayerCount: 2
Fore
SplineSet
65.3525390625 -76.123046875 m 0
 63.912109375 -74.6826171875 63.912109375 -73.2421875 63.912109375 -71.8017578125 c 0
 63.912109375 -55.962890625 101.352539062 -5.5625 112.872070312 -5.5625 c 2
 112.872070312 -5.5625 113.885742188 -5.20703125 114.3125 -5.5625 c 0
 131.591796875 -19.962890625 150.3125 -34.36328125 167.591796875 -48.7626953125 c 0
 168.70703125 -49.73828125 169.21484375 -51.25390625 169.21484375 -53.189453125 c 0
 169.21484375 -70.23828125 129.784179688 -119.857421875 118.821289062 -119.857421875 c 0
 118.174804688 -119.857421875 117.625976562 -119.684570312 117.19140625 -119.322265625 c 0
 99.912109375 -104.922851562 82.6318359375 -90.5224609375 65.3525390625 -76.123046875 c 0
EndSplineSet
Validated: 1572865
EndChar

StartChar: uniEE1D
Encoding: 60957 60957 84
Width: 1600
Flags: W
HStem: 0 21G<725 875> 388 112<100 725 875 1500>
VStem: 725 150<0 388>
LayerCount: 2
Fore
SplineSet
725 0 m 1
 725 388 l 1
 100 388 l 1
 100 500 l 1
 1500 500 l 1
 1500 388 l 1
 875 388 l 1
 875 0 l 1
 725 0 l 1
EndSplineSet
Validated: 1
EndChar

StartChar: uniEE1E
Encoding: 60958 60958 85
Width: 1600
Flags: W
HStem: 0 112<100 725 875 1500 100 725> 480 20G<725 875 875 875>
VStem: 725 150<112 500 112 500>
LayerCount: 2
Fore
SplineSet
725 500 m 1
 875 500 l 1
 875 112 l 1
 1500 112 l 1
 1500 0 l 1
 100 0 l 1
 100 112 l 1
 725 112 l 1
 725 500 l 1
EndSplineSet
Validated: 1
EndChar

StartChar: uniEE1F
Encoding: 60959 60959 86
Width: 800
Flags: W
HStem: 0 21G<385.279 414.721 385.279 385.279> 681 20G<372.479 427.521 427.521 427.521>
VStem: 372.479 55.041 385.279 29.4414
LayerCount: 2
Fore
SplineSet
372.479492188 701 m 1xe0
 427.520507812 701 l 1xe0
 414.720703125 0 l 1
 385.279296875 0 l 1xd0
 372.479492188 701 l 1xe0
EndSplineSet
Validated: 524289
EndChar

StartChar: uniEE20
Encoding: 60960 60960 87
Width: 800
Flags: W
HStem: 0 21G<257.2 294 257.2 257.2> 571.6 78.4004
VStem: 249.2 51.9023 257.2 36.7998
LayerCount: 2
Fore
SplineSet
550.799804688 650 m 1xe0
 550.799804688 571.599609375 l 1
 301.102539062 621.458984375 l 1xe0
 294 0 l 1
 257.200195312 0 l 1xd0
 249.200195312 700 l 1
 302 700 l 1
 550.799804688 650 l 1xe0
EndSplineSet
Validated: 524289
EndChar

StartChar: uniEE21
Encoding: 60961 60961 88
Width: 800
Flags: W
HStem: 0 21G<257.2 294 257.2 257.2> 571.6 78.4004
VStem: 249.2 50.2217 257.2 36.7998
LayerCount: 2
Fore
SplineSet
550.799804688 650 m 1xe0
 550.799804688 571.599609375 l 1
 301.102539062 621.458984375 l 1
 300.318359375 552.817382812 l 1
 550.799804688 503 l 1
 550.799804688 424.599609375 l 1
 299.421875 474.397460938 l 1xe0
 294 0 l 1
 257.200195312 0 l 1xd0
 249.200195312 700 l 1
 302 700 l 1
 550.799804688 650 l 1xe0
EndSplineSet
Validated: 524289
EndChar

StartChar: uniEE22
Encoding: 60962 60962 89
Width: 800
Flags: W
HStem: 0 21G<257.2 294 257.2 257.2> 571.6 78.4004
VStem: 249.2 49.4395 257.2 36.7998
LayerCount: 2
Fore
SplineSet
550.799804688 650 m 1xe0
 550.799804688 571.599609375 l 1
 301.102539062 621.458984375 l 1
 300.318359375 552.817382812 l 1
 550.799804688 503 l 1
 550.799804688 424.599609375 l 1
 299.421875 474.397460938 l 1
 298.639648438 405.953125 l 1xe0
 550.799804688 356 l 1
 550.799804688 277.599609375 l 1
 297.743164062 327.532226562 l 1
 294 0 l 1
 257.200195312 0 l 1xd0
 249.200195312 700 l 1
 302 700 l 1
 550.799804688 650 l 1xe0
EndSplineSet
Validated: 524289
EndChar

StartChar: uniEE23
Encoding: 60963 60963 90
Width: 800
Flags: W
HStem: 0 21G<255.7 292.5 255.7 255.7> 571.6 78.4004
VStem: 247.7 49.4375 255.7 36.7998
LayerCount: 2
Fore
SplineSet
549.299804688 650 m 1xe0
 549.299804688 571.599609375 l 1
 299.602539062 621.458984375 l 1
 298.818359375 552.819335938 l 1
 552.299804688 503 l 1
 549.299804688 424.599609375 l 1
 297.921875 474.397460938 l 1
 297.137695312 405.756835938 l 1xe0
 550.299804688 356 l 1
 549.299804688 277.599609375 l 1
 296.241210938 327.3359375 l 1
 295.424804688 255.944335938 l 1
 549.299804688 209 l 1
 549.299804688 130.599609375 l 1
 294.53125 177.708984375 l 1
 292.5 0 l 1
 255.700195312 0 l 1xd0
 247.700195312 700 l 1
 300.5 700 l 1
 549.299804688 650 l 1xe0
EndSplineSet
Validated: 524289
EndChar

StartChar: uniEE24
Encoding: 60964 60964 91
Width: 800
Flags: W
HStem: -119.857 114.294
VStem: 23.3486 105.303 347.349 105.303 671.349 105.303
LayerCount: 2
Fore
SplineSet
672.7890625 -76.123046875 m 0
 671.348632812 -74.6826171875 671.348632812 -73.2421875 671.348632812 -71.8017578125 c 0
 671.348632812 -55.962890625 708.7890625 -5.5625 720.30859375 -5.5625 c 2
 720.30859375 -5.5625 721.322265625 -5.20703125 721.749023438 -5.5625 c 0
 739.028320312 -19.962890625 757.749023438 -34.36328125 775.028320312 -48.7626953125 c 0
 776.143554688 -49.73828125 776.651367188 -51.25390625 776.651367188 -53.189453125 c 0
 776.651367188 -70.23828125 737.220703125 -119.857421875 726.2578125 -119.857421875 c 0
 725.611328125 -119.857421875 725.0625 -119.684570312 724.627929688 -119.322265625 c 0
 707.348632812 -104.922851562 690.068359375 -90.5224609375 672.7890625 -76.123046875 c 0
348.7890625 -76.123046875 m 0
 347.348632812 -74.6826171875 347.348632812 -73.2421875 347.348632812 -71.8017578125 c 0
 347.348632812 -55.962890625 384.7890625 -5.5625 396.30859375 -5.5625 c 2
 396.30859375 -5.5625 397.322265625 -5.20703125 397.749023438 -5.5625 c 0
 415.028320312 -19.962890625 433.749023438 -34.36328125 451.028320312 -48.7626953125 c 0
 452.143554688 -49.73828125 452.651367188 -51.25390625 452.651367188 -53.189453125 c 0
 452.651367188 -70.23828125 413.220703125 -119.857421875 402.2578125 -119.857421875 c 0
 401.611328125 -119.857421875 401.0625 -119.684570312 400.627929688 -119.322265625 c 0
 383.348632812 -104.922851562 366.068359375 -90.5224609375 348.7890625 -76.123046875 c 0
24.7890625 -76.123046875 m 0
 23.3486328125 -74.6826171875 23.3486328125 -73.2421875 23.3486328125 -71.8017578125 c 0
 23.3486328125 -55.962890625 60.7890625 -5.5625 72.30859375 -5.5625 c 2
 72.30859375 -5.5625 73.322265625 -5.20703125 73.7490234375 -5.5625 c 0
 91.0283203125 -19.962890625 109.749023438 -34.36328125 127.028320312 -48.7626953125 c 0
 128.143554688 -49.73828125 128.651367188 -51.25390625 128.651367188 -53.189453125 c 0
 128.651367188 -70.23828125 89.220703125 -119.857421875 78.2578125 -119.857421875 c 0
 77.611328125 -119.857421875 77.0625 -119.684570312 76.6279296875 -119.322265625 c 0
 59.3486328125 -104.922851562 42.068359375 -90.5224609375 24.7890625 -76.123046875 c 0
EndSplineSet
Validated: 524289
EndChar

StartChar: uniEE25
Encoding: 60965 60965 92
Width: 800
Flags: W
HStem: -119.857 114.294
VStem: 185.349 105.303 509.349 105.303
LayerCount: 2
Fore
SplineSet
510.7890625 -76.123046875 m 0
 509.348632812 -74.6826171875 509.348632812 -73.2421875 509.348632812 -71.8017578125 c 0
 509.348632812 -55.962890625 546.7890625 -5.5625 558.30859375 -5.5625 c 2
 558.30859375 -5.5625 559.322265625 -5.20703125 559.749023438 -5.5625 c 0
 577.028320312 -19.962890625 595.749023438 -34.36328125 613.028320312 -48.7626953125 c 0
 614.143554688 -49.73828125 614.651367188 -51.25390625 614.651367188 -53.189453125 c 0
 614.651367188 -70.23828125 575.220703125 -119.857421875 564.2578125 -119.857421875 c 0
 563.611328125 -119.857421875 563.0625 -119.684570312 562.627929688 -119.322265625 c 0
 545.348632812 -104.922851562 528.068359375 -90.5224609375 510.7890625 -76.123046875 c 0
186.7890625 -76.123046875 m 0
 185.348632812 -74.6826171875 185.348632812 -73.2421875 185.348632812 -71.8017578125 c 0
 185.348632812 -55.962890625 222.7890625 -5.5625 234.30859375 -5.5625 c 2
 234.30859375 -5.5625 235.322265625 -5.20703125 235.749023438 -5.5625 c 0
 253.028320312 -19.962890625 271.749023438 -34.36328125 289.028320312 -48.7626953125 c 0
 290.143554688 -49.73828125 290.651367188 -51.25390625 290.651367188 -53.189453125 c 0
 290.651367188 -70.23828125 251.220703125 -119.857421875 240.2578125 -119.857421875 c 0
 239.611328125 -119.857421875 239.0625 -119.684570312 238.627929688 -119.322265625 c 0
 221.348632812 -104.922851562 204.068359375 -90.5224609375 186.7890625 -76.123046875 c 0
EndSplineSet
Validated: 524289
EndChar

StartChar: uniEE26
Encoding: 60966 60966 93
Width: 800
Flags: W
HStem: -119.857 114.294
VStem: 347.349 105.303
LayerCount: 2
Fore
SplineSet
348.7890625 -76.123046875 m 0
 347.348632812 -74.6826171875 347.348632812 -73.2421875 347.348632812 -71.8017578125 c 0
 347.348632812 -55.962890625 384.7890625 -5.5625 396.30859375 -5.5625 c 2
 396.30859375 -5.5625 397.322265625 -5.20703125 397.749023438 -5.5625 c 0
 415.028320312 -19.962890625 433.749023438 -34.36328125 451.028320312 -48.7626953125 c 0
 452.143554688 -49.73828125 452.651367188 -51.25390625 452.651367188 -53.189453125 c 0
 452.651367188 -70.23828125 413.220703125 -119.857421875 402.2578125 -119.857421875 c 0
 401.611328125 -119.857421875 401.0625 -119.684570312 400.627929688 -119.322265625 c 0
 383.348632812 -104.922851562 366.068359375 -90.5224609375 348.7890625 -76.123046875 c 0
EndSplineSet
Validated: 524289
EndChar

StartChar: uniEE27
Encoding: 60967 60967 94
Width: 800
Flags: W
VStem: 357 86<801 801> 377 46<-200 -200>
LayerCount: 2
Fore
SplineSet
357 801 m 1x80
 443 801 l 1x80
 423 -200 l 1
 377 -200 l 1x40
 357 801 l 1x80
EndSplineSet
Validated: 1
EndChar

StartChar: uniEE28
Encoding: 60968 60968 95
Width: 800
Flags: W
HStem: 688 112<431.88 433 433 1144 431.88 431.88>
VStem: 367 64.88 377 46<-200 -200>
LayerCount: 2
Fore
SplineSet
1144 800 m 1xc0
 1144 688 l 1
 431.879882812 688 l 1xc0
 423 -200 l 1
 377 -200 l 1xa0
 367 800 l 1
 426 800 l 1
 433 800 l 1
 1144 800 l 1xc0
EndSplineSet
Validated: 524289
EndChar

StartChar: uniEE29
Encoding: 60969 60969 96
Width: 800
Flags: W
HStem: 478 112<430.9 1144 430.9 1144 429.78 1144> 688 112<431.881 433 433 1144 431.881 431.881>
VStem: 367 62.78 377 46<-200 -200>
LayerCount: 2
Fore
SplineSet
1144 800 m 1xe0
 1144.00097656 688 l 1
 431.880859375 688 l 1
 430.900390625 590 l 1
 1144 590 l 1
 1144 478 l 1
 429.780273438 478 l 1xe0
 423 -200 l 1
 377 -200 l 1xd0
 367 800 l 1
 426 800 l 1
 433 800 l 1
 1144 800 l 1xe0
EndSplineSet
Validated: 524289
EndChar

StartChar: uniEE2A
Encoding: 60970 60970 97
Width: 800
Flags: W
HStem: 268 112<428.8 1144 428.8 1144 427.68 1144> 478 112<430.9 1144 430.9 1144 429.78 1144> 688 112<431.881 433 433 1144 431.881 431.881>
VStem: 367 61.8 377 46<-200 -200>
LayerCount: 2
Fore
SplineSet
1144 800 m 1xf0
 1144.00097656 688 l 1
 431.880859375 688 l 1
 430.900390625 590 l 1
 1144 590 l 1
 1144 478 l 1
 429.780273438 478 l 1
 428.799804688 380 l 1xf0
 1144 380 l 1
 1144 268 l 1
 427.6796875 268 l 1
 423 -200 l 1
 377 -200 l 1xe8
 367 800 l 1
 426 800 l 1
 433 800 l 1
 1144 800 l 1xf0
EndSplineSet
Validated: 524289
EndChar

